<svg width="41" height="40" viewBox="0 0 41 40" fill="none" xmlns="http://www.w3.org/2000/svg">
<path d="M21.499 29H19.5771V14.4805C19.4287 14.6289 19.2099 14.8008 18.9209 14.9961C18.6396 15.1836 18.3193 15.3711 17.9599 15.5586C17.6084 15.7461 17.2334 15.9219 16.8349 16.0859C16.4443 16.25 16.0615 16.3789 15.6865 16.4727V14.5273C16.1084 14.4102 16.5537 14.2539 17.0224 14.0586C17.499 13.8555 17.9638 13.6328 18.417 13.3906C18.8779 13.1406 19.3115 12.8828 19.7177 12.6172C20.124 12.3438 20.4756 12.0781 20.7724 11.8203H21.499V29Z" fill="white"/>
<path d="M20.0225 0.5C30.805 0.5 39.5449 9.23098 39.5449 20C39.5449 30.769 30.805 39.5 20.0225 39.5C9.23997 39.5 0.5 30.769 0.5 20C0.5 9.23099 9.23997 0.50002 20.0225 0.5Z" stroke="#D9D9D9"/>
</svg>
