<svg width="41" height="40" viewBox="0 0 41 40" fill="none" xmlns="http://www.w3.org/2000/svg">
<path d="M22.0615 16.6016C22.0615 16.0859 21.9795 15.6367 21.8154 15.2539C21.6591 14.8711 21.4404 14.5547 21.1591 14.3047C20.8857 14.0469 20.5615 13.8555 20.1865 13.7305C19.8115 13.6055 19.4052 13.543 18.9677 13.543C18.5927 13.543 18.2256 13.5938 17.8662 13.6953C17.5068 13.7969 17.1552 13.9375 16.8115 14.1172C16.4756 14.2969 16.1474 14.5117 15.8271 14.7617C15.5146 15.0117 15.2216 15.2891 14.9482 15.5938V13.5312C15.4873 13.0078 16.0888 12.6094 16.7529 12.3359C17.4248 12.0547 18.2412 11.9141 19.2021 11.9141C19.8896 11.9141 20.5263 12.0156 21.1123 12.2188C21.6982 12.4141 22.206 12.7031 22.6357 13.0859C23.0654 13.4688 23.4013 13.9414 23.6435 14.5039C23.8935 15.0664 24.0185 15.7109 24.0185 16.4375C24.0185 17.1016 23.9404 17.7031 23.7841 18.2422C23.6357 18.7812 23.4052 19.2891 23.0927 19.7656C22.7881 20.2422 22.4013 20.6992 21.9326 21.1367C21.4638 21.5742 20.9131 22.0195 20.2802 22.4727C19.4912 23.0352 18.8388 23.5156 18.3232 23.9141C17.8154 24.3125 17.4091 24.6875 17.1045 25.0391C16.8076 25.3828 16.5966 25.7305 16.4716 26.082C16.3545 26.4258 16.2959 26.8242 16.2959 27.2773H24.6631V29H14.292V28.168C14.292 27.4492 14.3701 26.8164 14.5263 26.2695C14.6826 25.7227 14.9404 25.2031 15.2998 24.7109C15.6591 24.2188 16.1279 23.7266 16.706 23.2344C17.292 22.7422 18.0068 22.1875 18.8506 21.5703C19.4599 21.1328 19.9677 20.7148 20.374 20.3164C20.7881 19.918 21.1201 19.5195 21.3701 19.1211C21.6201 18.7227 21.7959 18.3203 21.8974 17.9141C22.0068 17.5 22.0615 17.0625 22.0615 16.6016Z" fill="white"/>
<path d="M20.0225 0.5C30.805 0.5 39.5449 9.23098 39.5449 20C39.5449 30.769 30.805 39.5 20.0225 39.5C9.23997 39.5 0.5 30.769 0.5 20C0.5 9.23099 9.23997 0.50002 20.0225 0.5Z" stroke="#D9D9D9"/>
</svg>
