<svg width="41" height="40" viewBox="0 0 41 40" fill="none" xmlns="http://www.w3.org/2000/svg">
<path d="M24.1826 24.2422C24.1826 25 24.0381 25.6914 23.749 26.3164C23.4677 26.9336 23.0654 27.4648 22.542 27.9102C22.0263 28.3477 21.4052 28.6875 20.6787 28.9297C19.9521 29.1719 19.1513 29.293 18.2763 29.293C16.6748 29.293 15.4013 28.9883 14.456 28.3789V26.3164C15.5888 27.207 16.8857 27.6523 18.3466 27.6523C18.9326 27.6523 19.4599 27.5781 19.9287 27.4297C20.4052 27.2812 20.8115 27.0664 21.1474 26.7852C21.4912 26.5039 21.7529 26.1641 21.9326 25.7656C22.1201 25.3672 22.2138 24.918 22.2138 24.418C22.2138 22.2227 20.6513 21.125 17.5263 21.125H16.1318V19.4961H17.456C20.2216 19.4961 21.6045 18.4648 21.6045 16.4023C21.6045 14.4961 20.5498 13.543 18.4404 13.543C17.2529 13.543 16.1396 13.9414 15.1006 14.7383V12.875C16.1709 12.2344 17.4443 11.9141 18.9209 11.9141C19.624 11.9141 20.2607 12.0117 20.831 12.207C21.4013 12.4023 21.8896 12.6758 22.2959 13.0273C22.7021 13.3789 23.0146 13.8008 23.2334 14.293C23.4599 14.7852 23.5732 15.3281 23.5732 15.9219C23.5732 18.1328 22.456 19.5547 20.2216 20.1875V20.2344C20.792 20.2969 21.3193 20.4375 21.8037 20.6562C22.2881 20.8672 22.706 21.1445 23.0576 21.4883C23.4091 21.832 23.6826 22.2383 23.8779 22.707C24.081 23.168 24.1826 23.6797 24.1826 24.2422Z" fill="white"/>
<path d="M20.0225 0.5C30.805 0.5 39.5449 9.23098 39.5449 20C39.5449 30.769 30.805 39.5 20.0225 39.5C9.23997 39.5 0.5 30.769 0.5 20C0.5 9.23099 9.23997 0.50002 20.0225 0.5Z" stroke="#D9D9D9"/>
</svg>
