<svg width="41" height="40" viewBox="0 0 41 40" fill="none" xmlns="http://www.w3.org/2000/svg">
<path d="M22.9756 12.1953V23.293H25.1318V25.0508H22.9756V29H21.0771V25.0508H13.1787V23.3867C13.9131 22.5586 14.6552 21.6758 15.4052 20.7383C16.1552 19.793 16.8701 18.8359 17.5498 17.8672C18.2373 16.8984 18.8701 15.9336 19.4482 14.9727C20.0341 14.0039 20.5263 13.0781 20.9248 12.1953H22.9756ZM15.3466 23.293H21.0771V15.0664C20.4912 16.0898 19.9365 17.0039 19.4131 17.8086C18.8896 18.6133 18.3896 19.3438 17.9131 20C17.4443 20.6562 16.9951 21.25 16.5654 21.7812C16.1357 22.3125 15.7295 22.8164 15.3466 23.293Z" fill="white"/>
<path d="M20.0225 0.5C30.805 0.5 39.5449 9.23098 39.5449 20C39.5449 30.769 30.805 39.5 20.0225 39.5C9.23997 39.5 0.5 30.769 0.5 20C0.5 9.23099 9.23997 0.50002 20.0225 0.5Z" stroke="#D9D9D9"/>
</svg>
