<svg width="41" height="40" viewBox="0 0 41 40" fill="none" xmlns="http://www.w3.org/2000/svg">
<path d="M24.3701 23.8672C24.3701 24.6875 24.2295 25.4297 23.9482 26.0938C23.667 26.7578 23.2646 27.3281 22.7412 27.8047C22.2256 28.2812 21.6006 28.6484 20.8662 28.9062C20.1318 29.1641 19.3154 29.293 18.417 29.293C16.8545 29.293 15.6943 29.0586 14.9365 28.5898V26.5508C16.0771 27.2852 17.2451 27.6523 18.4404 27.6523C19.0498 27.6523 19.5966 27.5625 20.081 27.3828C20.5732 27.2031 20.9912 26.9531 21.3349 26.6328C21.6787 26.3125 21.9404 25.9258 22.1201 25.4727C22.3076 25.0195 22.4013 24.5234 22.4013 23.9844C22.4013 22.8906 22.0341 22.0352 21.2998 21.418C20.5654 20.793 19.499 20.4805 18.1006 20.4805C17.874 20.4805 17.6357 20.4844 17.3857 20.4922C17.1357 20.5 16.8857 20.5117 16.6357 20.5273C16.3857 20.5352 16.1396 20.5469 15.8974 20.5625C15.6631 20.5781 15.4482 20.5977 15.2529 20.6211L15.8271 12.1953H23.5966V13.9297H17.4912L17.1513 18.8633C17.4013 18.8477 17.667 18.8359 17.9482 18.8281C18.2295 18.8125 18.4795 18.8047 18.6982 18.8047C19.5888 18.8047 20.3857 18.9219 21.0888 19.1562C21.792 19.3906 22.3857 19.7266 22.8701 20.1641C23.3623 20.5938 23.7334 21.125 23.9834 21.7578C24.2412 22.3828 24.3701 23.0859 24.3701 23.8672Z" fill="white"/>
<path d="M20.0225 0.5C30.805 0.5 39.5449 9.23098 39.5449 20C39.5449 30.769 30.805 39.5 20.0225 39.5C9.23997 39.5 0.5 30.769 0.5 20C0.5 9.23099 9.23997 0.50002 20.0225 0.5Z" stroke="#D9D9D9"/>
</svg>
