<svg width="284" height="264" viewBox="0 0 284 264" fill="none" xmlns="http://www.w3.org/2000/svg">
<path d="M144.98 33.7822C145.681 30.4361 147.742 27.2948 150.506 24.9211C153.269 22.5488 156.734 20.9432 160.248 20.6667C167.279 20.1134 171.841 25.0884 170.438 31.7786L126.493 241.398C125.792 244.742 123.734 247.882 120.972 250.255C118.208 252.63 114.741 254.237 111.225 254.514C104.195 255.067 99.6328 250.092 101.035 243.402L144.98 33.7822Z" fill="url(#paint0_linear_350_1486)" fill-opacity="0.7"/>
<path d="M147.19 66.0143C154.314 59.7428 165.725 49.6958 172.848 43.4243C176.691 40.0407 179.286 37.7561 179.286 37.7561C184.805 32.897 192.372 32.1865 196.186 36.169C200.001 40.1516 198.619 47.3191 193.1 52.1781C193.1 52.1781 190.505 54.4628 186.662 57.8463C179.539 64.1179 168.127 74.1648 161.004 80.4363C157.161 83.8199 154.566 86.1046 154.566 86.1046C149.047 90.9636 141.481 91.6741 137.666 87.6916C133.852 83.7091 135.233 76.5415 140.752 71.6825C140.752 71.6825 143.347 69.3979 147.19 66.0143Z" fill="url(#paint1_linear_350_1486)" fill-opacity="0.7"/>
<path d="M133.035 41.1799C129.402 37.0411 121.885 37.5177 116.245 42.2443C110.604 46.971 108.977 54.1578 112.609 58.2966L137.973 87.1942C141.606 91.333 149.123 90.8564 154.763 86.1298C160.404 81.4031 162.031 74.2163 158.399 70.0775L133.035 41.1799Z" fill="url(#paint2_linear_350_1486)" fill-opacity="0.7"/>
<path d="M137.753 235.875C141.385 240.014 148.903 239.538 154.543 234.811C160.183 230.084 161.811 222.897 158.178 218.759L132.815 189.861C129.182 185.722 121.665 186.199 116.024 190.926C110.384 195.652 108.756 202.839 112.389 206.978L137.753 235.875Z" fill="url(#paint3_linear_350_1486)" fill-opacity="0.7"/>
<path d="M123.505 211.481C116.382 217.752 104.97 227.799 97.8471 234.071C94.004 237.454 91.409 239.739 91.409 239.739C85.8901 244.598 78.3238 245.309 74.5092 241.326C70.6947 237.343 72.0764 230.176 77.5953 225.317C77.5953 225.317 80.1902 223.032 84.0332 219.649C91.1565 213.377 102.568 203.33 109.691 197.059C113.535 193.675 116.129 191.391 116.129 191.391C121.648 186.531 129.215 185.821 133.029 189.803C136.844 193.786 135.462 200.954 129.943 205.813C129.943 205.813 127.348 208.097 123.505 211.481Z" fill="url(#paint4_linear_350_1486)" fill-opacity="0.7"/>
<path d="M236.072 65.0522C242.776 61.0356 250.268 62.1399 252.807 67.5188C254.989 72.1418 252.801 78.4178 247.887 82.6405C247.083 83.3308 246.207 83.9663 245.265 84.5307L35.2111 210.379C28.5071 214.396 21.0144 213.292 18.4759 207.913C16.294 203.29 18.4819 197.014 23.3963 192.791C24.1998 192.101 25.0761 191.465 26.0182 190.901L236.072 65.0522Z" fill="url(#paint5_linear_350_1486)" fill-opacity="0.7"/>
<path d="M242.174 96.4633C248.334 97.2633 251.175 102.963 248.518 109.195C247.555 111.454 246.002 113.473 244.119 115.091C240.809 117.935 236.481 119.539 232.554 119.029L189.54 113.443C183.379 112.643 180.539 106.943 183.195 100.712C184.158 98.4522 185.712 96.4333 187.595 94.8156C190.905 91.9713 195.233 90.3672 199.16 90.8772L242.174 96.4633Z" fill="url(#paint6_linear_350_1486)" fill-opacity="0.7"/>
<path d="M225.676 60.9079C228.532 54.7058 225.926 48.8652 219.855 47.8625C215.859 47.2024 211.357 48.8035 207.932 51.7443C206.155 53.2705 204.668 55.1576 203.692 57.2767L183.752 100.58C180.896 106.782 183.502 112.623 189.573 113.626C193.569 114.286 198.071 112.685 201.495 109.744C203.273 108.218 204.76 106.33 205.736 104.211L225.676 60.9079Z" fill="url(#paint7_linear_350_1486)" fill-opacity="0.7"/>
<path d="M43.6442 215.407C40.7883 221.609 43.3944 227.45 49.4651 228.453C53.4616 229.113 57.9633 227.512 61.3878 224.571C63.1652 223.045 64.6523 221.158 65.6281 219.039L85.5684 175.735C88.4243 169.533 85.8182 163.692 79.7475 162.69C75.751 162.03 71.2493 163.631 67.8247 166.571C66.0474 168.098 64.5602 169.985 63.5844 172.104L43.6442 215.407Z" fill="url(#paint8_linear_350_1486)" fill-opacity="0.7"/>
<path d="M26.7057 180.116C20.5452 179.316 17.7046 173.616 20.3611 167.384C21.3243 165.125 22.8778 163.106 24.7606 161.488C28.0708 158.644 32.3989 157.04 36.3259 157.55L79.3397 163.136C85.5002 163.936 88.3408 169.636 85.6843 175.868C84.7211 178.127 83.1676 180.146 81.2848 181.764C77.9746 184.608 73.6465 186.212 69.7195 185.702L26.7057 180.116Z" fill="url(#paint9_linear_350_1486)" fill-opacity="0.7"/>
<path d="M225.583 175.921C230.761 179.045 230.94 186.395 225.983 192.337C225.312 193.141 224.581 193.879 223.806 194.545C218.856 198.797 212.108 200.138 207.631 197.437L45.3828 99.5344C40.2045 96.4098 40.0252 89.0602 44.9824 83.1187C45.6537 82.3141 46.3848 81.5765 47.1601 80.9104C52.1093 76.6579 58.8573 75.3168 63.3344 78.0183L225.583 175.921Z" fill="url(#paint10_linear_350_1486)" fill-opacity="0.7"/>
<path d="M195.137 202.948C195.304 206.849 193.129 210.946 189.73 213.865C187.928 215.412 185.783 216.627 183.461 217.307C176.757 219.269 171.115 216.02 170.859 210.052L169.074 168.379C168.907 164.48 171.08 160.384 174.477 157.466C176.279 155.918 178.426 154.7 180.75 154.02C187.454 152.059 193.096 155.307 193.352 161.275L195.137 202.948Z" fill="url(#paint11_linear_350_1486)" fill-opacity="0.7"/>
<path d="M227.953 163.922C230.421 163.272 232.713 162.007 234.623 160.366C237.904 157.546 240.057 153.619 240.034 149.807C239.997 143.778 234.528 140.322 227.819 142.088L180.977 154.419C178.511 155.068 176.221 156.333 174.312 157.972C171.028 160.792 168.874 164.721 168.897 168.534C168.934 174.563 174.402 178.019 181.111 176.253L227.953 163.922Z" fill="url(#paint12_linear_350_1486)" fill-opacity="0.7"/>
<path d="M41.7893 110.417C39.3215 111.067 37.0296 112.332 35.12 113.973C31.8383 116.793 29.6856 120.72 29.7089 124.532C29.7459 130.561 35.2145 134.017 41.9233 132.251L88.7652 119.92C91.2314 119.271 93.5219 118.006 95.4307 116.367C98.7145 113.547 100.869 109.618 100.846 105.805C100.809 99.7759 95.34 96.3199 88.6312 98.086L41.7893 110.417Z" fill="url(#paint13_linear_350_1486)" fill-opacity="0.7"/>
<path d="M74.2656 71.1854C74.0985 67.2846 76.2736 63.1872 79.6722 60.2688C81.4737 58.7219 83.619 57.5062 85.9415 56.8267C92.6455 54.865 98.2874 58.1132 98.5431 64.0817L100.328 105.755C100.495 109.654 98.3217 113.749 94.9255 116.667C93.1231 118.216 90.9763 119.433 88.652 120.113C81.9479 122.075 76.306 118.827 76.0504 112.858L74.2656 71.1854Z" fill="url(#paint14_linear_350_1486)" fill-opacity="0.7"/>
<path d="M250.154 52.9561C256.858 48.9395 264.351 50.0439 266.89 55.4227L252.807 67.5193C250.269 62.1405 242.776 61.0361 236.072 65.0527L250.154 52.9561Z" fill="url(#paint15_linear_350_1486)" fill-opacity="0.7"/>
<path d="M261.969 70.5443C266.884 66.3216 269.071 60.0457 266.89 55.4226L252.807 67.5192C254.989 72.1423 252.801 78.4182 247.887 82.6409L261.969 70.5443Z" fill="url(#paint16_linear_350_1486)" fill-opacity="0.7"/>
<path d="M239.759 48.8115C242.615 42.6094 240.009 36.7688 233.938 35.7661L219.855 47.8627C225.926 48.8654 228.532 54.706 225.676 60.9081L239.759 48.8115Z" fill="url(#paint17_linear_350_1486)" fill-opacity="0.7"/>
<path d="M259.347 72.4345C260.288 71.8711 261.163 71.2369 261.965 70.5479L247.887 82.6409C247.083 83.3312 246.207 83.9667 245.265 84.5311L259.347 72.4345Z" fill="url(#paint18_linear_350_1486)" fill-opacity="0.7"/>
<path d="M222.015 39.6478C225.44 36.7071 229.941 35.1059 233.938 35.766L219.855 47.8626C215.859 47.2025 211.357 48.8036 207.933 51.7444L222.015 39.6478Z" fill="url(#paint19_linear_350_1486)" fill-opacity="0.7"/>
<path d="M217.775 45.1804C218.75 43.0629 220.236 41.177 222.011 39.6514L207.933 51.7446C206.155 53.2708 204.668 55.1579 203.692 57.277L217.775 45.1804Z" fill="url(#paint20_linear_350_1486)" fill-opacity="0.7"/>
<path d="M207.183 40.082C212.701 35.223 214.083 28.0555 210.269 24.073L196.186 36.1695C200.001 40.1521 198.619 47.3196 193.1 52.1786L207.183 40.082Z" fill="url(#paint21_linear_350_1486)" fill-opacity="0.7"/>
<path d="M193.369 25.6597C198.888 20.8007 206.454 20.0901 210.269 24.0727L196.186 36.1693C192.449 32.2669 185.109 32.8706 179.622 37.4679L179.286 37.7563C179.398 37.6585 179.51 37.5623 179.622 37.4679L193.369 25.6597Z" fill="url(#paint22_linear_350_1486)" fill-opacity="0.7"/>
<path d="M256.256 84.3669C262.417 85.167 265.258 90.8671 262.601 97.0985L248.519 109.195C251.175 102.964 248.335 97.2635 242.174 96.4635L256.256 84.3669Z" fill="url(#paint23_linear_350_1486)" fill-opacity="0.7"/>
<path d="M258.201 102.995C260.084 101.377 261.638 99.3579 262.601 97.0986L248.518 109.195C247.555 111.454 246.002 113.473 244.119 115.091L258.201 102.995Z" fill="url(#paint24_linear_350_1486)" fill-opacity="0.7"/>
<path d="M184.521 19.6824C185.923 12.9922 181.361 8.01723 174.331 8.57051L160.249 20.6671C167.279 20.1138 171.841 25.0888 170.438 31.779L184.521 19.6824Z" fill="url(#paint25_linear_350_1486)" fill-opacity="0.7"/>
<path d="M239.759 48.8119L219.818 92.1154L205.736 104.212L225.676 60.9085L239.759 48.8119Z" fill="url(#paint26_linear_350_1486)" fill-opacity="0.7"/>
<path d="M200.745 45.75L207.183 40.0818L193.1 52.1784L186.662 57.8466L200.745 45.75Z" fill="url(#paint27_linear_350_1486)" fill-opacity="0.7"/>
<path d="M193.369 25.6597L186.931 31.3279L172.848 43.4245L179.286 37.7563L193.369 25.6597Z" fill="url(#paint28_linear_350_1486)" fill-opacity="0.7"/>
<path d="M256.256 84.3668L213.243 78.7807L199.16 90.8773L242.174 96.4634L256.256 84.3668Z" fill="url(#paint29_linear_350_1486)" fill-opacity="0.7"/>
<path d="M164.588 12.8247C167.351 10.4524 170.817 8.84685 174.331 8.57029L160.248 20.6669C156.734 20.9434 153.269 22.549 150.506 24.9213L164.588 12.8247Z" fill="url(#paint30_linear_350_1486)" fill-opacity="0.7"/>
<path d="M246.636 106.933C250.562 107.443 254.888 105.84 258.198 102.998L244.119 115.091C240.809 117.936 236.481 119.54 232.554 119.03L246.636 106.933Z" fill="url(#paint31_linear_350_1486)" fill-opacity="0.7"/>
<path d="M197.834 88.4838L217.775 45.1803L203.692 57.2769L183.752 100.58L197.834 88.4838Z" fill="url(#paint32_linear_350_1486)" fill-opacity="0.7"/>
<path d="M159.063 21.6856C159.764 18.3414 161.822 15.2017 164.584 12.8284L150.506 24.9211C147.742 27.2948 145.682 30.4362 144.98 33.7822L159.063 21.6856Z" fill="url(#paint33_linear_350_1486)" fill-opacity="0.7"/>
<path d="M175.086 68.3403L200.744 45.7503L186.662 57.8469L161.004 80.4369L175.086 68.3403Z" fill="url(#paint34_linear_350_1486)" fill-opacity="0.7"/>
<path d="M186.931 31.3279L161.273 53.918L147.191 66.0146L172.849 43.4245L186.931 31.3279Z" fill="url(#paint35_linear_350_1486)" fill-opacity="0.7"/>
<path d="M213.242 78.7809C209.315 78.2709 204.987 79.875 201.677 82.7193L187.598 94.8127C190.908 91.9704 195.234 90.3677 199.16 90.8774L213.242 78.7809Z" fill="url(#paint36_linear_350_1486)" fill-opacity="0.7"/>
<path d="M219.818 92.115C218.843 94.2341 217.356 96.1212 215.578 97.6474L201.5 109.741C203.275 108.215 204.761 106.329 205.736 104.212L219.818 92.115Z" fill="url(#paint37_linear_350_1486)" fill-opacity="0.7"/>
<path d="M203.622 101.347L246.636 106.933L232.554 119.03L189.54 113.444L203.622 101.347Z" fill="url(#paint38_linear_350_1486)" fill-opacity="0.7"/>
<path d="M241.902 129.992C248.611 128.226 254.079 131.682 254.116 137.711L240.034 149.808C239.997 143.779 234.528 140.323 227.82 142.089L241.902 129.992Z" fill="url(#paint39_linear_350_1486)" fill-opacity="0.7"/>
<path d="M201.677 82.7192C199.794 84.337 198.241 86.3559 197.278 88.6152L183.195 100.712C184.159 98.4525 185.712 96.4336 187.595 94.8158L201.677 82.7192Z" fill="url(#paint40_linear_350_1486)" fill-opacity="0.7"/>
<path d="M248.705 148.27C251.987 145.45 254.139 141.522 254.116 137.711L240.034 149.808C240.057 153.619 237.904 157.546 234.623 160.366L248.705 148.27Z" fill="url(#paint41_linear_350_1486)" fill-opacity="0.7"/>
<path d="M147.118 29.0834L172.481 57.981L158.399 70.0776L133.035 41.18L147.118 29.0834Z" fill="url(#paint42_linear_350_1486)" fill-opacity="0.7"/>
<path d="M215.578 97.6476C212.154 100.588 207.652 102.19 203.656 101.529L189.573 113.626C193.57 114.286 198.071 112.685 201.496 109.744L215.578 97.6476Z" fill="url(#paint43_linear_350_1486)" fill-opacity="0.7"/>
<path d="M203.655 101.529C197.584 100.527 194.978 94.686 197.834 88.484L183.752 100.581C180.896 106.783 183.502 112.623 189.573 113.626L203.655 101.529Z" fill="url(#paint44_linear_350_1486)" fill-opacity="0.7"/>
<path d="M197.278 88.6151C194.621 94.8465 197.462 100.547 203.623 101.347L189.54 113.443C183.38 112.643 180.539 106.943 183.196 100.712L197.278 88.6151Z" fill="url(#paint45_linear_350_1486)" fill-opacity="0.7"/>
<path d="M147.117 29.0835C143.485 24.9447 135.967 25.4213 130.327 30.1479L116.245 42.2445C121.885 37.5179 129.402 37.0413 133.035 41.1801L147.117 29.0835Z" fill="url(#paint46_linear_350_1486)" fill-opacity="0.7"/>
<path d="M172.481 57.9813C176.114 62.1201 174.486 69.3069 168.846 74.0336L155.099 85.8418C154.989 85.9389 154.877 86.035 154.764 86.1302L155.099 85.8418C160.467 81.1154 161.958 74.1333 158.399 70.0779L172.481 57.9813Z" fill="url(#paint47_linear_350_1486)" fill-opacity="0.7"/>
<path d="M242.036 151.826C244.502 151.176 246.792 149.912 248.701 148.273L234.623 160.366C232.713 162.007 230.421 163.273 227.953 163.922L242.036 151.826Z" fill="url(#paint48_linear_350_1486)" fill-opacity="0.7"/>
<path d="M168.649 74.0081L175.087 68.3399L161.004 80.4365L154.566 86.1047L168.649 74.0081Z" fill="url(#paint49_linear_350_1486)" fill-opacity="0.7"/>
<path d="M161.273 53.9182L154.835 59.5864L140.753 71.683L147.191 66.0148L161.273 53.9182Z" fill="url(#paint50_linear_350_1486)" fill-opacity="0.7"/>
<path d="M195.06 142.323L241.902 129.992L227.82 142.088L180.978 154.419L195.06 142.323Z" fill="url(#paint51_linear_350_1486)" fill-opacity="0.7"/>
<path d="M129.991 30.4365C130.102 30.3394 130.214 30.2432 130.327 30.148L129.991 30.4365C124.623 35.1628 123.132 42.1449 126.692 46.2004L112.61 58.2969C108.977 54.1582 110.604 46.9713 116.245 42.2446L129.991 30.4365Z" fill="url(#paint52_linear_350_1486)" fill-opacity="0.7"/>
<path d="M168.846 74.0334C163.206 78.7601 155.688 79.2366 152.056 75.0979L137.973 87.1944C141.606 91.3332 149.123 90.8567 154.764 86.13L168.846 74.0334Z" fill="url(#paint53_linear_350_1486)" fill-opacity="0.7"/>
<path d="M168.649 74.0082C168.537 74.106 168.425 74.2022 168.313 74.2966L154.566 86.1048C149.047 90.9638 141.481 91.6744 137.666 87.6918L151.749 75.5952C155.487 79.4976 162.826 78.8939 168.313 74.2966L168.649 74.0082Z" fill="url(#paint54_linear_350_1486)" fill-opacity="0.7"/>
<path d="M154.835 59.5859C149.316 64.445 147.934 71.6125 151.749 75.595L137.667 87.6916C133.852 83.7091 135.234 76.5415 140.753 71.6825L154.835 59.5859Z" fill="url(#paint55_linear_350_1486)" fill-opacity="0.7"/>
<path d="M152.056 75.0982L126.692 46.2006L112.61 58.2972L137.973 87.1948L152.056 75.0982Z" fill="url(#paint56_linear_350_1486)" fill-opacity="0.7"/>
<path d="M239.666 163.824C244.844 166.949 245.023 174.299 240.066 180.24L225.984 192.337C230.941 186.395 230.762 179.046 225.583 175.921L239.666 163.824Z" fill="url(#paint57_linear_350_1486)" fill-opacity="0.7"/>
<path d="M242.036 151.826L195.194 164.157L181.111 176.253L227.953 163.922L242.036 151.826Z" fill="url(#paint58_linear_350_1486)" fill-opacity="0.7"/>
<path d="M237.888 182.448C238.663 181.782 239.394 181.045 240.066 180.24L225.983 192.337C225.312 193.141 224.581 193.879 223.806 194.545L237.888 182.448Z" fill="url(#paint59_linear_350_1486)" fill-opacity="0.7"/>
<path d="M207.434 149.179C207.178 143.211 201.536 139.963 194.832 141.924L180.75 154.021C187.454 152.059 193.096 155.307 193.352 161.276L207.434 149.179Z" fill="url(#paint60_linear_350_1486)" fill-opacity="0.7"/>
<path d="M112.626 51.9853C112.37 46.0168 106.728 42.7686 100.024 44.7302L85.9416 56.8268C92.6457 54.8652 98.2876 58.1134 98.5432 64.0819L112.626 51.9853Z" fill="url(#paint61_linear_350_1486)" fill-opacity="0.7"/>
<path d="M221.714 185.341C226.19 188.042 232.935 186.702 237.884 182.452L223.806 194.545C218.857 198.798 212.109 200.139 207.632 197.437L221.714 185.341Z" fill="url(#paint62_linear_350_1486)" fill-opacity="0.7"/>
<path d="M194.833 141.924C192.508 142.604 190.361 143.821 188.559 145.37L174.481 157.463C176.282 155.916 178.428 154.7 180.75 154.021L194.833 141.924Z" fill="url(#paint63_linear_350_1486)" fill-opacity="0.7"/>
<path d="M188.394 145.876C190.303 144.237 192.593 142.972 195.06 142.323L180.977 154.419C178.511 155.069 176.221 156.333 174.312 157.972L188.394 145.876Z" fill="url(#paint64_linear_350_1486)" fill-opacity="0.7"/>
<path d="M93.7551 48.1725C95.5566 46.6256 97.7018 45.4099 100.024 44.7303L85.9419 56.8269C83.6195 57.5065 81.4742 58.7222 79.6727 60.2691L93.7551 48.1725Z" fill="url(#paint65_linear_350_1486)" fill-opacity="0.7"/>
<path d="M239.665 163.824L77.4168 65.9218L63.3344 78.0184L225.583 175.921L239.665 163.824Z" fill="url(#paint66_linear_350_1486)" fill-opacity="0.7"/>
<path d="M209.219 190.852L207.434 149.179L193.352 161.276L195.136 202.949L209.219 190.852Z" fill="url(#paint67_linear_350_1486)" fill-opacity="0.7"/>
<path d="M140.576 229.302L184.52 19.6821L170.438 31.7787L126.493 241.398L140.576 229.302Z" fill="url(#paint68_linear_350_1486)" fill-opacity="0.7"/>
<path d="M188.559 145.37C185.163 148.288 182.99 152.384 183.157 156.283L169.075 168.38C168.908 164.48 171.081 160.385 174.477 157.467L188.559 145.37Z" fill="url(#paint69_linear_350_1486)" fill-opacity="0.7"/>
<path d="M182.979 156.438C182.956 152.626 185.109 148.699 188.39 145.879L174.312 157.972C171.028 160.792 168.873 164.721 168.897 168.534L182.979 156.438Z" fill="url(#paint70_linear_350_1486)" fill-opacity="0.7"/>
<path d="M114.41 93.6583L112.625 51.9855L98.5429 64.0821L100.328 105.755L114.41 93.6583Z" fill="url(#paint71_linear_350_1486)" fill-opacity="0.7"/>
<path d="M195.194 164.157C188.485 165.923 183.016 162.467 182.979 156.438L168.897 168.534C168.934 174.564 174.402 178.02 181.111 176.253L195.194 164.157Z" fill="url(#paint72_linear_350_1486)" fill-opacity="0.7"/>
<path d="M88.3485 59.089C88.1815 55.19 90.3545 51.0945 93.7505 48.1764L79.6727 60.269C76.2741 63.1874 74.099 67.2848 74.2661 71.1856L88.3485 59.089Z" fill="url(#paint73_linear_350_1486)" fill-opacity="0.7"/>
<path d="M250.154 52.9561L40.1005 178.805L26.0182 190.901L236.072 65.0527L250.154 52.9561Z" fill="url(#paint74_linear_350_1486)" fill-opacity="0.7"/>
<path d="M49.2937 198.283L259.347 72.4341L245.265 84.5307L35.2113 210.379L49.2937 198.283Z" fill="url(#paint75_linear_350_1486)" fill-opacity="0.7"/>
<path d="M209.219 190.852C209.386 194.753 207.211 198.85 203.813 201.768L189.735 213.861C193.131 210.943 195.304 206.847 195.137 202.948L209.219 190.852Z" fill="url(#paint76_linear_350_1486)" fill-opacity="0.7"/>
<path d="M102.714 85.9898C109.422 84.2237 114.891 87.6797 114.928 93.709L100.846 105.806C100.809 99.7763 95.3399 96.3203 88.6311 98.0864L102.714 85.9898Z" fill="url(#paint77_linear_350_1486)" fill-opacity="0.7"/>
<path d="M183.157 156.283L184.941 197.956L170.859 210.052L169.074 168.38L183.157 156.283Z" fill="url(#paint78_linear_350_1486)" fill-opacity="0.7"/>
<path d="M114.928 93.7089C114.951 97.5218 112.797 101.451 109.513 104.271L95.4346 116.364C98.7163 113.544 100.869 109.617 100.846 105.806L114.928 93.7089Z" fill="url(#paint79_linear_350_1486)" fill-opacity="0.7"/>
<path d="M159.063 21.6855L115.118 231.305L101.036 243.402L144.98 33.7821L159.063 21.6855Z" fill="url(#paint80_linear_350_1486)" fill-opacity="0.7"/>
<path d="M109.008 104.571C112.404 101.653 114.578 97.5574 114.411 93.6582L100.328 105.755C100.495 109.654 98.322 113.75 94.9258 116.668L109.008 104.571Z" fill="url(#paint81_linear_350_1486)" fill-opacity="0.7"/>
<path d="M88.3485 59.0891L90.1333 100.762L76.0509 112.858L74.2661 71.1857L88.3485 59.0891Z" fill="url(#paint82_linear_350_1486)" fill-opacity="0.7"/>
<path d="M59.4654 87.4382L221.714 185.341L207.632 197.437L45.383 99.5348L59.4654 87.4382Z" fill="url(#paint83_linear_350_1486)" fill-opacity="0.7"/>
<path d="M203.812 201.768C202.011 203.315 199.866 204.531 197.543 205.211L183.461 217.307C185.783 216.628 187.929 215.412 189.73 213.865L203.812 201.768Z" fill="url(#paint84_linear_350_1486)" fill-opacity="0.7"/>
<path d="M109.513 104.271C107.604 105.91 105.314 107.174 102.848 107.824L88.7653 119.92C91.2315 119.271 93.522 118.006 95.4309 116.367L109.513 104.271Z" fill="url(#paint85_linear_350_1486)" fill-opacity="0.7"/>
<path d="M102.735 108.017C105.057 107.337 107.203 106.122 109.004 104.574L94.9257 116.668C93.1234 118.216 90.9765 119.433 88.6522 120.114L102.735 108.017Z" fill="url(#paint86_linear_350_1486)" fill-opacity="0.7"/>
<path d="M77.4171 65.9221C72.94 63.2206 66.192 64.5616 61.2428 68.8142L47.1644 80.9073C52.1133 76.6575 58.8589 75.3179 63.3347 78.0187L77.4171 65.9221Z" fill="url(#paint87_linear_350_1486)" fill-opacity="0.7"/>
<path d="M184.941 197.956C185.197 203.924 190.839 207.172 197.543 205.211L183.461 217.307C176.757 219.269 171.115 216.021 170.859 210.052L184.941 197.956Z" fill="url(#paint88_linear_350_1486)" fill-opacity="0.7"/>
<path d="M90.1331 100.762C90.3888 106.731 96.0307 109.979 102.735 108.017L88.6523 120.114C81.9483 122.075 76.3064 118.827 76.0507 112.859L90.1331 100.762Z" fill="url(#paint89_linear_350_1486)" fill-opacity="0.7"/>
<path d="M61.2428 68.8142C60.4676 69.4803 59.7365 70.2178 59.0652 71.0224L44.9828 83.119C45.6541 82.3144 46.3852 81.5769 47.1604 80.9107L61.2428 68.8142Z" fill="url(#paint90_linear_350_1486)" fill-opacity="0.7"/>
<path d="M55.8718 98.3206L102.714 85.9897L88.6313 98.0863L41.7894 110.417L55.8718 98.3206Z" fill="url(#paint91_linear_350_1486)" fill-opacity="0.7"/>
<path d="M59.065 71.0224C54.1078 76.964 54.2871 84.3135 59.4654 87.4382L45.383 99.5348C40.2047 96.4101 40.0254 89.0605 44.9826 83.119L59.065 71.0224Z" fill="url(#paint92_linear_350_1486)" fill-opacity="0.7"/>
<path d="M146.897 177.765L172.261 206.662L158.178 218.759L132.815 189.861L146.897 177.765Z" fill="url(#paint93_linear_350_1486)" fill-opacity="0.7"/>
<path d="M144.026 193.716C149.545 188.857 150.926 181.69 147.112 177.707L133.03 189.804C136.844 193.786 135.462 200.954 129.943 205.813L144.026 193.716Z" fill="url(#paint94_linear_350_1486)" fill-opacity="0.7"/>
<path d="M130.107 178.829C135.747 174.103 143.264 173.626 146.897 177.765L132.815 189.861C129.182 185.723 121.665 186.199 116.024 190.926L130.107 178.829Z" fill="url(#paint95_linear_350_1486)" fill-opacity="0.7"/>
<path d="M130.212 179.294C135.731 174.435 143.297 173.725 147.112 177.707L133.029 189.804C129.292 185.902 121.952 186.505 116.465 191.103L116.13 191.391C116.241 191.293 116.353 191.197 116.465 191.103L130.212 179.294Z" fill="url(#paint96_linear_350_1486)" fill-opacity="0.7"/>
<path d="M102.848 107.823L56.0058 120.154L41.9235 132.251L88.7653 119.92L102.848 107.823Z" fill="url(#paint97_linear_350_1486)" fill-opacity="0.7"/>
<path d="M172.261 206.662C175.893 210.801 174.266 217.988 168.625 222.715L154.879 234.523C154.769 234.62 154.657 234.716 154.543 234.811L154.879 234.523C160.247 229.797 161.738 222.814 158.178 218.759L172.261 206.662Z" fill="url(#paint98_linear_350_1486)" fill-opacity="0.7"/>
<path d="M55.8722 98.3206C53.4043 98.9702 51.1124 100.236 49.2028 101.877L35.1243 113.97C37.0331 112.331 39.3236 111.066 41.7898 110.417L55.8722 98.3206Z" fill="url(#paint99_linear_350_1486)" fill-opacity="0.7"/>
<path d="M137.588 199.384L144.026 193.716L129.943 205.813L123.505 211.481L137.588 199.384Z" fill="url(#paint100_linear_350_1486)" fill-opacity="0.7"/>
<path d="M130.212 179.294L123.774 184.962L109.692 197.059L116.129 191.391L130.212 179.294Z" fill="url(#paint101_linear_350_1486)" fill-opacity="0.7"/>
<path d="M129.771 179.118C129.881 179.021 129.993 178.925 130.107 178.829L129.771 179.118C124.403 183.844 122.912 190.826 126.472 194.882L112.389 206.978C108.757 202.84 110.384 195.653 116.025 190.926L129.771 179.118Z" fill="url(#paint102_linear_350_1486)" fill-opacity="0.7"/>
<path d="M151.835 223.779C155.468 227.918 162.985 227.441 168.626 222.715L154.543 234.811C148.903 239.538 141.386 240.015 137.753 235.876L151.835 223.779Z" fill="url(#paint103_linear_350_1486)" fill-opacity="0.7"/>
<path d="M93.8299 150.593C99.9006 151.596 102.507 157.437 99.6508 163.639L85.5684 175.735C88.4243 169.533 85.8182 163.693 79.7475 162.69L93.8299 150.593Z" fill="url(#paint104_linear_350_1486)" fill-opacity="0.7"/>
<path d="M99.7668 163.771C102.423 157.54 99.5827 151.84 93.4222 151.04L79.3398 163.136C85.5004 163.936 88.3409 169.637 85.6844 175.868L99.7668 163.771Z" fill="url(#paint105_linear_350_1486)" fill-opacity="0.7"/>
<path d="M49.2024 101.877C45.9208 104.697 43.768 108.624 43.7914 112.436L29.709 124.532C29.6857 120.721 31.8384 116.793 35.1201 113.974L49.2024 101.877Z" fill="url(#paint106_linear_350_1486)" fill-opacity="0.7"/>
<path d="M81.9074 154.475C85.3319 151.534 89.8336 149.933 93.8301 150.593L79.7477 162.69C75.7512 162.03 71.2495 163.631 67.825 166.572L81.9074 154.475Z" fill="url(#paint107_linear_350_1486)" fill-opacity="0.7"/>
<path d="M151.835 223.779L126.472 194.882L112.389 206.978L137.753 235.876L151.835 223.779Z" fill="url(#paint108_linear_350_1486)" fill-opacity="0.7"/>
<path d="M95.3674 169.667C97.2502 168.05 98.8037 166.031 99.7669 163.771L85.6845 175.868C84.7213 178.127 83.1678 180.146 81.285 181.764L95.3674 169.667Z" fill="url(#paint109_linear_350_1486)" fill-opacity="0.7"/>
<path d="M56.0057 120.154C49.2969 121.92 43.8283 118.465 43.7913 112.435L29.7089 124.532C29.7459 130.561 35.2145 134.017 41.9233 132.251L56.0057 120.154Z" fill="url(#paint110_linear_350_1486)" fill-opacity="0.7"/>
<path d="M93.4221 151.04L50.4083 145.454L36.3259 157.55L79.3397 163.137L93.4221 151.04Z" fill="url(#paint111_linear_350_1486)" fill-opacity="0.7"/>
<path d="M77.6671 160.008C78.6421 157.89 80.1278 156.004 81.9034 154.479L67.825 166.572C66.0476 168.098 64.5605 169.985 63.5847 172.104L77.6671 160.008Z" fill="url(#paint112_linear_350_1486)" fill-opacity="0.7"/>
<path d="M83.8021 173.606C87.7276 174.115 92.0539 172.513 95.3636 169.67L81.285 181.764C77.9747 184.608 73.6467 186.212 69.7197 185.702L83.8021 173.606Z" fill="url(#paint113_linear_350_1486)" fill-opacity="0.7"/>
<path d="M111.93 221.974L137.588 199.384L123.505 211.481L97.8474 234.071L111.93 221.974Z" fill="url(#paint114_linear_350_1486)" fill-opacity="0.7"/>
<path d="M123.774 184.962L98.1157 207.552L84.0334 219.649L109.692 197.059L123.774 184.962Z" fill="url(#paint115_linear_350_1486)" fill-opacity="0.7"/>
<path d="M135.054 238.159C137.816 235.786 139.875 232.646 140.576 229.302L126.494 241.398C125.793 244.743 123.734 247.882 120.972 250.256L135.054 238.159Z" fill="url(#paint116_linear_350_1486)" fill-opacity="0.7"/>
<path d="M99.6506 163.639L79.7104 206.942L65.628 219.039L85.5682 175.735L99.6506 163.639Z" fill="url(#paint117_linear_350_1486)" fill-opacity="0.7"/>
<path d="M125.307 242.417C128.821 242.141 132.287 240.535 135.05 238.163L120.972 250.256C118.208 252.63 114.741 254.237 111.225 254.514L125.307 242.417Z" fill="url(#paint118_linear_350_1486)" fill-opacity="0.7"/>
<path d="M50.4085 145.454C46.4816 144.944 42.1535 146.548 38.8433 149.392L24.7646 161.486C28.0744 158.643 32.4007 157.041 36.3262 157.55L50.4085 145.454Z" fill="url(#paint119_linear_350_1486)" fill-opacity="0.7"/>
<path d="M40.7884 168.02L83.8022 173.606L69.7198 185.702L26.706 180.116L40.7884 168.02Z" fill="url(#paint120_linear_350_1486)" fill-opacity="0.7"/>
<path d="M115.118 231.306C113.715 237.996 118.277 242.971 125.307 242.418L111.225 254.514C104.195 255.067 99.6328 250.092 101.035 243.402L115.118 231.306Z" fill="url(#paint121_linear_350_1486)" fill-opacity="0.7"/>
<path d="M105.492 227.643L111.93 221.974L97.8476 234.071L91.4095 239.739L105.492 227.643Z" fill="url(#paint122_linear_350_1486)" fill-opacity="0.7"/>
<path d="M98.1158 207.553L91.678 213.221L77.5956 225.317L84.0335 219.649L98.1158 207.553Z" fill="url(#paint123_linear_350_1486)" fill-opacity="0.7"/>
<path d="M57.7265 203.311L77.6667 160.008L63.5844 172.105L43.6441 215.408L57.7265 203.311Z" fill="url(#paint124_linear_350_1486)" fill-opacity="0.7"/>
<path d="M38.8433 149.392C36.9605 151.01 35.407 153.029 34.4438 155.288L20.3614 167.385C21.3246 165.125 22.8781 163.106 24.7609 161.489L38.8433 149.392Z" fill="url(#paint125_linear_350_1486)" fill-opacity="0.7"/>
<path d="M40.7883 168.02C34.6277 167.22 31.7872 161.52 34.4437 155.288L20.3613 167.385C17.7048 173.616 20.5454 179.316 26.7059 180.116L40.7883 168.02Z" fill="url(#paint126_linear_350_1486)" fill-opacity="0.7"/>
<path d="M88.5915 229.23C92.3293 233.132 99.6692 232.528 105.156 227.931L105.491 227.643C105.38 227.741 105.268 227.837 105.156 227.931L91.4089 239.739C85.89 244.598 78.3237 245.309 74.5091 241.326L88.5915 229.23Z" fill="url(#paint127_linear_350_1486)" fill-opacity="0.7"/>
<path d="M91.6778 213.22C86.1588 218.079 84.7772 225.247 88.5917 229.23L74.5093 241.326C70.6948 237.344 72.0765 230.176 77.5954 225.317L91.6778 213.22Z" fill="url(#paint128_linear_350_1486)" fill-opacity="0.7"/>
<path d="M79.7111 206.942C78.7353 209.061 77.2481 210.948 75.4708 212.475L61.3924 224.568C63.1679 223.042 64.6536 221.156 65.6287 219.039L79.7111 206.942Z" fill="url(#paint129_linear_350_1486)" fill-opacity="0.7"/>
<path d="M40.1004 178.805C39.1584 179.369 38.282 180.005 37.4785 180.695L23.4004 192.788C24.2027 192.099 25.0776 191.465 26.018 190.901L40.1004 178.805Z" fill="url(#paint130_linear_350_1486)" fill-opacity="0.7"/>
<path d="M75.4705 212.475C72.0459 215.415 67.5442 217.016 63.5477 216.356L49.4653 228.453C53.4618 229.113 57.9636 227.512 61.3881 224.571L75.4705 212.475Z" fill="url(#paint131_linear_350_1486)" fill-opacity="0.7"/>
<path d="M57.7266 203.311C54.8707 209.513 57.4768 215.354 63.5475 216.357L49.4651 228.453C43.3944 227.45 40.7883 221.61 43.6442 215.408L57.7266 203.311Z" fill="url(#paint132_linear_350_1486)" fill-opacity="0.7"/>
<path d="M37.4788 180.695C32.5644 184.917 30.3765 191.193 32.5584 195.816L18.476 207.913C16.2941 203.29 18.482 197.014 23.3964 192.791L37.4788 180.695Z" fill="url(#paint133_linear_350_1486)" fill-opacity="0.7"/>
<path d="M32.5584 195.817C35.097 201.195 42.5896 202.3 49.2937 198.283L35.2113 210.38C28.5072 214.396 21.0146 213.292 18.476 207.913L32.5584 195.817Z" fill="url(#paint134_linear_350_1486)" fill-opacity="0.7"/>
<defs>
<linearGradient id="paint0_linear_350_1486" x1="159.084" y1="20.7583" x2="177.073" y2="249.331" gradientUnits="userSpaceOnUse">
<stop stop-color="white"/>
<stop offset="1" stop-color="#497C9C"/>
</linearGradient>
<linearGradient id="paint1_linear_350_1486" x1="159.084" y1="20.7583" x2="177.073" y2="249.331" gradientUnits="userSpaceOnUse">
<stop stop-color="white"/>
<stop offset="1" stop-color="#497C9C"/>
</linearGradient>
<linearGradient id="paint2_linear_350_1486" x1="159.084" y1="20.7583" x2="177.073" y2="249.331" gradientUnits="userSpaceOnUse">
<stop stop-color="white"/>
<stop offset="1" stop-color="#497C9C"/>
</linearGradient>
<linearGradient id="paint3_linear_350_1486" x1="159.084" y1="20.7583" x2="177.073" y2="249.331" gradientUnits="userSpaceOnUse">
<stop stop-color="white"/>
<stop offset="1" stop-color="#497C9C"/>
</linearGradient>
<linearGradient id="paint4_linear_350_1486" x1="159.084" y1="20.7583" x2="177.073" y2="249.331" gradientUnits="userSpaceOnUse">
<stop stop-color="white"/>
<stop offset="1" stop-color="#497C9C"/>
</linearGradient>
<linearGradient id="paint5_linear_350_1486" x1="159.084" y1="20.7583" x2="177.073" y2="249.331" gradientUnits="userSpaceOnUse">
<stop stop-color="white"/>
<stop offset="1" stop-color="#497C9C"/>
</linearGradient>
<linearGradient id="paint6_linear_350_1486" x1="159.084" y1="20.7583" x2="177.073" y2="249.331" gradientUnits="userSpaceOnUse">
<stop stop-color="white"/>
<stop offset="1" stop-color="#497C9C"/>
</linearGradient>
<linearGradient id="paint7_linear_350_1486" x1="159.084" y1="20.7583" x2="177.073" y2="249.331" gradientUnits="userSpaceOnUse">
<stop stop-color="white"/>
<stop offset="1" stop-color="#497C9C"/>
</linearGradient>
<linearGradient id="paint8_linear_350_1486" x1="159.084" y1="20.7583" x2="177.073" y2="249.331" gradientUnits="userSpaceOnUse">
<stop stop-color="white"/>
<stop offset="1" stop-color="#497C9C"/>
</linearGradient>
<linearGradient id="paint9_linear_350_1486" x1="159.084" y1="20.7583" x2="177.073" y2="249.331" gradientUnits="userSpaceOnUse">
<stop stop-color="white"/>
<stop offset="1" stop-color="#497C9C"/>
</linearGradient>
<linearGradient id="paint10_linear_350_1486" x1="159.084" y1="20.7583" x2="177.073" y2="249.331" gradientUnits="userSpaceOnUse">
<stop stop-color="white"/>
<stop offset="1" stop-color="#497C9C"/>
</linearGradient>
<linearGradient id="paint11_linear_350_1486" x1="159.084" y1="20.7583" x2="177.073" y2="249.331" gradientUnits="userSpaceOnUse">
<stop stop-color="white"/>
<stop offset="1" stop-color="#497C9C"/>
</linearGradient>
<linearGradient id="paint12_linear_350_1486" x1="159.084" y1="20.7583" x2="177.073" y2="249.331" gradientUnits="userSpaceOnUse">
<stop stop-color="white"/>
<stop offset="1" stop-color="#497C9C"/>
</linearGradient>
<linearGradient id="paint13_linear_350_1486" x1="159.084" y1="20.7583" x2="177.073" y2="249.331" gradientUnits="userSpaceOnUse">
<stop stop-color="white"/>
<stop offset="1" stop-color="#497C9C"/>
</linearGradient>
<linearGradient id="paint14_linear_350_1486" x1="159.084" y1="20.7583" x2="177.073" y2="249.331" gradientUnits="userSpaceOnUse">
<stop stop-color="white"/>
<stop offset="1" stop-color="#497C9C"/>
</linearGradient>
<linearGradient id="paint15_linear_350_1486" x1="253.442" y1="50.883" x2="254.739" y2="67.3673" gradientUnits="userSpaceOnUse">
<stop stop-color="white"/>
<stop offset="1" stop-color="#497C9C"/>
</linearGradient>
<linearGradient id="paint16_linear_350_1486" x1="261.099" y1="55.8784" x2="263.111" y2="81.4427" gradientUnits="userSpaceOnUse">
<stop stop-color="white"/>
<stop offset="1" stop-color="#497C9C"/>
</linearGradient>
<linearGradient id="paint17_linear_350_1486" x1="232.593" y1="35.8719" x2="234.509" y2="60.2129" gradientUnits="userSpaceOnUse">
<stop stop-color="white"/>
<stop offset="1" stop-color="#497C9C"/>
</linearGradient>
<linearGradient id="paint18_linear_350_1486" x1="254.968" y1="71.0953" x2="255.959" y2="83.6895" gradientUnits="userSpaceOnUse">
<stop stop-color="white"/>
<stop offset="1" stop-color="#497C9C"/>
</linearGradient>
<linearGradient id="paint19_linear_350_1486" x1="222.49" y1="36.3373" x2="223.606" y2="50.5109" gradientUnits="userSpaceOnUse">
<stop stop-color="white"/>
<stop offset="1" stop-color="#497C9C"/>
</linearGradient>
<linearGradient id="paint20_linear_350_1486" x1="214.579" y1="40.2332" x2="215.845" y2="56.3206" gradientUnits="userSpaceOnUse">
<stop stop-color="white"/>
<stop offset="1" stop-color="#497C9C"/>
</linearGradient>
<linearGradient id="paint21_linear_350_1486" x1="206.212" y1="24.3922" x2="208.305" y2="50.982" gradientUnits="userSpaceOnUse">
<stop stop-color="white"/>
<stop offset="1" stop-color="#497C9C"/>
</linearGradient>
<linearGradient id="paint22_linear_350_1486" x1="196.645" y1="22.0066" x2="197.77" y2="36.3016" gradientUnits="userSpaceOnUse">
<stop stop-color="white"/>
<stop offset="1" stop-color="#497C9C"/>
</linearGradient>
<linearGradient id="paint23_linear_350_1486" x1="255.101" y1="84.4578" x2="256.995" y2="108.528" gradientUnits="userSpaceOnUse">
<stop stop-color="white"/>
<stop offset="1" stop-color="#497C9C"/>
</linearGradient>
<linearGradient id="paint24_linear_350_1486" x1="255.123" y1="97.6872" x2="256.416" y2="114.123" gradientUnits="userSpaceOnUse">
<stop stop-color="white"/>
<stop offset="1" stop-color="#497C9C"/>
</linearGradient>
<linearGradient id="paint25_linear_350_1486" x1="174.826" y1="8.5316" x2="176.617" y2="31.2927" gradientUnits="userSpaceOnUse">
<stop stop-color="white"/>
<stop offset="1" stop-color="#497C9C"/>
</linearGradient>
<linearGradient id="paint26_linear_350_1486" x1="228.366" y1="49.7085" x2="232.49" y2="102.106" gradientUnits="userSpaceOnUse">
<stop stop-color="white"/>
<stop offset="1" stop-color="#497C9C"/>
</linearGradient>
<linearGradient id="paint27_linear_350_1486" x1="198.644" y1="40.7538" x2="199.907" y2="56.8042" gradientUnits="userSpaceOnUse">
<stop stop-color="white"/>
<stop offset="1" stop-color="#497C9C"/>
</linearGradient>
<linearGradient id="paint28_linear_350_1486" x1="184.83" y1="26.3317" x2="186.093" y2="42.3821" gradientUnits="userSpaceOnUse">
<stop stop-color="white"/>
<stop offset="1" stop-color="#497C9C"/>
</linearGradient>
<linearGradient id="paint29_linear_350_1486" x1="229.835" y1="77.4748" x2="231.397" y2="97.3116" gradientUnits="userSpaceOnUse">
<stop stop-color="white"/>
<stop offset="1" stop-color="#497C9C"/>
</linearGradient>
<linearGradient id="paint30_linear_350_1486" x1="163.961" y1="9.38639" x2="165.093" y2="23.7733" gradientUnits="userSpaceOnUse">
<stop stop-color="white"/>
<stop offset="1" stop-color="#497C9C"/>
</linearGradient>
<linearGradient id="paint31_linear_350_1486" x1="246.871" y1="103.886" x2="247.987" y2="118.063" gradientUnits="userSpaceOnUse">
<stop stop-color="white"/>
<stop offset="1" stop-color="#497C9C"/>
</linearGradient>
<linearGradient id="paint32_linear_350_1486" x1="206.382" y1="46.0769" x2="210.506" y2="98.4748" gradientUnits="userSpaceOnUse">
<stop stop-color="white"/>
<stop offset="1" stop-color="#497C9C"/>
</linearGradient>
<linearGradient id="paint33_linear_350_1486" x1="156.854" y1="13.4333" x2="158.372" y2="32.7282" gradientUnits="userSpaceOnUse">
<stop stop-color="white"/>
<stop offset="1" stop-color="#497C9C"/>
</linearGradient>
<linearGradient id="paint34_linear_350_1486" x1="184.238" y1="47.0494" x2="186.706" y2="78.4141" gradientUnits="userSpaceOnUse">
<stop stop-color="white"/>
<stop offset="1" stop-color="#497C9C"/>
</linearGradient>
<linearGradient id="paint35_linear_350_1486" x1="170.424" y1="32.627" x2="172.893" y2="63.9918" gradientUnits="userSpaceOnUse">
<stop stop-color="white"/>
<stop offset="1" stop-color="#497C9C"/>
</linearGradient>
<linearGradient id="paint36_linear_350_1486" x1="201.965" y1="79.4207" x2="203.081" y2="93.5971" gradientUnits="userSpaceOnUse">
<stop stop-color="white"/>
<stop offset="1" stop-color="#497C9C"/>
</linearGradient>
<linearGradient id="paint37_linear_350_1486" x1="212.382" y1="92.7003" x2="213.648" y2="108.788" gradientUnits="userSpaceOnUse">
<stop stop-color="white"/>
<stop offset="1" stop-color="#497C9C"/>
</linearGradient>
<linearGradient id="paint38_linear_350_1486" x1="220.215" y1="100.041" x2="221.777" y2="119.878" gradientUnits="userSpaceOnUse">
<stop stop-color="white"/>
<stop offset="1" stop-color="#497C9C"/>
</linearGradient>
<linearGradient id="paint39_linear_350_1486" x1="243.113" y1="129.667" x2="244.67" y2="149.443" gradientUnits="userSpaceOnUse">
<stop stop-color="white"/>
<stop offset="1" stop-color="#497C9C"/>
</linearGradient>
<linearGradient id="paint40_linear_350_1486" x1="194.199" y1="83.3078" x2="195.493" y2="99.744" gradientUnits="userSpaceOnUse">
<stop stop-color="white"/>
<stop offset="1" stop-color="#497C9C"/>
</linearGradient>
<linearGradient id="paint41_linear_350_1486" x1="246.743" y1="138.291" x2="248.395" y2="159.282" gradientUnits="userSpaceOnUse">
<stop stop-color="white"/>
<stop offset="1" stop-color="#497C9C"/>
</linearGradient>
<linearGradient id="paint42_linear_350_1486" x1="157.222" y1="28.2882" x2="160.498" y2="69.9124" gradientUnits="userSpaceOnUse">
<stop stop-color="white"/>
<stop offset="1" stop-color="#497C9C"/>
</linearGradient>
<linearGradient id="paint43_linear_350_1486" x1="204.061" y1="98.5541" x2="205.176" y2="112.728" gradientUnits="userSpaceOnUse">
<stop stop-color="white"/>
<stop offset="1" stop-color="#497C9C"/>
</linearGradient>
<linearGradient id="paint44_linear_350_1486" x1="196.138" y1="88.6175" x2="198.053" y2="112.959" gradientUnits="userSpaceOnUse">
<stop stop-color="white"/>
<stop offset="1" stop-color="#497C9C"/>
</linearGradient>
<linearGradient id="paint45_linear_350_1486" x1="195.858" y1="88.7269" x2="197.752" y2="112.797" gradientUnits="userSpaceOnUse">
<stop stop-color="white"/>
<stop offset="1" stop-color="#497C9C"/>
</linearGradient>
<linearGradient id="paint46_linear_350_1486" x1="133.548" y1="26.7561" x2="134.673" y2="41.0511" gradientUnits="userSpaceOnUse">
<stop stop-color="white"/>
<stop offset="1" stop-color="#497C9C"/>
</linearGradient>
<linearGradient id="paint47_linear_350_1486" x1="168.15" y1="58.3221" x2="170.243" y2="84.9119" gradientUnits="userSpaceOnUse">
<stop stop-color="white"/>
<stop offset="1" stop-color="#497C9C"/>
</linearGradient>
<linearGradient id="paint48_linear_350_1486" x1="239.823" y1="148.968" x2="240.92" y2="162.902" gradientUnits="userSpaceOnUse">
<stop stop-color="white"/>
<stop offset="1" stop-color="#497C9C"/>
</linearGradient>
<linearGradient id="paint49_linear_350_1486" x1="166.548" y1="69.0119" x2="167.811" y2="85.0623" gradientUnits="userSpaceOnUse">
<stop stop-color="white"/>
<stop offset="1" stop-color="#497C9C"/>
</linearGradient>
<linearGradient id="paint50_linear_350_1486" x1="152.734" y1="54.5903" x2="153.997" y2="70.6406" gradientUnits="userSpaceOnUse">
<stop stop-color="white"/>
<stop offset="1" stop-color="#497C9C"/>
</linearGradient>
<linearGradient id="paint51_linear_350_1486" x1="213.532" y1="132.225" x2="215.068" y2="151.736" gradientUnits="userSpaceOnUse">
<stop stop-color="white"/>
<stop offset="1" stop-color="#497C9C"/>
</linearGradient>
<linearGradient id="paint52_linear_350_1486" x1="122.643" y1="30.7528" x2="124.736" y2="57.3426" gradientUnits="userSpaceOnUse">
<stop stop-color="white"/>
<stop offset="1" stop-color="#497C9C"/>
</linearGradient>
<linearGradient id="paint53_linear_350_1486" x1="154.608" y1="74.897" x2="155.733" y2="89.192" gradientUnits="userSpaceOnUse">
<stop stop-color="white"/>
<stop offset="1" stop-color="#497C9C"/>
</linearGradient>
<linearGradient id="paint54_linear_350_1486" x1="154.356" y1="75.1331" x2="155.481" y2="89.4281" gradientUnits="userSpaceOnUse">
<stop stop-color="white"/>
<stop offset="1" stop-color="#497C9C"/>
</linearGradient>
<linearGradient id="paint55_linear_350_1486" x1="147.426" y1="60.169" x2="149.518" y2="86.7588" gradientUnits="userSpaceOnUse">
<stop stop-color="white"/>
<stop offset="1" stop-color="#497C9C"/>
</linearGradient>
<linearGradient id="paint56_linear_350_1486" x1="136.796" y1="45.4054" x2="140.072" y2="87.0296" gradientUnits="userSpaceOnUse">
<stop stop-color="white"/>
<stop offset="1" stop-color="#497C9C"/>
</linearGradient>
<linearGradient id="paint57_linear_350_1486" x1="236.744" y1="164.054" x2="238.89" y2="191.321" gradientUnits="userSpaceOnUse">
<stop stop-color="white"/>
<stop offset="1" stop-color="#497C9C"/>
</linearGradient>
<linearGradient id="paint58_linear_350_1486" x1="213.666" y1="154.059" x2="215.202" y2="173.57" gradientUnits="userSpaceOnUse">
<stop stop-color="white"/>
<stop offset="1" stop-color="#497C9C"/>
</linearGradient>
<linearGradient id="paint59_linear_350_1486" x1="233.324" y1="180.771" x2="234.343" y2="193.716" gradientUnits="userSpaceOnUse">
<stop stop-color="white"/>
<stop offset="1" stop-color="#497C9C"/>
</linearGradient>
<linearGradient id="paint60_linear_350_1486" x1="196.208" y1="141.507" x2="197.737" y2="160.931" gradientUnits="userSpaceOnUse">
<stop stop-color="white"/>
<stop offset="1" stop-color="#497C9C"/>
</linearGradient>
<linearGradient id="paint61_linear_350_1486" x1="101.4" y1="44.3129" x2="102.928" y2="63.7368" gradientUnits="userSpaceOnUse">
<stop stop-color="white"/>
<stop offset="1" stop-color="#497C9C"/>
</linearGradient>
<linearGradient id="paint62_linear_350_1486" x1="224.104" y1="183.534" x2="225.236" y2="197.916" gradientUnits="userSpaceOnUse">
<stop stop-color="white"/>
<stop offset="1" stop-color="#497C9C"/>
</linearGradient>
<linearGradient id="paint63_linear_350_1486" x1="186.14" y1="142.608" x2="187.231" y2="156.463" gradientUnits="userSpaceOnUse">
<stop stop-color="white"/>
<stop offset="1" stop-color="#497C9C"/>
</linearGradient>
<linearGradient id="paint64_linear_350_1486" x1="186.18" y1="143.022" x2="187.276" y2="156.952" gradientUnits="userSpaceOnUse">
<stop stop-color="white"/>
<stop offset="1" stop-color="#497C9C"/>
</linearGradient>
<linearGradient id="paint65_linear_350_1486" x1="91.3339" y1="45.4143" x2="92.424" y2="59.2655" gradientUnits="userSpaceOnUse">
<stop stop-color="white"/>
<stop offset="1" stop-color="#497C9C"/>
</linearGradient>
<linearGradient id="paint66_linear_350_1486" x1="164.466" y1="59.0709" x2="173.982" y2="179.982" gradientUnits="userSpaceOnUse">
<stop stop-color="white"/>
<stop offset="1" stop-color="#497C9C"/>
</linearGradient>
<linearGradient id="paint67_linear_350_1486" x1="206.913" y1="149.22" x2="211.043" y2="201.697" gradientUnits="userSpaceOnUse">
<stop stop-color="white"/>
<stop offset="1" stop-color="#497C9C"/>
</linearGradient>
<linearGradient id="paint68_linear_350_1486" x1="178.65" y1="20.1441" x2="195.635" y2="235.957" gradientUnits="userSpaceOnUse">
<stop stop-color="white"/>
<stop offset="1" stop-color="#497C9C"/>
</linearGradient>
<linearGradient id="paint69_linear_350_1486" x1="180.941" y1="145.97" x2="182.621" y2="167.313" gradientUnits="userSpaceOnUse">
<stop stop-color="white"/>
<stop offset="1" stop-color="#497C9C"/>
</linearGradient>
<linearGradient id="paint70_linear_350_1486" x1="180.774" y1="146.476" x2="182.426" y2="167.469" gradientUnits="userSpaceOnUse">
<stop stop-color="white"/>
<stop offset="1" stop-color="#497C9C"/>
</linearGradient>
<linearGradient id="paint71_linear_350_1486" x1="112.104" y1="52.0266" x2="116.234" y2="104.503" gradientUnits="userSpaceOnUse">
<stop stop-color="white"/>
<stop offset="1" stop-color="#497C9C"/>
</linearGradient>
<linearGradient id="paint72_linear_350_1486" x1="184.142" y1="156.346" x2="185.698" y2="176.122" gradientUnits="userSpaceOnUse">
<stop stop-color="white"/>
<stop offset="1" stop-color="#497C9C"/>
</linearGradient>
<linearGradient id="paint73_linear_350_1486" x1="86.1347" y1="48.7722" x2="87.8148" y2="70.1193" gradientUnits="userSpaceOnUse">
<stop stop-color="white"/>
<stop offset="1" stop-color="#497C9C"/>
</linearGradient>
<linearGradient id="paint74_linear_350_1486" x1="150.908" y1="60.7669" x2="160.318" y2="180.332" gradientUnits="userSpaceOnUse">
<stop stop-color="white"/>
<stop offset="1" stop-color="#497C9C"/>
</linearGradient>
<linearGradient id="paint75_linear_350_1486" x1="160.101" y1="80.2449" x2="169.511" y2="199.81" gradientUnits="userSpaceOnUse">
<stop stop-color="white"/>
<stop offset="1" stop-color="#497C9C"/>
</linearGradient>
<linearGradient id="paint76_linear_350_1486" x1="201.929" y1="191.426" x2="203.609" y2="212.773" gradientUnits="userSpaceOnUse">
<stop stop-color="white"/>
<stop offset="1" stop-color="#497C9C"/>
</linearGradient>
<linearGradient id="paint77_linear_350_1486" x1="103.925" y1="85.6646" x2="105.481" y2="105.441" gradientUnits="userSpaceOnUse">
<stop stop-color="white"/>
<stop offset="1" stop-color="#497C9C"/>
</linearGradient>
<linearGradient id="paint78_linear_350_1486" x1="182.635" y1="156.324" x2="186.765" y2="208.8" gradientUnits="userSpaceOnUse">
<stop stop-color="white"/>
<stop offset="1" stop-color="#497C9C"/>
</linearGradient>
<linearGradient id="paint79_linear_350_1486" x1="107.554" y1="94.2893" x2="109.206" y2="115.283" gradientUnits="userSpaceOnUse">
<stop stop-color="white"/>
<stop offset="1" stop-color="#497C9C"/>
</linearGradient>
<linearGradient id="paint80_linear_350_1486" x1="153.192" y1="22.1475" x2="170.177" y2="237.96" gradientUnits="userSpaceOnUse">
<stop stop-color="white"/>
<stop offset="1" stop-color="#497C9C"/>
</linearGradient>
<linearGradient id="paint81_linear_350_1486" x1="107.122" y1="94.2318" x2="108.802" y2="115.576" gradientUnits="userSpaceOnUse">
<stop stop-color="white"/>
<stop offset="1" stop-color="#497C9C"/>
</linearGradient>
<linearGradient id="paint82_linear_350_1486" x1="87.8272" y1="59.1301" x2="91.9572" y2="111.607" gradientUnits="userSpaceOnUse">
<stop stop-color="white"/>
<stop offset="1" stop-color="#497C9C"/>
</linearGradient>
<linearGradient id="paint83_linear_350_1486" x1="146.515" y1="80.5872" x2="156.031" y2="201.498" gradientUnits="userSpaceOnUse">
<stop stop-color="white"/>
<stop offset="1" stop-color="#497C9C"/>
</linearGradient>
<linearGradient id="paint84_linear_350_1486" x1="195.122" y1="202.452" x2="196.212" y2="216.304" gradientUnits="userSpaceOnUse">
<stop stop-color="white"/>
<stop offset="1" stop-color="#497C9C"/>
</linearGradient>
<linearGradient id="paint85_linear_350_1486" x1="100.633" y1="104.969" x2="101.73" y2="118.9" gradientUnits="userSpaceOnUse">
<stop stop-color="white"/>
<stop offset="1" stop-color="#497C9C"/>
</linearGradient>
<linearGradient id="paint86_linear_350_1486" x1="100.316" y1="105.255" x2="101.406" y2="119.11" gradientUnits="userSpaceOnUse">
<stop stop-color="white"/>
<stop offset="1" stop-color="#497C9C"/>
</linearGradient>
<linearGradient id="paint87_linear_350_1486" x1="64.0297" y1="65.112" x2="65.1616" y2="79.4941" gradientUnits="userSpaceOnUse">
<stop stop-color="white"/>
<stop offset="1" stop-color="#497C9C"/>
</linearGradient>
<linearGradient id="paint88_linear_350_1486" x1="186.251" y1="197.853" x2="187.78" y2="217.277" gradientUnits="userSpaceOnUse">
<stop stop-color="white"/>
<stop offset="1" stop-color="#497C9C"/>
</linearGradient>
<linearGradient id="paint89_linear_350_1486" x1="91.4428" y1="100.659" x2="92.9715" y2="120.083" gradientUnits="userSpaceOnUse">
<stop stop-color="white"/>
<stop offset="1" stop-color="#497C9C"/>
</linearGradient>
<linearGradient id="paint90_linear_350_1486" x1="54.501" y1="69.3447" x2="55.5198" y2="82.2897" gradientUnits="userSpaceOnUse">
<stop stop-color="white"/>
<stop offset="1" stop-color="#497C9C"/>
</linearGradient>
<linearGradient id="paint91_linear_350_1486" x1="74.344" y1="88.2224" x2="75.8796" y2="107.734" gradientUnits="userSpaceOnUse">
<stop stop-color="white"/>
<stop offset="1" stop-color="#497C9C"/>
</linearGradient>
<linearGradient id="paint92_linear_350_1486" x1="54.1524" y1="71.4091" x2="56.2984" y2="98.6757" gradientUnits="userSpaceOnUse">
<stop stop-color="white"/>
<stop offset="1" stop-color="#497C9C"/>
</linearGradient>
<linearGradient id="paint93_linear_350_1486" x1="157.001" y1="176.97" x2="160.277" y2="218.594" gradientUnits="userSpaceOnUse">
<stop stop-color="white"/>
<stop offset="1" stop-color="#497C9C"/>
</linearGradient>
<linearGradient id="paint94_linear_350_1486" x1="143.056" y1="178.026" x2="145.148" y2="204.616" gradientUnits="userSpaceOnUse">
<stop stop-color="white"/>
<stop offset="1" stop-color="#497C9C"/>
</linearGradient>
<linearGradient id="paint95_linear_350_1486" x1="133.328" y1="175.437" x2="134.453" y2="189.733" gradientUnits="userSpaceOnUse">
<stop stop-color="white"/>
<stop offset="1" stop-color="#497C9C"/>
</linearGradient>
<linearGradient id="paint96_linear_350_1486" x1="133.488" y1="175.641" x2="134.613" y2="189.936" gradientUnits="userSpaceOnUse">
<stop stop-color="white"/>
<stop offset="1" stop-color="#497C9C"/>
</linearGradient>
<linearGradient id="paint97_linear_350_1486" x1="74.478" y1="110.056" x2="76.0136" y2="129.568" gradientUnits="userSpaceOnUse">
<stop stop-color="white"/>
<stop offset="1" stop-color="#497C9C"/>
</linearGradient>
<linearGradient id="paint98_linear_350_1486" x1="167.93" y1="207.003" x2="170.023" y2="233.593" gradientUnits="userSpaceOnUse">
<stop stop-color="white"/>
<stop offset="1" stop-color="#497C9C"/>
</linearGradient>
<linearGradient id="paint99_linear_350_1486" x1="46.9905" y1="99.0196" x2="48.0871" y2="112.953" gradientUnits="userSpaceOnUse">
<stop stop-color="white"/>
<stop offset="1" stop-color="#497C9C"/>
</linearGradient>
<linearGradient id="paint100_linear_350_1486" x1="135.487" y1="194.388" x2="136.75" y2="210.439" gradientUnits="userSpaceOnUse">
<stop stop-color="white"/>
<stop offset="1" stop-color="#497C9C"/>
</linearGradient>
<linearGradient id="paint101_linear_350_1486" x1="121.673" y1="179.966" x2="122.936" y2="196.017" gradientUnits="userSpaceOnUse">
<stop stop-color="white"/>
<stop offset="1" stop-color="#497C9C"/>
</linearGradient>
<linearGradient id="paint102_linear_350_1486" x1="122.423" y1="179.434" x2="124.516" y2="206.024" gradientUnits="userSpaceOnUse">
<stop stop-color="white"/>
<stop offset="1" stop-color="#497C9C"/>
</linearGradient>
<linearGradient id="paint103_linear_350_1486" x1="154.388" y1="223.578" x2="155.513" y2="237.873" gradientUnits="userSpaceOnUse">
<stop stop-color="white"/>
<stop offset="1" stop-color="#497C9C"/>
</linearGradient>
<linearGradient id="paint104_linear_350_1486" x1="92.4856" y1="150.699" x2="94.4013" y2="175.04" gradientUnits="userSpaceOnUse">
<stop stop-color="white"/>
<stop offset="1" stop-color="#497C9C"/>
</linearGradient>
<linearGradient id="paint105_linear_350_1486" x1="92.2669" y1="151.131" x2="94.1612" y2="175.201" gradientUnits="userSpaceOnUse">
<stop stop-color="white"/>
<stop offset="1" stop-color="#497C9C"/>
</linearGradient>
<linearGradient id="paint106_linear_350_1486" x1="41.584" y1="102.477" x2="43.236" y2="123.468" gradientUnits="userSpaceOnUse">
<stop stop-color="white"/>
<stop offset="1" stop-color="#497C9C"/>
</linearGradient>
<linearGradient id="paint107_linear_350_1486" x1="82.3826" y1="151.165" x2="83.4981" y2="165.338" gradientUnits="userSpaceOnUse">
<stop stop-color="white"/>
<stop offset="1" stop-color="#497C9C"/>
</linearGradient>
<linearGradient id="paint108_linear_350_1486" x1="136.576" y1="194.086" x2="139.852" y2="235.711" gradientUnits="userSpaceOnUse">
<stop stop-color="white"/>
<stop offset="1" stop-color="#497C9C"/>
</linearGradient>
<linearGradient id="paint109_linear_350_1486" x1="92.2885" y1="164.36" x2="93.5821" y2="180.796" gradientUnits="userSpaceOnUse">
<stop stop-color="white"/>
<stop offset="1" stop-color="#497C9C"/>
</linearGradient>
<linearGradient id="paint110_linear_350_1486" x1="44.9536" y1="112.344" x2="46.51" y2="132.12" gradientUnits="userSpaceOnUse">
<stop stop-color="white"/>
<stop offset="1" stop-color="#497C9C"/>
</linearGradient>
<linearGradient id="paint111_linear_350_1486" x1="67.0013" y1="144.148" x2="68.5624" y2="163.985" gradientUnits="userSpaceOnUse">
<stop stop-color="white"/>
<stop offset="1" stop-color="#497C9C"/>
</linearGradient>
<linearGradient id="paint112_linear_350_1486" x1="74.4712" y1="155.06" x2="75.7373" y2="171.148" gradientUnits="userSpaceOnUse">
<stop stop-color="white"/>
<stop offset="1" stop-color="#497C9C"/>
</linearGradient>
<linearGradient id="paint113_linear_350_1486" x1="84.0374" y1="170.559" x2="85.1531" y2="184.735" gradientUnits="userSpaceOnUse">
<stop stop-color="white"/>
<stop offset="1" stop-color="#497C9C"/>
</linearGradient>
<linearGradient id="paint114_linear_350_1486" x1="121.081" y1="200.683" x2="123.549" y2="232.048" gradientUnits="userSpaceOnUse">
<stop stop-color="white"/>
<stop offset="1" stop-color="#497C9C"/>
</linearGradient>
<linearGradient id="paint115_linear_350_1486" x1="107.267" y1="186.261" x2="109.736" y2="217.626" gradientUnits="userSpaceOnUse">
<stop stop-color="white"/>
<stop offset="1" stop-color="#497C9C"/>
</linearGradient>
<linearGradient id="paint116_linear_350_1486" x1="132.843" y1="229.911" x2="134.361" y2="249.202" gradientUnits="userSpaceOnUse">
<stop stop-color="white"/>
<stop offset="1" stop-color="#497C9C"/>
</linearGradient>
<linearGradient id="paint117_linear_350_1486" x1="88.2584" y1="164.535" x2="92.3822" y2="216.933" gradientUnits="userSpaceOnUse">
<stop stop-color="white"/>
<stop offset="1" stop-color="#497C9C"/>
</linearGradient>
<linearGradient id="paint118_linear_350_1486" x1="124.683" y1="238.975" x2="125.815" y2="253.366" gradientUnits="userSpaceOnUse">
<stop stop-color="white"/>
<stop offset="1" stop-color="#497C9C"/>
</linearGradient>
<linearGradient id="paint119_linear_350_1486" x1="39.1314" y1="146.094" x2="40.2471" y2="160.27" gradientUnits="userSpaceOnUse">
<stop stop-color="white"/>
<stop offset="1" stop-color="#497C9C"/>
</linearGradient>
<linearGradient id="paint120_linear_350_1486" x1="57.3814" y1="166.714" x2="58.9426" y2="186.551" gradientUnits="userSpaceOnUse">
<stop stop-color="white"/>
<stop offset="1" stop-color="#497C9C"/>
</linearGradient>
<linearGradient id="paint121_linear_350_1486" x1="115.612" y1="231.267" x2="117.404" y2="254.028" gradientUnits="userSpaceOnUse">
<stop stop-color="white"/>
<stop offset="1" stop-color="#497C9C"/>
</linearGradient>
<linearGradient id="paint122_linear_350_1486" x1="103.391" y1="222.646" x2="104.654" y2="238.697" gradientUnits="userSpaceOnUse">
<stop stop-color="white"/>
<stop offset="1" stop-color="#497C9C"/>
</linearGradient>
<linearGradient id="paint123_linear_350_1486" x1="89.5769" y1="208.225" x2="90.8401" y2="224.275" gradientUnits="userSpaceOnUse">
<stop stop-color="white"/>
<stop offset="1" stop-color="#497C9C"/>
</linearGradient>
<linearGradient id="paint124_linear_350_1486" x1="66.2745" y1="160.905" x2="70.3983" y2="213.302" gradientUnits="userSpaceOnUse">
<stop stop-color="white"/>
<stop offset="1" stop-color="#497C9C"/>
</linearGradient>
<linearGradient id="paint125_linear_350_1486" x1="31.365" y1="149.981" x2="32.6585" y2="166.417" gradientUnits="userSpaceOnUse">
<stop stop-color="white"/>
<stop offset="1" stop-color="#497C9C"/>
</linearGradient>
<linearGradient id="paint126_linear_350_1486" x1="33.0237" y1="155.4" x2="34.9181" y2="179.47" gradientUnits="userSpaceOnUse">
<stop stop-color="white"/>
<stop offset="1" stop-color="#497C9C"/>
</linearGradient>
<linearGradient id="paint127_linear_350_1486" x1="91.1987" y1="228.768" x2="92.3238" y2="243.063" gradientUnits="userSpaceOnUse">
<stop stop-color="white"/>
<stop offset="1" stop-color="#497C9C"/>
</linearGradient>
<linearGradient id="paint128_linear_350_1486" x1="84.2685" y1="213.804" x2="86.3612" y2="240.393" gradientUnits="userSpaceOnUse">
<stop stop-color="white"/>
<stop offset="1" stop-color="#497C9C"/>
</linearGradient>
<linearGradient id="paint129_linear_350_1486" x1="72.2749" y1="207.527" x2="73.541" y2="223.615" gradientUnits="userSpaceOnUse">
<stop stop-color="white"/>
<stop offset="1" stop-color="#497C9C"/>
</linearGradient>
<linearGradient id="paint130_linear_350_1486" x1="33.0989" y1="179.356" x2="34.09" y2="191.95" gradientUnits="userSpaceOnUse">
<stop stop-color="white"/>
<stop offset="1" stop-color="#497C9C"/>
</linearGradient>
<linearGradient id="paint131_linear_350_1486" x1="63.9527" y1="213.381" x2="65.0682" y2="227.555" gradientUnits="userSpaceOnUse">
<stop stop-color="white"/>
<stop offset="1" stop-color="#497C9C"/>
</linearGradient>
<linearGradient id="paint132_linear_350_1486" x1="56.03" y1="203.445" x2="57.9457" y2="227.786" gradientUnits="userSpaceOnUse">
<stop stop-color="white"/>
<stop offset="1" stop-color="#497C9C"/>
</linearGradient>
<linearGradient id="paint133_linear_350_1486" x1="29.7496" y1="181.303" x2="31.7616" y2="206.867" gradientUnits="userSpaceOnUse">
<stop stop-color="white"/>
<stop offset="1" stop-color="#497C9C"/>
</linearGradient>
<linearGradient id="paint134_linear_350_1486" x1="35.4592" y1="195.588" x2="36.7566" y2="212.073" gradientUnits="userSpaceOnUse">
<stop stop-color="white"/>
<stop offset="1" stop-color="#497C9C"/>
</linearGradient>
</defs>
</svg>
