<svg width="245" height="254" viewBox="0 0 245 254" fill="none" xmlns="http://www.w3.org/2000/svg">
<path d="M99.9706 25.0562C99.8012 21.6416 101.078 18.5692 103.278 16.3622C105.478 14.1565 108.6 12.8154 112.125 12.8615C119.176 12.9538 125.167 18.5632 125.505 25.3905L136.117 239.304C136.286 242.716 135.011 245.787 132.813 247.994C130.613 250.202 127.49 251.545 123.963 251.498C116.912 251.406 110.921 245.797 110.582 238.97L99.9706 25.0562Z" fill="url(#paint0_linear_350_1358)" fill-opacity="0.7"/>
<path d="M110.784 58.8006C116.414 52.9525 125.433 43.5838 131.062 37.7357C134.1 34.5806 136.151 32.4502 136.151 32.4502C140.512 27.9192 148.071 27.8988 153.033 32.4047C157.995 36.9105 158.482 44.2364 154.12 48.7673C154.12 48.7673 152.069 50.8977 149.032 54.0529C143.402 59.901 134.383 69.2696 128.753 75.1177C125.716 78.2729 123.665 80.4033 123.665 80.4033C119.303 84.9343 111.745 84.9546 106.783 80.4488C101.821 75.9429 101.334 68.6171 105.696 64.0861C105.696 64.0861 107.747 61.9557 110.784 58.8006Z" fill="url(#paint1_linear_350_1358)" fill-opacity="0.7"/>
<path d="M89.7027 31.6179C84.8854 26.9667 77.315 26.7483 72.7938 31.1301C68.2726 35.5118 68.5126 42.8344 73.33 47.4855L106.965 79.9604C111.782 84.6116 119.353 84.83 123.874 80.4483C128.395 76.0665 128.155 68.7439 123.338 64.0928L89.7027 31.6179Z" fill="url(#paint2_linear_350_1358)" fill-opacity="0.7"/>
<path d="M146.18 234.628C150.997 239.279 158.568 239.497 163.089 235.115C167.61 230.734 167.37 223.411 162.553 218.76L128.918 186.285C124.101 181.634 116.53 181.416 112.009 185.797C107.488 190.179 107.728 197.502 112.545 202.153L146.18 234.628Z" fill="url(#paint3_linear_350_1358)" fill-opacity="0.7"/>
<path d="M125.121 207.894C119.491 213.742 110.473 223.11 104.843 228.959C101.805 232.114 99.7546 234.244 99.7546 234.244C95.3928 238.775 87.8342 238.795 82.8721 234.29C77.91 229.784 77.4234 222.458 81.7852 217.927C81.7852 217.927 83.836 215.797 86.8733 212.642C92.5031 206.793 101.522 197.425 107.152 191.576C110.189 188.421 112.24 186.291 112.24 186.291C116.602 181.76 124.16 181.74 129.122 186.246C134.084 190.751 134.571 198.077 130.209 202.608C130.209 202.608 128.158 204.739 125.121 207.894Z" fill="url(#paint4_linear_350_1358)" fill-opacity="0.7"/>
<path d="M201.533 66.2443C207.332 62.7024 215.296 64.5633 219.322 70.4007C222.783 75.4178 222.207 81.7394 218.296 85.6658C217.656 86.3077 216.928 86.8856 216.113 87.3833L34.4262 198.359C28.6275 201.901 20.663 200.04 16.6369 194.203C13.1766 189.185 13.7519 182.864 17.6635 178.937C18.3031 178.295 19.0318 177.718 19.8466 177.22L201.533 66.2443Z" fill="url(#paint5_linear_350_1358)" fill-opacity="0.7"/>
<path d="M216.113 99.5042C222.633 100.922 227.054 107.122 225.987 113.353C225.6 115.612 224.545 117.565 223.046 119.069C220.411 121.714 216.405 122.972 212.249 122.068L166.726 112.169C160.207 110.752 155.786 104.551 156.853 98.3205C157.24 96.0614 158.295 94.1085 159.793 92.6043C162.428 89.9597 166.434 88.7019 170.59 89.6056L216.113 99.5042Z" fill="url(#paint6_linear_350_1358)" fill-opacity="0.7"/>
<path d="M189.79 60.9449C191.068 54.7636 186.851 48.4394 180.369 46.8194C176.102 45.7529 171.918 46.991 169.191 49.7252C167.776 51.1443 166.754 52.9663 166.317 55.0783L157.388 98.2368C156.109 104.418 160.327 110.742 166.808 112.362C171.076 113.429 175.26 112.191 177.986 109.456C179.401 108.037 180.423 106.215 180.86 104.103L189.79 60.9449Z" fill="url(#paint7_linear_350_1358)" fill-opacity="0.7"/>
<path d="M44.3945 204.391C43.1156 210.573 47.3333 216.897 53.815 218.517C58.0821 219.583 62.2666 218.345 64.9928 215.611C66.4077 214.192 67.4298 212.37 67.8667 210.258L76.7961 167.099C78.075 160.918 73.8573 154.594 67.3756 152.974C63.1085 151.907 58.924 153.146 56.1978 155.88C54.7829 157.299 53.7608 159.121 53.3238 161.233L44.3945 204.391Z" fill="url(#paint8_linear_350_1358)" fill-opacity="0.7"/>
<path d="M17.6897 166.065C11.1698 164.647 6.74931 158.447 7.81627 152.216C8.20311 149.957 9.25817 148.004 10.7568 146.5C13.3916 143.855 17.3975 142.597 21.5535 143.501L67.0765 153.4C73.5964 154.817 78.0169 161.018 76.95 167.249C76.5631 169.508 75.5081 171.461 74.0094 172.965C71.3746 175.609 67.3687 176.867 63.2127 175.963L17.6897 166.065Z" fill="url(#paint9_linear_350_1358)" fill-opacity="0.7"/>
<path d="M220.204 180.596C226.335 184.339 228.468 192.002 224.968 197.713C224.495 198.486 223.942 199.184 223.325 199.803C219.385 203.757 212.832 204.511 207.531 201.275L15.4369 84.0021C9.30605 80.2592 7.17289 72.5956 10.6724 66.8851C11.1463 66.1117 11.6992 65.4139 12.3162 64.7945C16.2556 60.8404 22.8091 60.0863 28.1097 63.3223L220.204 180.596Z" fill="url(#paint10_linear_350_1358)" fill-opacity="0.7"/>
<path d="M196.2 205.822C197.406 209.897 196.266 213.953 193.56 216.666C192.126 218.104 190.252 219.165 188.054 219.652C181.71 221.056 175.072 217.14 173.227 210.906L160.345 167.38C159.14 163.308 160.278 159.253 162.982 156.54C164.416 155.1 166.291 154.037 168.491 153.551C174.835 152.147 181.473 156.062 183.318 162.296L196.2 205.822Z" fill="url(#paint11_linear_350_1358)" fill-opacity="0.7"/>
<path d="M219.448 168.337C221.802 167.896 223.813 166.797 225.333 165.271C227.945 162.649 229.108 158.768 228.073 154.8C226.435 148.524 219.919 144.409 213.519 145.609L168.829 153.987C166.476 154.428 164.467 155.526 162.947 157.05C160.333 159.672 159.169 163.555 160.204 167.524C161.842 173.801 168.358 177.916 174.758 176.716L219.448 168.337Z" fill="url(#paint12_linear_350_1358)" fill-opacity="0.7"/>
<path d="M14.6444 94.9828C12.29 95.4242 10.2791 96.5234 8.75914 98.0491C6.14708 100.671 4.98474 104.552 6.01973 108.52C7.657 114.796 14.1729 118.912 20.5735 117.712L65.263 109.333C67.6159 108.892 69.6257 107.794 71.1453 106.27C73.7595 103.648 74.9232 99.7649 73.8878 95.7958C72.2505 89.5194 65.7346 85.4042 59.334 86.6042L14.6444 94.9828Z" fill="url(#paint13_linear_350_1358)" fill-opacity="0.7"/>
<path d="M37.4894 57.2519C36.2835 53.1776 37.4236 49.1214 40.1293 46.408C41.5634 44.9697 43.4375 43.9088 45.6352 43.4224C51.9789 42.0185 58.6173 45.934 60.4623 52.1679L73.3443 95.6939C74.5496 99.7665 73.411 103.821 70.7078 106.534C69.2732 107.974 67.3979 109.037 65.1985 109.523C58.8547 110.927 52.2164 107.012 50.3714 100.778L37.4894 57.2519Z" fill="url(#paint14_linear_350_1358)" fill-opacity="0.7"/>
<path d="M212.743 54.9977C218.542 51.4558 226.506 53.3167 230.532 59.154L219.323 70.4014C215.296 64.564 207.332 62.7031 201.533 66.245L212.743 54.9977Z" fill="url(#paint15_linear_350_1358)" fill-opacity="0.7"/>
<path d="M229.506 74.4189C233.417 70.4926 233.993 64.1709 230.532 59.1538L219.323 70.4012C222.783 75.4183 222.208 81.7399 218.296 85.6663L229.506 74.4189Z" fill="url(#paint16_linear_350_1358)" fill-opacity="0.7"/>
<path d="M201 49.6979C202.279 43.5166 198.061 37.1924 191.579 35.5724L180.37 46.8197C186.851 48.4397 191.069 54.7639 189.79 60.9452L201 49.6979Z" fill="url(#paint17_linear_350_1358)" fill-opacity="0.7"/>
<path d="M227.323 76.1363C228.136 75.6394 228.864 75.0627 229.503 74.4221L218.296 85.6661C217.657 86.308 216.928 86.8859 216.113 87.3836L227.323 76.1363Z" fill="url(#paint18_linear_350_1358)" fill-opacity="0.7"/>
<path d="M180.402 38.4783C183.128 35.7441 187.312 34.506 191.579 35.5725L180.37 46.8198C176.103 45.7533 171.918 46.9915 169.192 49.7256L180.402 38.4783Z" fill="url(#paint19_linear_350_1358)" fill-opacity="0.7"/>
<path d="M177.528 43.8313C177.964 41.7209 178.985 39.9 180.399 38.4814L169.192 49.7256C167.777 51.1446 166.755 52.9666 166.318 55.0786L177.528 43.8313Z" fill="url(#paint20_linear_350_1358)" fill-opacity="0.7"/>
<path d="M165.33 37.5207C169.692 32.9897 169.205 25.6639 164.243 21.1581L153.033 32.4054C157.995 36.9112 158.482 44.2371 154.12 48.768L165.33 37.5207Z" fill="url(#paint21_linear_350_1358)" fill-opacity="0.7"/>
<path d="M147.361 21.2032C151.722 16.6722 159.281 16.6519 164.243 21.1577L153.033 32.4051C148.171 27.9899 140.816 27.9206 136.418 32.1824L136.151 32.4505C136.239 32.3593 136.328 32.2699 136.418 32.1824L147.361 21.2032Z" fill="url(#paint22_linear_350_1358)" fill-opacity="0.7"/>
<path d="M227.324 88.2572C233.843 89.6749 238.264 95.8752 237.197 102.106L225.987 113.353C227.054 107.123 222.634 100.922 216.114 99.5045L227.324 88.2572Z" fill="url(#paint23_linear_350_1358)" fill-opacity="0.7"/>
<path d="M234.256 107.822C235.755 106.318 236.81 104.365 237.197 102.106L225.987 113.353C225.6 115.612 224.545 117.565 223.046 119.07L234.256 107.822Z" fill="url(#paint24_linear_350_1358)" fill-opacity="0.7"/>
<path d="M136.715 14.1436C136.377 7.31631 130.386 1.7069 123.335 1.6146L112.125 12.8619C119.176 12.9542 125.167 18.5636 125.505 25.3909L136.715 14.1436Z" fill="url(#paint25_linear_350_1358)" fill-opacity="0.7"/>
<path d="M201 49.6983L192.07 92.8568L180.861 104.104L189.79 60.9457L201 49.6983Z" fill="url(#paint26_linear_350_1358)" fill-opacity="0.7"/>
<path d="M160.242 42.8059L165.33 37.5204L154.12 48.7677L149.032 54.0532L160.242 42.8059Z" fill="url(#paint27_linear_350_1358)" fill-opacity="0.7"/>
<path d="M147.36 21.2032L142.272 26.4887L131.062 37.7361L136.151 32.4506L147.36 21.2032Z" fill="url(#paint28_linear_350_1358)" fill-opacity="0.7"/>
<path d="M227.323 88.2571L181.8 78.3585L170.591 89.6058L216.113 99.5044L227.323 88.2571Z" fill="url(#paint29_linear_350_1358)" fill-opacity="0.7"/>
<path d="M114.488 5.11529C116.688 2.90956 119.81 1.56845 123.335 1.61459L112.125 12.8619C108.6 12.8158 105.478 14.1569 103.278 16.3626L114.488 5.11529Z" fill="url(#paint30_linear_350_1358)" fill-opacity="0.7"/>
<path d="M223.46 110.821C227.614 111.725 231.619 110.468 234.253 107.826L223.047 119.07C220.412 121.715 216.406 122.972 212.25 122.069L223.46 110.821Z" fill="url(#paint31_linear_350_1358)" fill-opacity="0.7"/>
<path d="M168.598 86.9899L177.528 43.8314L166.318 55.0787L157.388 98.2372L168.598 86.9899Z" fill="url(#paint32_linear_350_1358)" fill-opacity="0.7"/>
<path d="M111.181 13.809C111.012 10.3963 112.287 7.32529 114.485 5.11861L103.279 16.3623C101.078 18.5693 99.8016 21.6417 99.971 25.0563L111.181 13.809Z" fill="url(#paint33_linear_350_1358)" fill-opacity="0.7"/>
<path d="M139.963 63.8709L160.242 42.806L149.032 54.0534L128.754 75.1182L139.963 63.8709Z" fill="url(#paint34_linear_350_1358)" fill-opacity="0.7"/>
<path d="M142.273 26.4886L121.994 47.5536L110.784 58.8009L131.063 37.736L142.273 26.4886Z" fill="url(#paint35_linear_350_1358)" fill-opacity="0.7"/>
<path d="M181.8 78.3588C177.644 77.4551 173.638 78.7128 171.003 81.3575L159.797 92.6018C162.431 89.9592 166.436 88.7027 170.59 89.6061L181.8 78.3588Z" fill="url(#paint36_linear_350_1358)" fill-opacity="0.7"/>
<path d="M192.071 92.8564C191.634 94.9684 190.612 96.7904 189.197 98.2095L177.99 109.454C179.403 108.035 180.424 106.214 180.861 104.104L192.071 92.8564Z" fill="url(#paint37_linear_350_1358)" fill-opacity="0.7"/>
<path d="M177.937 100.922L223.46 110.821L212.25 122.068L166.727 112.17L177.937 100.922Z" fill="url(#paint38_linear_350_1358)" fill-opacity="0.7"/>
<path d="M224.729 134.362C231.13 133.162 237.646 137.277 239.283 143.553L228.073 154.801C226.436 148.524 219.92 144.409 213.519 145.609L224.729 134.362Z" fill="url(#paint39_linear_350_1358)" fill-opacity="0.7"/>
<path d="M171.004 81.3575C169.505 82.8617 168.45 84.8146 168.063 87.0737L156.853 98.321C157.24 96.062 158.295 94.1091 159.794 92.6048L171.004 81.3575Z" fill="url(#paint40_linear_350_1358)" fill-opacity="0.7"/>
<path d="M236.543 154.024C239.155 151.403 240.317 147.521 239.283 143.554L228.073 154.801C229.108 158.768 227.945 162.65 225.333 165.272L236.543 154.024Z" fill="url(#paint41_linear_350_1358)" fill-opacity="0.7"/>
<path d="M100.913 20.3709L134.548 52.8459L123.338 64.0932L89.7033 31.6183L100.913 20.3709Z" fill="url(#paint42_linear_350_1358)" fill-opacity="0.7"/>
<path d="M189.197 98.2097C186.471 100.944 182.286 102.182 178.019 101.116L166.809 112.363C171.076 113.429 175.261 112.191 177.987 109.457L189.197 98.2097Z" fill="url(#paint43_linear_350_1358)" fill-opacity="0.7"/>
<path d="M178.018 101.115C171.537 99.4953 167.319 93.1711 168.598 86.9898L157.388 98.2372C156.109 104.418 160.327 110.743 166.809 112.363L178.018 101.115Z" fill="url(#paint44_linear_350_1358)" fill-opacity="0.7"/>
<path d="M168.063 87.0736C166.996 93.3044 171.417 99.5048 177.937 100.922L166.727 112.17C160.207 110.752 155.787 104.552 156.854 98.321L168.063 87.0736Z" fill="url(#paint45_linear_350_1358)" fill-opacity="0.7"/>
<path d="M100.913 20.3709C96.0955 15.7198 88.5251 15.5014 84.0039 19.8831L72.794 31.1304C77.3152 26.7487 84.8856 26.9671 89.7029 31.6183L100.913 20.3709Z" fill="url(#paint46_linear_350_1358)" fill-opacity="0.7"/>
<path d="M134.548 52.846C139.365 57.4971 139.605 64.8197 135.084 69.2014L124.141 80.1806C124.054 80.2711 123.965 80.3606 123.874 80.4488L124.141 80.1806C128.384 75.7733 128.058 68.6508 123.338 64.0933L134.548 52.846Z" fill="url(#paint47_linear_350_1358)" fill-opacity="0.7"/>
<path d="M230.658 157.09C233.011 156.649 235.02 155.551 236.54 154.027L225.333 165.271C223.813 166.797 221.802 167.896 219.448 168.338L230.658 157.09Z" fill="url(#paint48_linear_350_1358)" fill-opacity="0.7"/>
<path d="M134.875 69.1562L139.964 63.8707L128.754 75.118L123.666 80.4036L134.875 69.1562Z" fill="url(#paint49_linear_350_1358)" fill-opacity="0.7"/>
<path d="M121.994 47.5538L116.906 52.8393L105.696 64.0867L110.784 58.8011L121.994 47.5538Z" fill="url(#paint50_linear_350_1358)" fill-opacity="0.7"/>
<path d="M180.04 142.74L224.729 134.362L213.519 145.609L168.83 153.988L180.04 142.74Z" fill="url(#paint51_linear_350_1358)" fill-opacity="0.7"/>
<path d="M83.7365 20.1514C83.8237 20.0608 83.9128 19.9714 84.0038 19.8832L83.7365 20.1514C79.4941 24.5587 79.8196 31.6811 84.5399 36.2386L73.3301 47.486C68.5128 42.8348 68.2727 35.5122 72.7939 31.1305L83.7365 20.1514Z" fill="url(#paint52_linear_350_1358)" fill-opacity="0.7"/>
<path d="M135.084 69.2013C130.563 73.583 122.993 73.3646 118.175 68.7135L106.966 79.9608C111.783 84.6119 119.353 84.8304 123.874 80.4486L135.084 69.2013Z" fill="url(#paint53_linear_350_1358)" fill-opacity="0.7"/>
<path d="M134.875 69.1561C134.787 69.2473 134.698 69.3367 134.608 69.4243L123.665 80.4034C119.304 84.9344 111.745 84.9548 106.783 80.4489L117.993 69.2016C122.855 73.6167 130.21 73.6861 134.608 69.4243L134.875 69.1561Z" fill="url(#paint54_linear_350_1358)" fill-opacity="0.7"/>
<path d="M116.906 52.839C112.544 57.37 113.031 64.6958 117.993 69.2017L106.783 80.449C101.821 75.9432 101.334 68.6174 105.696 64.0864L116.906 52.839Z" fill="url(#paint55_linear_350_1358)" fill-opacity="0.7"/>
<path d="M118.175 68.7138L84.5401 36.2389L73.3303 47.4862L106.965 79.9611L118.175 68.7138Z" fill="url(#paint56_linear_350_1358)" fill-opacity="0.7"/>
<path d="M231.414 169.349C237.545 173.092 239.678 180.755 236.179 186.466L224.969 197.713C228.469 192.002 226.335 184.339 220.205 180.596L231.414 169.349Z" fill="url(#paint57_linear_350_1358)" fill-opacity="0.7"/>
<path d="M230.658 157.09L185.968 165.469L174.759 176.716L219.448 168.338L230.658 157.09Z" fill="url(#paint58_linear_350_1358)" fill-opacity="0.7"/>
<path d="M234.535 188.556C235.152 187.937 235.705 187.239 236.179 186.466L224.969 197.713C224.495 198.487 223.942 199.184 223.325 199.804L234.535 188.556Z" fill="url(#paint59_linear_350_1358)" fill-opacity="0.7"/>
<path d="M194.528 151.05C192.683 144.816 186.044 140.9 179.701 142.304L168.491 153.552C174.834 152.148 181.473 156.063 183.318 162.297L194.528 151.05Z" fill="url(#paint60_linear_350_1358)" fill-opacity="0.7"/>
<path d="M71.6722 40.921C69.8272 34.6871 63.1889 30.7716 56.8451 32.1755L45.6352 43.4229C51.979 42.0189 58.6173 45.9344 60.4623 52.1683L71.6722 40.921Z" fill="url(#paint61_linear_350_1358)" fill-opacity="0.7"/>
<path d="M218.742 190.029C224.041 193.264 230.592 192.511 234.532 188.56L223.325 199.804C219.386 203.758 212.832 204.512 207.532 201.276L218.742 190.029Z" fill="url(#paint62_linear_350_1358)" fill-opacity="0.7"/>
<path d="M179.701 142.304C177.501 142.79 175.626 143.853 174.192 145.293L162.985 156.537C164.419 155.098 166.293 154.037 168.491 153.551L179.701 142.304Z" fill="url(#paint63_linear_350_1358)" fill-opacity="0.7"/>
<path d="M174.157 145.803C175.677 144.279 177.686 143.181 180.039 142.74L168.829 153.988C166.476 154.429 164.467 155.527 162.947 157.051L174.157 145.803Z" fill="url(#paint64_linear_350_1358)" fill-opacity="0.7"/>
<path d="M51.3398 35.1611C52.774 33.7228 54.648 32.6618 56.8457 32.1755L45.6359 43.4228C43.4382 43.9092 41.5641 44.9701 40.13 46.4084L51.3398 35.1611Z" fill="url(#paint65_linear_350_1358)" fill-opacity="0.7"/>
<path d="M231.414 169.349L39.3199 52.0753L28.11 63.3226L220.204 180.596L231.414 169.349Z" fill="url(#paint66_linear_350_1358)" fill-opacity="0.7"/>
<path d="M207.41 194.575L194.528 151.049L183.318 162.296L196.2 205.823L207.41 194.575Z" fill="url(#paint67_linear_350_1358)" fill-opacity="0.7"/>
<path d="M147.327 228.057L136.715 14.1434L125.505 25.3907L136.117 239.304L147.327 228.057Z" fill="url(#paint68_linear_350_1358)" fill-opacity="0.7"/>
<path d="M174.192 145.293C171.489 148.006 170.35 152.061 171.555 156.133L160.346 167.381C159.14 163.308 160.279 159.254 162.982 156.54L174.192 145.293Z" fill="url(#paint69_linear_350_1358)" fill-opacity="0.7"/>
<path d="M171.415 156.278C170.38 152.31 171.542 148.428 174.154 145.807L162.947 157.051C160.333 159.673 159.169 163.556 160.205 167.525L171.415 156.278Z" fill="url(#paint70_linear_350_1358)" fill-opacity="0.7"/>
<path d="M84.5542 84.447L71.6722 40.921L60.4623 52.1683L73.3443 95.6943L84.5542 84.447Z" fill="url(#paint71_linear_350_1358)" fill-opacity="0.7"/>
<path d="M185.968 165.469C179.568 166.669 173.052 162.554 171.415 156.278L160.205 167.525C161.842 173.801 168.358 177.917 174.759 176.717L185.968 165.469Z" fill="url(#paint72_linear_350_1358)" fill-opacity="0.7"/>
<path d="M48.6999 46.005C47.4946 41.9325 48.6331 37.8781 51.3362 35.1647L40.13 46.4084C37.4243 49.1218 36.2842 53.178 37.4901 57.2523L48.6999 46.005Z" fill="url(#paint73_linear_350_1358)" fill-opacity="0.7"/>
<path d="M212.743 54.9976L31.0567 165.973L19.8468 177.22L201.533 66.2449L212.743 54.9976Z" fill="url(#paint74_linear_350_1358)" fill-opacity="0.7"/>
<path d="M45.6363 187.112L227.323 76.136L216.113 87.3833L34.4264 198.359L45.6363 187.112Z" fill="url(#paint75_linear_350_1358)" fill-opacity="0.7"/>
<path d="M207.41 194.575C208.616 198.649 207.476 202.706 204.77 205.419L193.564 216.663C196.267 213.949 197.406 209.895 196.2 205.822L207.41 194.575Z" fill="url(#paint76_linear_350_1358)" fill-opacity="0.7"/>
<path d="M70.5441 75.3575C76.9447 74.1575 83.4606 78.2727 85.0979 84.5491L73.888 95.7964C72.2508 89.52 65.7348 85.4048 59.3343 86.6049L70.5441 75.3575Z" fill="url(#paint77_linear_350_1358)" fill-opacity="0.7"/>
<path d="M171.555 156.133L184.437 199.659L173.227 210.907L160.345 167.381L171.555 156.133Z" fill="url(#paint78_linear_350_1358)" fill-opacity="0.7"/>
<path d="M85.098 84.5489C86.1334 88.5181 84.9697 92.401 82.3555 95.0229L71.1487 106.267C73.7608 103.645 74.9231 99.7639 73.8881 95.7963L85.098 84.5489Z" fill="url(#paint79_linear_350_1358)" fill-opacity="0.7"/>
<path d="M111.181 13.8089L121.793 227.722L110.583 238.97L99.9709 25.0563L111.181 13.8089Z" fill="url(#paint80_linear_350_1358)" fill-opacity="0.7"/>
<path d="M81.9181 95.2875C84.6213 92.5741 85.7599 88.5195 84.5546 84.447L73.3447 95.6943C74.5501 99.7669 73.4114 103.821 70.7082 106.535L81.9181 95.2875Z" fill="url(#paint81_linear_350_1358)" fill-opacity="0.7"/>
<path d="M48.7 46.005L61.582 89.531L50.3722 100.778L37.4902 57.2523L48.7 46.005Z" fill="url(#paint82_linear_350_1358)" fill-opacity="0.7"/>
<path d="M26.647 72.7552L218.741 190.029L207.531 201.276L15.4372 84.0025L26.647 72.7552Z" fill="url(#paint83_linear_350_1358)" fill-opacity="0.7"/>
<path d="M204.77 205.419C203.336 206.857 201.462 207.918 199.264 208.405L188.054 219.652C190.252 219.166 192.126 218.105 193.56 216.666L204.77 205.419Z" fill="url(#paint84_linear_350_1358)" fill-opacity="0.7"/>
<path d="M82.3556 95.0227C80.836 96.5468 78.8262 97.6448 76.4733 98.086L65.2635 109.333C67.6164 108.892 69.6261 107.794 71.1457 106.27L82.3556 95.0227Z" fill="url(#paint85_linear_350_1358)" fill-opacity="0.7"/>
<path d="M76.4086 98.2766C78.6064 97.7902 80.4806 96.7291 81.9148 95.2907L70.708 106.535C69.2734 107.975 67.3982 109.037 65.1988 109.524L76.4086 98.2766Z" fill="url(#paint86_linear_350_1358)" fill-opacity="0.7"/>
<path d="M39.3199 52.0755C34.0193 48.8395 27.4659 49.5936 23.5265 53.5477L12.3199 64.7918C16.2596 60.8405 22.8109 60.0877 28.1101 63.3229L39.3199 52.0755Z" fill="url(#paint87_linear_350_1358)" fill-opacity="0.7"/>
<path d="M184.437 199.66C186.282 205.893 192.92 209.809 199.264 208.405L188.054 219.652C181.711 221.056 175.072 217.141 173.227 210.907L184.437 199.66Z" fill="url(#paint88_linear_350_1358)" fill-opacity="0.7"/>
<path d="M61.5816 89.5311C63.4266 95.765 70.0649 99.6805 76.4087 98.2766L65.1989 109.524C58.8551 110.928 52.2168 107.012 50.3718 100.778L61.5816 89.5311Z" fill="url(#paint89_linear_350_1358)" fill-opacity="0.7"/>
<path d="M23.5266 53.5476C22.9096 54.167 22.3567 54.8649 21.8827 55.6382L10.6729 66.8856C11.1468 66.1122 11.6997 65.4143 12.3168 64.795L23.5266 53.5476Z" fill="url(#paint90_linear_350_1358)" fill-opacity="0.7"/>
<path d="M25.8547 83.7359L70.5442 75.3573L59.3344 86.6046L14.6448 94.9832L25.8547 83.7359Z" fill="url(#paint91_linear_350_1358)" fill-opacity="0.7"/>
<path d="M21.8825 55.6381C18.383 61.3486 20.5162 69.0122 26.6471 72.7551L15.4372 84.0024C9.30634 80.2595 7.17318 72.596 10.6727 66.8854L21.8825 55.6381Z" fill="url(#paint92_linear_350_1358)" fill-opacity="0.7"/>
<path d="M140.128 175.038L173.763 207.513L162.553 218.76L128.918 186.286L140.128 175.038Z" fill="url(#paint93_linear_350_1358)" fill-opacity="0.7"/>
<path d="M141.42 191.361C145.781 186.83 145.295 179.504 140.333 174.999L129.123 186.246C134.085 190.752 134.571 198.078 130.21 202.609L141.42 191.361Z" fill="url(#paint94_linear_350_1358)" fill-opacity="0.7"/>
<path d="M123.219 174.55C127.74 170.169 135.311 170.387 140.128 175.038L128.918 186.285C124.101 181.634 116.53 181.416 112.009 185.798L123.219 174.55Z" fill="url(#paint95_linear_350_1358)" fill-opacity="0.7"/>
<path d="M123.45 175.044C127.812 170.513 135.371 170.493 140.333 174.999L129.123 186.246C124.261 181.831 116.905 181.762 112.508 186.023L112.24 186.292C112.328 186.2 112.417 186.111 112.508 186.023L123.45 175.044Z" fill="url(#paint96_linear_350_1358)" fill-opacity="0.7"/>
<path d="M76.473 98.0861L31.7834 106.465L20.5735 117.712L65.2631 109.333L76.473 98.0861Z" fill="url(#paint97_linear_350_1358)" fill-opacity="0.7"/>
<path d="M173.763 207.513C178.58 212.164 178.82 219.487 174.299 223.868L163.357 234.848C163.269 234.938 163.18 235.028 163.089 235.116L163.357 234.848C167.599 230.44 167.273 223.318 162.553 218.76L173.763 207.513Z" fill="url(#paint98_linear_350_1358)" fill-opacity="0.7"/>
<path d="M25.8549 83.7359C23.5004 84.1773 21.4895 85.2765 19.9696 86.8022L8.76281 98.0464C10.2824 96.5223 12.2922 95.4244 14.645 94.9832L25.8549 83.7359Z" fill="url(#paint99_linear_350_1358)" fill-opacity="0.7"/>
<path d="M136.331 196.647L141.419 191.361L130.21 202.608L125.121 207.894L136.331 196.647Z" fill="url(#paint100_linear_350_1358)" fill-opacity="0.7"/>
<path d="M123.45 175.044L118.362 180.329L107.152 191.577L112.24 186.291L123.45 175.044Z" fill="url(#paint101_linear_350_1358)" fill-opacity="0.7"/>
<path d="M122.952 174.819C123.039 174.728 123.128 174.639 123.219 174.55L122.952 174.819C118.71 179.226 119.035 186.348 123.756 190.906L112.546 202.153C107.728 197.502 107.488 190.179 112.01 185.798L122.952 174.819Z" fill="url(#paint102_linear_350_1358)" fill-opacity="0.7"/>
<path d="M157.39 223.381C162.208 228.032 169.778 228.25 174.299 223.869L163.089 235.116C158.568 239.498 150.998 239.279 146.181 234.628L157.39 223.381Z" fill="url(#paint103_linear_350_1358)" fill-opacity="0.7"/>
<path d="M78.5858 141.727C85.0674 143.347 89.2851 149.671 88.0063 155.852L76.7964 167.1C78.0753 160.918 73.8576 154.594 67.3759 152.974L78.5858 141.727Z" fill="url(#paint104_linear_350_1358)" fill-opacity="0.7"/>
<path d="M88.1602 156.002C89.2271 149.771 84.8066 143.57 78.2867 142.153L67.0768 153.4C73.5968 154.818 78.0173 161.018 76.9503 167.249L88.1602 156.002Z" fill="url(#paint105_linear_350_1358)" fill-opacity="0.7"/>
<path d="M19.9693 86.8024C17.3572 89.4242 16.1949 93.3057 17.2299 97.2732L6.02004 108.521C4.98505 104.553 6.14739 100.672 8.75945 98.0497L19.9693 86.8024Z" fill="url(#paint106_linear_350_1358)" fill-opacity="0.7"/>
<path d="M67.408 144.633C70.1343 141.899 74.3188 140.661 78.5858 141.727L67.376 152.974C63.1089 151.908 58.9244 153.146 56.1982 155.88L67.408 144.633Z" fill="url(#paint107_linear_350_1358)" fill-opacity="0.7"/>
<path d="M157.39 223.381L123.755 190.906L112.545 202.153L146.18 234.628L157.39 223.381Z" fill="url(#paint108_linear_350_1358)" fill-opacity="0.7"/>
<path d="M85.2196 161.718C86.7182 160.214 87.7733 158.261 88.1601 156.002L76.9502 167.249C76.5634 169.508 75.5083 171.461 74.0097 172.965L85.2196 161.718Z" fill="url(#paint109_linear_350_1358)" fill-opacity="0.7"/>
<path d="M31.7836 106.465C25.383 107.665 18.8671 103.549 17.2298 97.273L6.01995 108.52C7.65721 114.797 14.1732 118.912 20.5737 117.712L31.7836 106.465Z" fill="url(#paint110_linear_350_1358)" fill-opacity="0.7"/>
<path d="M78.2867 142.153L32.7637 132.254L21.5539 143.502L67.0769 153.4L78.2867 142.153Z" fill="url(#paint111_linear_350_1358)" fill-opacity="0.7"/>
<path d="M64.534 149.986C64.9707 147.875 65.9916 146.055 67.4048 144.636L56.1981 155.88C54.7832 157.299 53.7611 159.121 53.3242 161.233L64.534 149.986Z" fill="url(#paint112_linear_350_1358)" fill-opacity="0.7"/>
<path d="M74.4228 164.716C78.5773 165.62 82.5817 164.363 85.2166 161.72L74.0097 172.965C71.3749 175.609 67.369 176.867 63.2129 175.963L74.4228 164.716Z" fill="url(#paint113_linear_350_1358)" fill-opacity="0.7"/>
<path d="M116.053 217.712L136.331 196.647L125.121 207.894L104.843 228.959L116.053 217.712Z" fill="url(#paint114_linear_350_1358)" fill-opacity="0.7"/>
<path d="M118.362 180.329L98.0833 201.394L86.8735 212.642L107.152 191.577L118.362 180.329Z" fill="url(#paint115_linear_350_1358)" fill-opacity="0.7"/>
<path d="M144.023 236.747C146.222 234.541 147.497 231.47 147.327 228.057L136.117 239.304C136.287 242.717 135.012 245.788 132.813 247.995L144.023 236.747Z" fill="url(#paint116_linear_350_1358)" fill-opacity="0.7"/>
<path d="M88.0061 155.853L79.0767 199.011L67.8669 210.258L76.7962 167.1L88.0061 155.853Z" fill="url(#paint117_linear_350_1358)" fill-opacity="0.7"/>
<path d="M135.173 240.252C138.698 240.298 141.82 238.957 144.019 236.751L132.813 247.995C130.614 250.203 127.49 251.545 123.963 251.499L135.173 240.252Z" fill="url(#paint118_linear_350_1358)" fill-opacity="0.7"/>
<path d="M32.7638 132.254C28.6077 131.35 24.6018 132.608 21.967 135.253L10.7601 146.497C13.395 143.854 17.3994 142.598 21.5539 143.501L32.7638 132.254Z" fill="url(#paint119_linear_350_1358)" fill-opacity="0.7"/>
<path d="M28.9 154.818L74.4229 164.716L63.2131 175.964L17.6901 166.065L28.9 154.818Z" fill="url(#paint120_linear_350_1358)" fill-opacity="0.7"/>
<path d="M121.793 227.723C122.131 234.55 128.122 240.159 135.173 240.252L123.963 251.499C116.912 251.407 110.921 245.797 110.583 238.97L121.793 227.723Z" fill="url(#paint121_linear_350_1358)" fill-opacity="0.7"/>
<path d="M110.965 222.997L116.053 217.712L104.843 228.959L99.7551 234.244L110.965 222.997Z" fill="url(#paint122_linear_350_1358)" fill-opacity="0.7"/>
<path d="M98.0833 201.395L92.9952 206.68L81.7854 217.927L86.8734 212.642L98.0833 201.395Z" fill="url(#paint123_linear_350_1358)" fill-opacity="0.7"/>
<path d="M55.6043 193.145L64.5337 149.986L53.3238 161.233L44.3945 204.392L55.6043 193.145Z" fill="url(#paint124_linear_350_1358)" fill-opacity="0.7"/>
<path d="M21.967 135.253C20.4683 136.757 19.4133 138.71 19.0264 140.969L7.8166 152.216C8.20344 149.957 9.2585 148.004 10.7571 146.5L21.967 135.253Z" fill="url(#paint125_linear_350_1358)" fill-opacity="0.7"/>
<path d="M28.9 154.818C22.3801 153.4 17.9596 147.2 19.0265 140.969L7.81667 152.216C6.74971 158.447 11.1702 164.647 17.6901 166.065L28.9 154.818Z" fill="url(#paint126_linear_350_1358)" fill-opacity="0.7"/>
<path d="M94.0821 223.043C98.9443 227.458 106.299 227.527 110.697 223.265L110.965 222.997C110.877 223.088 110.788 223.178 110.697 223.265L99.7547 234.244C95.3929 238.775 87.8344 238.796 82.8723 234.29L94.0821 223.043Z" fill="url(#paint127_linear_350_1358)" fill-opacity="0.7"/>
<path d="M92.9952 206.68C88.6334 211.211 89.1201 218.536 94.0822 223.042L82.8723 234.29C77.9102 229.784 77.4236 222.458 81.7854 217.927L92.9952 206.68Z" fill="url(#paint128_linear_350_1358)" fill-opacity="0.7"/>
<path d="M79.0772 199.011C78.6402 201.123 77.6181 202.945 76.2032 204.364L64.9965 215.608C66.4098 214.19 67.4307 212.369 67.8673 210.258L79.0772 199.011Z" fill="url(#paint129_linear_350_1358)" fill-opacity="0.7"/>
<path d="M31.0567 165.973C30.2418 166.471 29.5131 167.049 28.8736 167.691L17.6671 178.935C18.3058 178.294 19.0334 177.717 19.8468 177.22L31.0567 165.973Z" fill="url(#paint130_linear_350_1358)" fill-opacity="0.7"/>
<path d="M76.2029 204.364C73.4767 207.098 69.2922 208.336 65.0251 207.27L53.8153 218.517C58.0823 219.584 62.2668 218.345 64.993 215.611L76.2029 204.364Z" fill="url(#paint131_linear_350_1358)" fill-opacity="0.7"/>
<path d="M55.6046 193.144C54.3257 199.326 58.5434 205.65 65.0251 207.27L53.8152 218.517C47.3335 216.897 43.1158 210.573 44.3947 204.392L55.6046 193.144Z" fill="url(#paint132_linear_350_1358)" fill-opacity="0.7"/>
<path d="M28.8735 167.691C24.9619 171.617 24.3866 177.939 27.8469 182.956L16.6371 194.203C13.1767 189.186 13.752 182.864 17.6637 178.938L28.8735 167.691Z" fill="url(#paint133_linear_350_1358)" fill-opacity="0.7"/>
<path d="M27.847 182.956C31.873 188.793 39.8376 190.654 45.6363 187.112L34.4264 198.36C28.6277 201.901 20.6632 200.041 16.6371 194.203L27.847 182.956Z" fill="url(#paint134_linear_350_1358)" fill-opacity="0.7"/>
<defs>
<linearGradient id="paint0_linear_350_1358" x1="110.957" y1="12.8462" x2="107.836" y2="251.287" gradientUnits="userSpaceOnUse">
<stop stop-color="white"/>
<stop offset="1" stop-color="#497C9C"/>
</linearGradient>
<linearGradient id="paint1_linear_350_1358" x1="110.957" y1="12.8462" x2="107.836" y2="251.287" gradientUnits="userSpaceOnUse">
<stop stop-color="white"/>
<stop offset="1" stop-color="#497C9C"/>
</linearGradient>
<linearGradient id="paint2_linear_350_1358" x1="110.957" y1="12.8462" x2="107.836" y2="251.287" gradientUnits="userSpaceOnUse">
<stop stop-color="white"/>
<stop offset="1" stop-color="#497C9C"/>
</linearGradient>
<linearGradient id="paint3_linear_350_1358" x1="110.957" y1="12.8462" x2="107.836" y2="251.287" gradientUnits="userSpaceOnUse">
<stop stop-color="white"/>
<stop offset="1" stop-color="#497C9C"/>
</linearGradient>
<linearGradient id="paint4_linear_350_1358" x1="110.957" y1="12.8462" x2="107.836" y2="251.287" gradientUnits="userSpaceOnUse">
<stop stop-color="white"/>
<stop offset="1" stop-color="#497C9C"/>
</linearGradient>
<linearGradient id="paint5_linear_350_1358" x1="110.957" y1="12.8462" x2="107.836" y2="251.287" gradientUnits="userSpaceOnUse">
<stop stop-color="white"/>
<stop offset="1" stop-color="#497C9C"/>
</linearGradient>
<linearGradient id="paint6_linear_350_1358" x1="110.957" y1="12.8462" x2="107.836" y2="251.287" gradientUnits="userSpaceOnUse">
<stop stop-color="white"/>
<stop offset="1" stop-color="#497C9C"/>
</linearGradient>
<linearGradient id="paint7_linear_350_1358" x1="110.957" y1="12.8462" x2="107.836" y2="251.287" gradientUnits="userSpaceOnUse">
<stop stop-color="white"/>
<stop offset="1" stop-color="#497C9C"/>
</linearGradient>
<linearGradient id="paint8_linear_350_1358" x1="110.957" y1="12.8462" x2="107.836" y2="251.287" gradientUnits="userSpaceOnUse">
<stop stop-color="white"/>
<stop offset="1" stop-color="#497C9C"/>
</linearGradient>
<linearGradient id="paint9_linear_350_1358" x1="110.957" y1="12.8462" x2="107.836" y2="251.287" gradientUnits="userSpaceOnUse">
<stop stop-color="white"/>
<stop offset="1" stop-color="#497C9C"/>
</linearGradient>
<linearGradient id="paint10_linear_350_1358" x1="110.957" y1="12.8462" x2="107.836" y2="251.287" gradientUnits="userSpaceOnUse">
<stop stop-color="white"/>
<stop offset="1" stop-color="#497C9C"/>
</linearGradient>
<linearGradient id="paint11_linear_350_1358" x1="110.957" y1="12.8462" x2="107.836" y2="251.287" gradientUnits="userSpaceOnUse">
<stop stop-color="white"/>
<stop offset="1" stop-color="#497C9C"/>
</linearGradient>
<linearGradient id="paint12_linear_350_1358" x1="110.957" y1="12.8462" x2="107.836" y2="251.287" gradientUnits="userSpaceOnUse">
<stop stop-color="white"/>
<stop offset="1" stop-color="#497C9C"/>
</linearGradient>
<linearGradient id="paint13_linear_350_1358" x1="110.957" y1="12.8462" x2="107.836" y2="251.287" gradientUnits="userSpaceOnUse">
<stop stop-color="white"/>
<stop offset="1" stop-color="#497C9C"/>
</linearGradient>
<linearGradient id="paint14_linear_350_1358" x1="110.957" y1="12.8462" x2="107.836" y2="251.287" gradientUnits="userSpaceOnUse">
<stop stop-color="white"/>
<stop offset="1" stop-color="#497C9C"/>
</linearGradient>
<linearGradient id="paint15_linear_350_1358" x1="215.559" y1="53.1532" x2="215.334" y2="70.3491" gradientUnits="userSpaceOnUse">
<stop stop-color="white"/>
<stop offset="1" stop-color="#497C9C"/>
</linearGradient>
<linearGradient id="paint16_linear_350_1358" x1="224.724" y1="59.0778" x2="224.375" y2="85.7458" gradientUnits="userSpaceOnUse">
<stop stop-color="white"/>
<stop offset="1" stop-color="#497C9C"/>
</linearGradient>
<linearGradient id="paint17_linear_350_1358" x1="190.231" y1="35.5547" x2="189.899" y2="60.9466" gradientUnits="userSpaceOnUse">
<stop stop-color="white"/>
<stop offset="1" stop-color="#497C9C"/>
</linearGradient>
<linearGradient id="paint18_linear_350_1358" x1="222.483" y1="74.3268" x2="222.311" y2="87.4647" gradientUnits="userSpaceOnUse">
<stop stop-color="white"/>
<stop offset="1" stop-color="#497C9C"/>
</linearGradient>
<linearGradient id="paint19_linear_350_1358" x1="180.01" y1="35.0792" x2="179.817" y2="49.8647" gradientUnits="userSpaceOnUse">
<stop stop-color="white"/>
<stop offset="1" stop-color="#497C9C"/>
</linearGradient>
<linearGradient id="paint20_linear_350_1358" x1="172.943" y1="38.3806" x2="172.723" y2="55.1625" gradientUnits="userSpaceOnUse">
<stop stop-color="white"/>
<stop offset="1" stop-color="#497C9C"/>
</linearGradient>
<linearGradient id="paint21_linear_350_1358" x1="160.175" y1="21.1048" x2="159.812" y2="48.8425" gradientUnits="userSpaceOnUse">
<stop stop-color="white"/>
<stop offset="1" stop-color="#497C9C"/>
</linearGradient>
<linearGradient id="paint22_linear_350_1358" x1="149.746" y1="17.7138" x2="149.551" y2="32.626" gradientUnits="userSpaceOnUse">
<stop stop-color="white"/>
<stop offset="1" stop-color="#497C9C"/>
</linearGradient>
<linearGradient id="paint23_linear_350_1358" x1="226.165" y1="88.242" x2="225.836" y2="113.351" gradientUnits="userSpaceOnUse">
<stop stop-color="white"/>
<stop offset="1" stop-color="#497C9C"/>
</linearGradient>
<linearGradient id="paint24_linear_350_1358" x1="229.696" y1="102.008" x2="229.471" y2="119.154" gradientUnits="userSpaceOnUse">
<stop stop-color="white"/>
<stop offset="1" stop-color="#497C9C"/>
</linearGradient>
<linearGradient id="paint25_linear_350_1358" x1="123.831" y1="1.62109" x2="123.52" y2="25.3649" gradientUnits="userSpaceOnUse">
<stop stop-color="white"/>
<stop offset="1" stop-color="#497C9C"/>
</linearGradient>
<linearGradient id="paint26_linear_350_1358" x1="189.573" y1="49.5488" x2="188.858" y2="104.209" gradientUnits="userSpaceOnUse">
<stop stop-color="white"/>
<stop offset="1" stop-color="#497C9C"/>
</linearGradient>
<linearGradient id="paint27_linear_350_1358" x1="156.765" y1="37.4083" x2="156.546" y2="54.1516" gradientUnits="userSpaceOnUse">
<stop stop-color="white"/>
<stop offset="1" stop-color="#497C9C"/>
</linearGradient>
<linearGradient id="paint28_linear_350_1358" x1="138.796" y1="21.0911" x2="138.577" y2="37.8344" gradientUnits="userSpaceOnUse">
<stop stop-color="white"/>
<stop offset="1" stop-color="#497C9C"/>
</linearGradient>
<linearGradient id="paint29_linear_350_1358" x1="198.443" y1="78.5764" x2="198.172" y2="99.2696" gradientUnits="userSpaceOnUse">
<stop stop-color="white"/>
<stop offset="1" stop-color="#497C9C"/>
</linearGradient>
<linearGradient id="paint30_linear_350_1358" x1="112.934" y1="1.47844" x2="112.737" y2="16.4864" gradientUnits="userSpaceOnUse">
<stop stop-color="white"/>
<stop offset="1" stop-color="#497C9C"/>
</linearGradient>
<linearGradient id="paint31_linear_350_1358" x1="222.892" y1="107.674" x2="222.699" y2="122.462" gradientUnits="userSpaceOnUse">
<stop stop-color="white"/>
<stop offset="1" stop-color="#497C9C"/>
</linearGradient>
<linearGradient id="paint32_linear_350_1358" x1="166.101" y1="43.6818" x2="165.386" y2="98.3419" gradientUnits="userSpaceOnUse">
<stop stop-color="white"/>
<stop offset="1" stop-color="#497C9C"/>
</linearGradient>
<linearGradient id="paint33_linear_350_1358" x1="106.73" y1="5.01343" x2="106.467" y2="25.1413" gradientUnits="userSpaceOnUse">
<stop stop-color="white"/>
<stop offset="1" stop-color="#497C9C"/>
</linearGradient>
<linearGradient id="paint34_linear_350_1358" x1="143.685" y1="42.5893" x2="143.257" y2="75.3081" gradientUnits="userSpaceOnUse">
<stop stop-color="white"/>
<stop offset="1" stop-color="#497C9C"/>
</linearGradient>
<linearGradient id="paint35_linear_350_1358" x1="125.716" y1="26.2719" x2="125.288" y2="58.9907" gradientUnits="userSpaceOnUse">
<stop stop-color="white"/>
<stop offset="1" stop-color="#497C9C"/>
</linearGradient>
<linearGradient id="paint36_linear_350_1358" x1="170.423" y1="77.953" x2="170.23" y2="92.7414" gradientUnits="userSpaceOnUse">
<stop stop-color="white"/>
<stop offset="1" stop-color="#497C9C"/>
</linearGradient>
<linearGradient id="paint37_linear_350_1358" x1="184.612" y1="92.7588" x2="184.392" y2="109.541" gradientUnits="userSpaceOnUse">
<stop stop-color="white"/>
<stop offset="1" stop-color="#497C9C"/>
</linearGradient>
<linearGradient id="paint38_linear_350_1358" x1="194.579" y1="101.14" x2="194.309" y2="121.834" gradientUnits="userSpaceOnUse">
<stop stop-color="white"/>
<stop offset="1" stop-color="#497C9C"/>
</linearGradient>
<linearGradient id="paint39_linear_350_1358" x1="225.883" y1="134.138" x2="225.613" y2="154.768" gradientUnits="userSpaceOnUse">
<stop stop-color="white"/>
<stop offset="1" stop-color="#497C9C"/>
</linearGradient>
<linearGradient id="paint40_linear_350_1358" x1="163.503" y1="81.2593" x2="163.278" y2="98.4051" gradientUnits="userSpaceOnUse">
<stop stop-color="white"/>
<stop offset="1" stop-color="#497C9C"/>
</linearGradient>
<linearGradient id="paint41_linear_350_1358" x1="231.887" y1="143.457" x2="231.601" y2="165.354" gradientUnits="userSpaceOnUse">
<stop stop-color="white"/>
<stop offset="1" stop-color="#497C9C"/>
</linearGradient>
<linearGradient id="paint42_linear_350_1358" x1="111.048" y1="20.5036" x2="110.479" y2="63.9249" gradientUnits="userSpaceOnUse">
<stop stop-color="white"/>
<stop offset="1" stop-color="#497C9C"/>
</linearGradient>
<linearGradient id="paint43_linear_350_1358" x1="177.644" y1="98.0585" x2="177.451" y2="112.844" gradientUnits="userSpaceOnUse">
<stop stop-color="white"/>
<stop offset="1" stop-color="#497C9C"/>
</linearGradient>
<linearGradient id="paint44_linear_350_1358" x1="166.896" y1="86.9676" x2="166.564" y2="112.359" gradientUnits="userSpaceOnUse">
<stop stop-color="white"/>
<stop offset="1" stop-color="#497C9C"/>
</linearGradient>
<linearGradient id="paint45_linear_350_1358" x1="166.639" y1="87.055" x2="166.31" y2="112.164" gradientUnits="userSpaceOnUse">
<stop stop-color="white"/>
<stop offset="1" stop-color="#497C9C"/>
</linearGradient>
<linearGradient id="paint46_linear_350_1358" x1="86.4024" y1="16.6603" x2="86.2072" y2="31.5725" gradientUnits="userSpaceOnUse">
<stop stop-color="white"/>
<stop offset="1" stop-color="#497C9C"/>
</linearGradient>
<linearGradient id="paint47_linear_350_1358" x1="130.204" y1="52.7891" x2="129.841" y2="80.5269" gradientUnits="userSpaceOnUse">
<stop stop-color="white"/>
<stop offset="1" stop-color="#497C9C"/>
</linearGradient>
<linearGradient id="paint48_linear_350_1358" x1="227.635" y1="153.907" x2="227.444" y2="168.442" gradientUnits="userSpaceOnUse">
<stop stop-color="white"/>
<stop offset="1" stop-color="#497C9C"/>
</linearGradient>
<linearGradient id="paint49_linear_350_1358" x1="131.399" y1="63.7586" x2="131.18" y2="80.5019" gradientUnits="userSpaceOnUse">
<stop stop-color="white"/>
<stop offset="1" stop-color="#497C9C"/>
</linearGradient>
<linearGradient id="paint50_linear_350_1358" x1="113.43" y1="47.4417" x2="113.21" y2="64.185" gradientUnits="userSpaceOnUse">
<stop stop-color="white"/>
<stop offset="1" stop-color="#497C9C"/>
</linearGradient>
<linearGradient id="paint51_linear_350_1358" x1="196.274" y1="133.989" x2="196.008" y2="154.343" gradientUnits="userSpaceOnUse">
<stop stop-color="white"/>
<stop offset="1" stop-color="#497C9C"/>
</linearGradient>
<linearGradient id="paint52_linear_350_1358" x1="76.2968" y1="19.7823" x2="75.9337" y2="47.52" gradientUnits="userSpaceOnUse">
<stop stop-color="white"/>
<stop offset="1" stop-color="#497C9C"/>
</linearGradient>
<linearGradient id="paint53_linear_350_1358" x1="120.735" y1="68.747" x2="120.54" y2="83.6592" gradientUnits="userSpaceOnUse">
<stop stop-color="white"/>
<stop offset="1" stop-color="#497C9C"/>
</linearGradient>
<linearGradient id="paint54_linear_350_1358" x1="120.54" y1="68.9684" x2="120.344" y2="83.8806" gradientUnits="userSpaceOnUse">
<stop stop-color="white"/>
<stop offset="1" stop-color="#497C9C"/>
</linearGradient>
<linearGradient id="paint55_linear_350_1358" x1="109.475" y1="52.7418" x2="109.111" y2="80.4795" gradientUnits="userSpaceOnUse">
<stop stop-color="white"/>
<stop offset="1" stop-color="#497C9C"/>
</linearGradient>
<linearGradient id="paint56_linear_350_1358" x1="94.6748" y1="36.3715" x2="94.1064" y2="79.7928" gradientUnits="userSpaceOnUse">
<stop stop-color="white"/>
<stop offset="1" stop-color="#497C9C"/>
</linearGradient>
<linearGradient id="paint57_linear_350_1358" x1="228.484" y1="169.31" x2="228.112" y2="197.754" gradientUnits="userSpaceOnUse">
<stop stop-color="white"/>
<stop offset="1" stop-color="#497C9C"/>
</linearGradient>
<linearGradient id="paint58_linear_350_1358" x1="202.203" y1="156.718" x2="201.937" y2="177.072" gradientUnits="userSpaceOnUse">
<stop stop-color="white"/>
<stop offset="1" stop-color="#497C9C"/>
</linearGradient>
<linearGradient id="paint59_linear_350_1358" x1="229.417" y1="186.377" x2="229.24" y2="199.881" gradientUnits="userSpaceOnUse">
<stop stop-color="white"/>
<stop offset="1" stop-color="#497C9C"/>
</linearGradient>
<linearGradient id="paint60_linear_350_1358" x1="180.998" y1="142.001" x2="180.733" y2="162.263" gradientUnits="userSpaceOnUse">
<stop stop-color="white"/>
<stop offset="1" stop-color="#497C9C"/>
</linearGradient>
<linearGradient id="paint61_linear_350_1358" x1="58.1428" y1="31.872" x2="57.8775" y2="52.1345" gradientUnits="userSpaceOnUse">
<stop stop-color="white"/>
<stop offset="1" stop-color="#497C9C"/>
</linearGradient>
<linearGradient id="paint62_linear_350_1358" x1="220.709" y1="188.376" x2="220.513" y2="203.379" gradientUnits="userSpaceOnUse">
<stop stop-color="white"/>
<stop offset="1" stop-color="#497C9C"/>
</linearGradient>
<linearGradient id="paint63_linear_350_1358" x1="170.983" y1="142.19" x2="170.793" y2="156.642" gradientUnits="userSpaceOnUse">
<stop stop-color="white"/>
<stop offset="1" stop-color="#497C9C"/>
</linearGradient>
<linearGradient id="paint64_linear_350_1358" x1="171.132" y1="142.624" x2="170.942" y2="157.155" gradientUnits="userSpaceOnUse">
<stop stop-color="white"/>
<stop offset="1" stop-color="#497C9C"/>
</linearGradient>
<linearGradient id="paint65_linear_350_1358" x1="48.1292" y1="32.0614" x2="47.94" y2="46.5106" gradientUnits="userSpaceOnUse">
<stop stop-color="white"/>
<stop offset="1" stop-color="#497C9C"/>
</linearGradient>
<linearGradient id="paint66_linear_350_1358" x1="126.631" y1="53.2183" x2="124.98" y2="179.349" gradientUnits="userSpaceOnUse">
<stop stop-color="white"/>
<stop offset="1" stop-color="#497C9C"/>
</linearGradient>
<linearGradient id="paint67_linear_350_1358" x1="194.005" y1="151.042" x2="193.288" y2="205.784" gradientUnits="userSpaceOnUse">
<stop stop-color="white"/>
<stop offset="1" stop-color="#497C9C"/>
</linearGradient>
<linearGradient id="paint68_linear_350_1358" x1="130.827" y1="14.0663" x2="127.88" y2="239.196" gradientUnits="userSpaceOnUse">
<stop stop-color="white"/>
<stop offset="1" stop-color="#497C9C"/>
</linearGradient>
<linearGradient id="paint69_linear_350_1358" x1="166.55" y1="145.193" x2="166.259" y2="167.458" gradientUnits="userSpaceOnUse">
<stop stop-color="white"/>
<stop offset="1" stop-color="#497C9C"/>
</linearGradient>
<linearGradient id="paint70_linear_350_1358" x1="166.514" y1="145.704" x2="166.227" y2="167.604" gradientUnits="userSpaceOnUse">
<stop stop-color="white"/>
<stop offset="1" stop-color="#497C9C"/>
</linearGradient>
<linearGradient id="paint71_linear_350_1358" x1="71.1493" y1="40.9142" x2="70.4327" y2="95.6562" gradientUnits="userSpaceOnUse">
<stop stop-color="white"/>
<stop offset="1" stop-color="#497C9C"/>
</linearGradient>
<linearGradient id="paint72_linear_350_1358" x1="172.58" y1="156.293" x2="172.31" y2="176.923" gradientUnits="userSpaceOnUse">
<stop stop-color="white"/>
<stop offset="1" stop-color="#497C9C"/>
</linearGradient>
<linearGradient id="paint73_linear_350_1358" x1="43.6965" y1="35.061" x2="43.405" y2="57.3297" gradientUnits="userSpaceOnUse">
<stop stop-color="white"/>
<stop offset="1" stop-color="#497C9C"/>
</linearGradient>
<linearGradient id="paint74_linear_350_1358" x1="113.199" y1="53.6945" x2="111.566" y2="178.421" gradientUnits="userSpaceOnUse">
<stop stop-color="white"/>
<stop offset="1" stop-color="#497C9C"/>
</linearGradient>
<linearGradient id="paint75_linear_350_1358" x1="127.778" y1="74.8329" x2="126.146" y2="199.56" gradientUnits="userSpaceOnUse">
<stop stop-color="white"/>
<stop offset="1" stop-color="#497C9C"/>
</linearGradient>
<linearGradient id="paint76_linear_350_1358" x1="200.098" y1="194.479" x2="199.807" y2="216.748" gradientUnits="userSpaceOnUse">
<stop stop-color="white"/>
<stop offset="1" stop-color="#497C9C"/>
</linearGradient>
<linearGradient id="paint77_linear_350_1358" x1="71.698" y1="75.1343" x2="71.428" y2="95.7642" gradientUnits="userSpaceOnUse">
<stop stop-color="white"/>
<stop offset="1" stop-color="#497C9C"/>
</linearGradient>
<linearGradient id="paint78_linear_350_1358" x1="171.032" y1="156.127" x2="170.316" y2="210.869" gradientUnits="userSpaceOnUse">
<stop stop-color="white"/>
<stop offset="1" stop-color="#497C9C"/>
</linearGradient>
<linearGradient id="paint79_linear_350_1358" x1="77.7013" y1="84.4521" x2="77.4146" y2="106.352" gradientUnits="userSpaceOnUse">
<stop stop-color="white"/>
<stop offset="1" stop-color="#497C9C"/>
</linearGradient>
<linearGradient id="paint80_linear_350_1358" x1="105.293" y1="13.7319" x2="102.346" y2="238.862" gradientUnits="userSpaceOnUse">
<stop stop-color="white"/>
<stop offset="1" stop-color="#497C9C"/>
</linearGradient>
<linearGradient id="paint81_linear_350_1358" x1="77.2443" y1="84.3513" x2="76.9528" y2="106.617" gradientUnits="userSpaceOnUse">
<stop stop-color="white"/>
<stop offset="1" stop-color="#497C9C"/>
</linearGradient>
<linearGradient id="paint82_linear_350_1358" x1="48.1772" y1="45.9981" x2="47.4605" y2="100.74" gradientUnits="userSpaceOnUse">
<stop stop-color="white"/>
<stop offset="1" stop-color="#497C9C"/>
</linearGradient>
<linearGradient id="paint83_linear_350_1358" x1="113.958" y1="73.8982" x2="112.307" y2="200.029" gradientUnits="userSpaceOnUse">
<stop stop-color="white"/>
<stop offset="1" stop-color="#497C9C"/>
</linearGradient>
<linearGradient id="paint84_linear_350_1358" x1="196.053" y1="205.305" x2="195.864" y2="219.754" gradientUnits="userSpaceOnUse">
<stop stop-color="white"/>
<stop offset="1" stop-color="#497C9C"/>
</linearGradient>
<linearGradient id="paint85_linear_350_1358" x1="73.4488" y1="94.9061" x2="73.2586" y2="109.438" gradientUnits="userSpaceOnUse">
<stop stop-color="white"/>
<stop offset="1" stop-color="#497C9C"/>
</linearGradient>
<linearGradient id="paint86_linear_350_1358" x1="73.1995" y1="95.1735" x2="73.0103" y2="109.626" gradientUnits="userSpaceOnUse">
<stop stop-color="white"/>
<stop offset="1" stop-color="#497C9C"/>
</linearGradient>
<linearGradient id="paint87_linear_350_1358" x1="25.3979" y1="49.9608" x2="25.2015" y2="64.9637" gradientUnits="userSpaceOnUse">
<stop stop-color="white"/>
<stop offset="1" stop-color="#497C9C"/>
</linearGradient>
<linearGradient id="paint88_linear_350_1358" x1="185.751" y1="199.677" x2="185.485" y2="219.939" gradientUnits="userSpaceOnUse">
<stop stop-color="white"/>
<stop offset="1" stop-color="#497C9C"/>
</linearGradient>
<linearGradient id="paint89_linear_350_1358" x1="62.8952" y1="89.5483" x2="62.6299" y2="109.811" gradientUnits="userSpaceOnUse">
<stop stop-color="white"/>
<stop offset="1" stop-color="#497C9C"/>
</linearGradient>
<linearGradient id="paint90_linear_350_1358" x1="16.7645" y1="53.4591" x2="16.5878" y2="66.963" gradientUnits="userSpaceOnUse">
<stop stop-color="white"/>
<stop offset="1" stop-color="#497C9C"/>
</linearGradient>
<linearGradient id="paint91_linear_350_1358" x1="42.0893" y1="74.9848" x2="41.8228" y2="95.339" gradientUnits="userSpaceOnUse">
<stop stop-color="white"/>
<stop offset="1" stop-color="#497C9C"/>
</linearGradient>
<linearGradient id="paint92_linear_350_1358" x1="16.9552" y1="55.5736" x2="16.5828" y2="84.0174" gradientUnits="userSpaceOnUse">
<stop stop-color="white"/>
<stop offset="1" stop-color="#497C9C"/>
</linearGradient>
<linearGradient id="paint93_linear_350_1358" x1="150.262" y1="175.171" x2="149.694" y2="218.592" gradientUnits="userSpaceOnUse">
<stop stop-color="white"/>
<stop offset="1" stop-color="#497C9C"/>
</linearGradient>
<linearGradient id="paint94_linear_350_1358" x1="136.264" y1="174.945" x2="135.901" y2="202.683" gradientUnits="userSpaceOnUse">
<stop stop-color="white"/>
<stop offset="1" stop-color="#497C9C"/>
</linearGradient>
<linearGradient id="paint95_linear_350_1358" x1="125.618" y1="171.328" x2="125.422" y2="186.24" gradientUnits="userSpaceOnUse">
<stop stop-color="white"/>
<stop offset="1" stop-color="#497C9C"/>
</linearGradient>
<linearGradient id="paint96_linear_350_1358" x1="125.836" y1="171.555" x2="125.64" y2="186.467" gradientUnits="userSpaceOnUse">
<stop stop-color="white"/>
<stop offset="1" stop-color="#497C9C"/>
</linearGradient>
<linearGradient id="paint97_linear_350_1358" x1="48.018" y1="97.7136" x2="47.7515" y2="118.068" gradientUnits="userSpaceOnUse">
<stop stop-color="white"/>
<stop offset="1" stop-color="#497C9C"/>
</linearGradient>
<linearGradient id="paint98_linear_350_1358" x1="169.419" y1="207.456" x2="169.056" y2="235.194" gradientUnits="userSpaceOnUse">
<stop stop-color="white"/>
<stop offset="1" stop-color="#497C9C"/>
</linearGradient>
<linearGradient id="paint99_linear_350_1358" x1="16.9465" y1="83.6193" x2="16.7562" y2="98.1542" gradientUnits="userSpaceOnUse">
<stop stop-color="white"/>
<stop offset="1" stop-color="#497C9C"/>
</linearGradient>
<linearGradient id="paint100_linear_350_1358" x1="132.855" y1="191.249" x2="132.636" y2="207.992" gradientUnits="userSpaceOnUse">
<stop stop-color="white"/>
<stop offset="1" stop-color="#497C9C"/>
</linearGradient>
<linearGradient id="paint101_linear_350_1358" x1="114.885" y1="174.932" x2="114.666" y2="191.675" gradientUnits="userSpaceOnUse">
<stop stop-color="white"/>
<stop offset="1" stop-color="#497C9C"/>
</linearGradient>
<linearGradient id="paint102_linear_350_1358" x1="115.512" y1="174.45" x2="115.149" y2="202.187" gradientUnits="userSpaceOnUse">
<stop stop-color="white"/>
<stop offset="1" stop-color="#497C9C"/>
</linearGradient>
<linearGradient id="paint103_linear_350_1358" x1="159.951" y1="223.414" x2="159.755" y2="238.326" gradientUnits="userSpaceOnUse">
<stop stop-color="white"/>
<stop offset="1" stop-color="#497C9C"/>
</linearGradient>
<linearGradient id="paint104_linear_350_1358" x1="77.2374" y1="141.709" x2="76.905" y2="167.101" gradientUnits="userSpaceOnUse">
<stop stop-color="white"/>
<stop offset="1" stop-color="#497C9C"/>
</linearGradient>
<linearGradient id="paint105_linear_350_1358" x1="77.1279" y1="142.138" x2="76.7992" y2="167.247" gradientUnits="userSpaceOnUse">
<stop stop-color="white"/>
<stop offset="1" stop-color="#497C9C"/>
</linearGradient>
<linearGradient id="paint106_linear_350_1358" x1="12.3279" y1="86.7023" x2="12.0413" y2="108.599" gradientUnits="userSpaceOnUse">
<stop stop-color="white"/>
<stop offset="1" stop-color="#497C9C"/>
</linearGradient>
<linearGradient id="paint107_linear_350_1358" x1="67.0165" y1="141.234" x2="66.8229" y2="156.019" gradientUnits="userSpaceOnUse">
<stop stop-color="white"/>
<stop offset="1" stop-color="#497C9C"/>
</linearGradient>
<linearGradient id="paint108_linear_350_1358" x1="133.89" y1="191.039" x2="133.321" y2="234.46" gradientUnits="userSpaceOnUse">
<stop stop-color="white"/>
<stop offset="1" stop-color="#497C9C"/>
</linearGradient>
<linearGradient id="paint109_linear_350_1358" x1="80.6593" y1="155.903" x2="80.4348" y2="173.049" gradientUnits="userSpaceOnUse">
<stop stop-color="white"/>
<stop offset="1" stop-color="#497C9C"/>
</linearGradient>
<linearGradient id="paint110_linear_350_1358" x1="18.3955" y1="97.2883" x2="18.1255" y2="117.918" gradientUnits="userSpaceOnUse">
<stop stop-color="white"/>
<stop offset="1" stop-color="#497C9C"/>
</linearGradient>
<linearGradient id="paint111_linear_350_1358" x1="49.4066" y1="132.472" x2="49.1357" y2="153.165" gradientUnits="userSpaceOnUse">
<stop stop-color="white"/>
<stop offset="1" stop-color="#497C9C"/>
</linearGradient>
<linearGradient id="paint112_linear_350_1358" x1="59.9495" y1="144.535" x2="59.7298" y2="161.317" gradientUnits="userSpaceOnUse">
<stop stop-color="white"/>
<stop offset="1" stop-color="#497C9C"/>
</linearGradient>
<linearGradient id="paint113_linear_350_1358" x1="73.8555" y1="161.569" x2="73.6619" y2="176.357" gradientUnits="userSpaceOnUse">
<stop stop-color="white"/>
<stop offset="1" stop-color="#497C9C"/>
</linearGradient>
<linearGradient id="paint114_linear_350_1358" x1="119.775" y1="196.43" x2="119.347" y2="229.149" gradientUnits="userSpaceOnUse">
<stop stop-color="white"/>
<stop offset="1" stop-color="#497C9C"/>
</linearGradient>
<linearGradient id="paint115_linear_350_1358" x1="101.805" y1="180.112" x2="101.377" y2="212.832" gradientUnits="userSpaceOnUse">
<stop stop-color="white"/>
<stop offset="1" stop-color="#497C9C"/>
</linearGradient>
<linearGradient id="paint116_linear_350_1358" x1="139.571" y1="227.955" x2="139.307" y2="248.08" gradientUnits="userSpaceOnUse">
<stop stop-color="white"/>
<stop offset="1" stop-color="#497C9C"/>
</linearGradient>
<linearGradient id="paint117_linear_350_1358" x1="76.5796" y1="155.703" x2="75.864" y2="210.363" gradientUnits="userSpaceOnUse">
<stop stop-color="white"/>
<stop offset="1" stop-color="#497C9C"/>
</linearGradient>
<linearGradient id="paint118_linear_350_1358" x1="133.62" y1="236.611" x2="133.424" y2="251.623" gradientUnits="userSpaceOnUse">
<stop stop-color="white"/>
<stop offset="1" stop-color="#497C9C"/>
</linearGradient>
<linearGradient id="paint119_linear_350_1358" x1="21.387" y1="131.848" x2="21.1934" y2="146.637" gradientUnits="userSpaceOnUse">
<stop stop-color="white"/>
<stop offset="1" stop-color="#497C9C"/>
</linearGradient>
<linearGradient id="paint120_linear_350_1358" x1="45.5428" y1="155.036" x2="45.2719" y2="175.729" gradientUnits="userSpaceOnUse">
<stop stop-color="white"/>
<stop offset="1" stop-color="#497C9C"/>
</linearGradient>
<linearGradient id="paint121_linear_350_1358" x1="122.288" y1="227.729" x2="121.978" y2="251.473" gradientUnits="userSpaceOnUse">
<stop stop-color="white"/>
<stop offset="1" stop-color="#497C9C"/>
</linearGradient>
<linearGradient id="paint122_linear_350_1358" x1="107.489" y1="217.599" x2="107.269" y2="234.343" gradientUnits="userSpaceOnUse">
<stop stop-color="white"/>
<stop offset="1" stop-color="#497C9C"/>
</linearGradient>
<linearGradient id="paint123_linear_350_1358" x1="89.5187" y1="201.283" x2="89.2995" y2="218.026" gradientUnits="userSpaceOnUse">
<stop stop-color="white"/>
<stop offset="1" stop-color="#497C9C"/>
</linearGradient>
<linearGradient id="paint124_linear_350_1358" x1="53.1072" y1="149.837" x2="52.3916" y2="204.497" gradientUnits="userSpaceOnUse">
<stop stop-color="white"/>
<stop offset="1" stop-color="#497C9C"/>
</linearGradient>
<linearGradient id="paint125_linear_350_1358" x1="14.4662" y1="135.155" x2="14.2417" y2="152.3" gradientUnits="userSpaceOnUse">
<stop stop-color="white"/>
<stop offset="1" stop-color="#497C9C"/>
</linearGradient>
<linearGradient id="paint126_linear_350_1358" x1="17.6023" y1="140.95" x2="17.2736" y2="166.06" gradientUnits="userSpaceOnUse">
<stop stop-color="white"/>
<stop offset="1" stop-color="#497C9C"/>
</linearGradient>
<linearGradient id="paint127_linear_350_1358" x1="96.629" y1="222.809" x2="96.4338" y2="237.722" gradientUnits="userSpaceOnUse">
<stop stop-color="white"/>
<stop offset="1" stop-color="#497C9C"/>
</linearGradient>
<linearGradient id="paint128_linear_350_1358" x1="85.5637" y1="206.582" x2="85.2006" y2="234.32" gradientUnits="userSpaceOnUse">
<stop stop-color="white"/>
<stop offset="1" stop-color="#497C9C"/>
</linearGradient>
<linearGradient id="paint129_linear_350_1358" x1="71.6187" y1="198.913" x2="71.399" y2="215.695" gradientUnits="userSpaceOnUse">
<stop stop-color="white"/>
<stop offset="1" stop-color="#497C9C"/>
</linearGradient>
<linearGradient id="paint130_linear_350_1358" x1="24.0341" y1="165.881" x2="23.8621" y2="179.019" gradientUnits="userSpaceOnUse">
<stop stop-color="white"/>
<stop offset="1" stop-color="#497C9C"/>
</linearGradient>
<linearGradient id="paint131_linear_350_1358" x1="64.6505" y1="204.213" x2="64.457" y2="218.998" gradientUnits="userSpaceOnUse">
<stop stop-color="white"/>
<stop offset="1" stop-color="#497C9C"/>
</linearGradient>
<linearGradient id="paint132_linear_350_1358" x1="53.9029" y1="193.122" x2="53.5705" y2="218.514" gradientUnits="userSpaceOnUse">
<stop stop-color="white"/>
<stop offset="1" stop-color="#497C9C"/>
</linearGradient>
<linearGradient id="paint133_linear_350_1358" x1="21.1211" y1="167.589" x2="20.772" y2="194.257" gradientUnits="userSpaceOnUse">
<stop stop-color="white"/>
<stop offset="1" stop-color="#497C9C"/>
</linearGradient>
<linearGradient id="paint134_linear_350_1358" x1="30.7565" y1="182.994" x2="30.5314" y2="200.19" gradientUnits="userSpaceOnUse">
<stop stop-color="white"/>
<stop offset="1" stop-color="#497C9C"/>
</linearGradient>
</defs>
</svg>
