<svg width="389" height="368" viewBox="0 0 389 368" fill="none" xmlns="http://www.w3.org/2000/svg">
<path d="M179.471 36.4501C179.881 31.499 182.457 27.0456 186.288 23.8483C190.118 20.6528 195.202 18.712 200.635 18.7831C211.503 18.9254 219.647 27.0658 218.827 36.9653L193.108 347.138C192.697 352.087 190.125 356.538 186.296 359.735C182.466 362.933 177.379 364.876 171.943 364.805C161.076 364.663 152.931 356.523 153.752 346.623L179.471 36.4501Z" fill="url(#paint0_linear_349_1235)" fill-opacity="0.7"/>
<path d="M189.523 85.3901C199.366 76.9175 215.134 63.3443 224.976 54.8716C230.286 50.3006 233.872 47.2141 233.872 47.2141C241.498 40.6497 253.171 40.6292 259.945 47.1683C266.719 53.7075 266.028 64.33 258.402 70.8944C258.402 70.8944 254.817 73.9809 249.507 78.552C239.664 87.0247 223.897 100.598 214.054 109.07C208.744 113.642 205.158 116.728 205.158 116.728C197.533 123.292 185.859 123.313 179.085 116.774C172.312 110.235 173.002 99.6121 180.628 93.0477C180.628 93.0477 184.213 89.9612 189.523 85.3901Z" fill="url(#paint1_linear_349_1235)" fill-opacity="0.7"/>
<path d="M162.327 45.9518C155.805 39.2022 144.161 38.8764 136.318 45.2242C128.476 51.5721 127.405 62.1896 133.927 68.9392L179.463 116.066C185.985 122.816 197.629 123.141 205.472 116.793C213.314 110.446 214.385 99.8281 207.863 93.0785L162.327 45.9518Z" fill="url(#paint2_linear_349_1235)" fill-opacity="0.7"/>
<path d="M209.564 340.37C216.086 347.12 227.73 347.445 235.573 341.098C243.415 334.75 244.486 324.132 237.964 317.383L192.428 270.256C185.906 263.506 174.262 263.181 166.419 269.528C158.577 275.876 157.506 286.494 164.028 293.243L209.564 340.37Z" fill="url(#paint3_linear_349_1235)" fill-opacity="0.7"/>
<path d="M182.314 301.583C172.471 310.055 156.703 323.628 146.861 332.101C141.551 336.672 137.965 339.759 137.965 339.759C130.339 346.323 118.666 346.343 111.892 339.804C105.118 333.265 105.809 322.643 113.435 316.078C113.435 316.078 117.02 312.992 122.33 308.421C132.173 299.948 147.941 286.375 157.783 277.902C163.093 273.331 166.679 270.245 166.679 270.245C174.304 263.68 185.978 263.66 192.752 270.199C199.526 276.738 198.835 287.361 191.209 293.925C191.209 293.925 187.624 297.011 182.314 301.583Z" fill="url(#paint4_linear_349_1235)" fill-opacity="0.7"/>
<path d="M328.161 96.2916C337.811 91.163 349.741 93.8706 354.807 102.339C359.162 109.618 357.03 118.783 350.218 124.471C349.104 125.401 347.866 126.238 346.51 126.959L44.1708 287.649C34.5214 292.778 22.5916 290.07 17.5249 281.602C13.1701 274.323 15.3025 265.158 22.1142 259.469C23.2279 258.539 24.4667 257.702 25.8226 256.982L328.161 96.2916Z" fill="url(#paint5_linear_349_1235)" fill-opacity="0.7"/>
<path d="M344.125 144.534C353.912 146.597 359.516 155.592 356.642 164.625C355.6 167.9 353.587 170.731 350.978 172.91C346.389 176.741 339.957 178.56 333.719 177.245L265.386 162.838C255.6 160.775 249.995 151.779 252.869 142.746C253.911 139.471 255.924 136.641 258.534 134.462C263.122 130.631 269.554 128.812 275.792 130.127L344.125 144.534Z" fill="url(#paint6_linear_349_1235)" fill-opacity="0.7"/>
<path d="M311.074 88.5937C314.265 79.6328 308.998 70.4581 299.311 68.1014C292.933 66.5499 286.229 68.3401 281.482 72.3013C279.018 74.3571 277.082 76.9977 275.991 80.0594L253.711 142.626C250.52 151.587 255.787 160.761 265.475 163.118C271.853 164.67 278.557 162.879 283.304 158.918C285.767 156.862 287.704 154.222 288.794 151.16L311.074 88.5937Z" fill="url(#paint7_linear_349_1235)" fill-opacity="0.7"/>
<path d="M58.3731 296.408C55.1821 305.369 60.4489 314.543 70.1368 316.9C76.5146 318.452 83.2185 316.661 87.9655 312.7C90.4292 310.644 92.3658 308.004 93.4561 304.942L115.736 242.376C118.927 233.415 113.66 224.24 103.972 221.883C97.5945 220.332 90.8906 222.122 86.1436 226.083C83.6799 228.139 81.7433 230.78 80.653 233.841L58.3731 296.408Z" fill="url(#paint8_linear_349_1235)" fill-opacity="0.7"/>
<path d="M24.6882 240.805C14.9015 238.742 9.29722 229.746 12.1708 220.713C13.2126 217.438 15.2258 214.608 17.8356 212.429C22.4238 208.597 28.8559 206.778 35.0943 208.094L103.427 222.5C113.214 224.564 118.818 233.559 115.944 242.592C114.902 245.867 112.889 248.697 110.279 250.877C105.691 254.708 99.2591 256.527 93.0207 255.212L24.6882 240.805Z" fill="url(#paint9_linear_349_1235)" fill-opacity="0.7"/>
<path d="M334.48 262.116C343.209 267.55 344.993 278.664 338.467 286.94C337.583 288.061 336.592 289.072 335.517 289.969C328.657 295.698 318.392 296.783 310.845 292.085L37.3616 121.817C28.6332 116.382 26.8482 105.268 33.3748 96.9924C34.2587 95.8717 35.2496 94.8605 36.3242 93.9632C43.1842 88.2347 53.4502 87.1491 60.9966 91.8474L334.48 262.116Z" fill="url(#paint10_linear_349_1235)" fill-opacity="0.7"/>
<path d="M292.456 298.664C293.516 304.573 290.958 310.453 286.247 314.384C283.749 316.467 280.647 318.004 277.159 318.706C267.088 320.734 257.61 315.049 255.989 306.008L244.668 242.883C243.609 236.976 246.164 231.099 250.872 227.168C253.37 225.082 256.474 223.544 259.966 222.841C270.036 220.813 279.514 226.498 281.135 235.539L292.456 298.664Z" fill="url(#paint11_linear_349_1235)" fill-opacity="0.7"/>
<path d="M335.725 244.341C339.447 243.704 342.768 242.113 345.415 239.902C349.964 236.104 352.522 230.477 351.705 224.724C350.413 215.621 341.163 209.647 331.045 211.379L260.402 223.474C256.683 224.111 253.364 225.7 250.718 227.908C246.166 231.707 243.605 237.335 244.423 243.092C245.715 252.194 254.965 258.168 265.082 256.436L335.725 244.341Z" fill="url(#paint12_linear_349_1235)" fill-opacity="0.7"/>
<path d="M33.977 137.737C30.2552 138.374 26.9343 139.966 24.2874 142.176C19.7388 145.974 17.1804 151.601 17.9973 157.355C19.2897 166.457 28.5394 172.432 38.6571 170.699L109.3 158.604C113.02 157.967 116.338 156.378 118.984 154.17C123.536 150.371 126.097 144.743 125.28 138.987C123.987 129.884 114.738 123.91 104.62 125.642L33.977 137.737Z" fill="url(#paint13_linear_349_1235)" fill-opacity="0.7"/>
<path d="M76.6722 83.057C75.6125 77.1481 78.1709 71.2682 82.8821 67.3372C85.3793 65.2535 88.4814 63.7174 91.97 63.0149C102.04 60.9869 111.518 66.672 113.14 75.7129L124.461 138.838C125.52 144.745 122.964 150.622 118.257 154.553C115.759 156.639 112.654 158.177 109.163 158.88C99.0928 160.908 89.6149 155.223 87.9934 146.182L76.6722 83.057Z" fill="url(#paint14_linear_349_1235)" fill-opacity="0.7"/>
<path d="M347.682 79.9974C357.331 74.8688 369.261 77.5765 374.328 86.0451L354.808 102.34C349.741 93.8709 337.811 91.1633 328.162 96.2919L347.682 79.9974Z" fill="url(#paint15_linear_349_1235)" fill-opacity="0.7"/>
<path d="M369.738 108.178C376.55 102.489 378.682 93.3239 374.328 86.0453L354.808 102.34C359.162 109.618 357.03 118.784 350.218 124.472L369.738 108.178Z" fill="url(#paint16_linear_349_1235)" fill-opacity="0.7"/>
<path d="M330.595 72.2992C333.786 63.3383 328.519 54.1636 318.831 51.8069L299.311 68.1014C308.999 70.4581 314.266 79.6328 311.075 88.5937L330.595 72.2992Z" fill="url(#paint17_linear_349_1235)" fill-opacity="0.7"/>
<path d="M366.031 110.665C367.385 109.945 368.622 109.11 369.734 108.182L350.219 124.472C349.105 125.402 347.866 126.239 346.51 126.96L366.031 110.665Z" fill="url(#paint18_linear_349_1235)" fill-opacity="0.7"/>
<path d="M301.002 56.0068C305.749 52.0456 312.453 50.2554 318.831 51.8069L299.311 68.1014C292.933 66.5499 286.229 68.3401 281.482 72.3012L301.002 56.0068Z" fill="url(#paint19_linear_349_1235)" fill-opacity="0.7"/>
<path d="M295.512 63.7657C296.602 60.7062 298.536 58.0671 300.997 56.0118L281.482 72.3024C279.018 74.3583 277.082 76.999 275.991 80.0608L295.512 63.7657Z" fill="url(#paint20_linear_349_1235)" fill-opacity="0.7"/>
<path d="M277.923 54.6001C285.549 48.0357 286.24 37.4132 279.466 30.8741L259.946 47.1685C266.72 53.7077 266.029 64.3302 258.403 70.8946L277.923 54.6001Z" fill="url(#paint21_linear_349_1235)" fill-opacity="0.7"/>
<path d="M253.393 30.9198C261.018 24.3554 272.692 24.3349 279.466 30.8741L259.946 47.1685C253.308 40.761 241.966 40.6517 234.338 46.8258L233.873 47.2143C234.026 47.0821 234.181 46.9526 234.338 46.8258L253.393 30.9198Z" fill="url(#paint22_linear_349_1235)" fill-opacity="0.7"/>
<path d="M363.646 128.239C373.433 130.302 379.037 139.298 376.163 148.331L356.643 164.625C359.517 155.592 353.913 146.597 344.126 144.534L363.646 128.239Z" fill="url(#paint23_linear_349_1235)" fill-opacity="0.7"/>
<path d="M370.498 156.616C373.108 154.436 375.121 151.606 376.163 148.331L356.642 164.626C355.6 167.901 353.587 170.731 350.977 172.911L370.498 156.616Z" fill="url(#paint24_linear_349_1235)" fill-opacity="0.7"/>
<path d="M238.347 20.671C239.168 10.7715 231.024 2.63107 220.156 2.48881L200.636 18.7833C211.504 18.9256 219.648 27.066 218.827 36.9655L238.347 20.671Z" fill="url(#paint25_linear_349_1235)" fill-opacity="0.7"/>
<path d="M330.595 72.2997L308.315 134.866L288.795 151.161L311.075 88.5942L330.595 72.2997Z" fill="url(#paint26_linear_349_1235)" fill-opacity="0.7"/>
<path d="M269.028 62.2581L277.924 54.6003L258.403 70.8953L249.507 78.5532L269.028 62.2581Z" fill="url(#paint27_linear_349_1235)" fill-opacity="0.7"/>
<path d="M253.393 30.9196L244.497 38.5774L224.976 54.8725L233.872 47.2147L253.393 30.9196Z" fill="url(#paint28_linear_349_1235)" fill-opacity="0.7"/>
<path d="M363.645 128.239L295.312 113.832L275.792 130.127L344.125 144.533L363.645 128.239Z" fill="url(#paint29_linear_349_1235)" fill-opacity="0.7"/>
<path d="M205.809 7.55376C209.639 4.35822 214.723 2.41743 220.156 2.48854L200.636 18.783C195.203 18.7119 190.119 20.6527 186.289 23.8482L205.809 7.55376Z" fill="url(#paint30_linear_349_1235)" fill-opacity="0.7"/>
<path d="M353.239 160.95C359.475 162.265 365.905 160.448 370.493 156.62L350.978 172.91C346.39 176.741 339.958 178.56 333.719 177.245L353.239 160.95Z" fill="url(#paint31_linear_349_1235)" fill-opacity="0.7"/>
<path d="M273.231 126.331L295.511 63.7648L275.991 80.0593L253.711 142.626L273.231 126.331Z" fill="url(#paint32_linear_349_1235)" fill-opacity="0.7"/>
<path d="M198.991 20.1553C199.401 15.2069 201.974 10.7557 205.802 7.5588L186.288 23.848C182.457 27.0453 179.881 31.4987 179.471 36.4498L198.991 20.1553Z" fill="url(#paint33_linear_349_1235)" fill-opacity="0.7"/>
<path d="M233.574 92.7761L269.027 62.2577L249.507 78.5522L214.054 109.071L233.574 92.7761Z" fill="url(#paint34_linear_349_1235)" fill-opacity="0.7"/>
<path d="M244.497 38.5775L209.044 69.096L189.524 85.3905L224.977 54.872L244.497 38.5775Z" fill="url(#paint35_linear_349_1235)" fill-opacity="0.7"/>
<path d="M295.313 113.832C289.075 112.517 282.643 114.336 278.055 118.167L258.54 134.458C263.128 130.629 269.557 128.812 275.793 130.127L295.313 113.832Z" fill="url(#paint36_linear_349_1235)" fill-opacity="0.7"/>
<path d="M308.315 134.866C307.225 137.928 305.288 140.568 302.824 142.624L283.309 158.915C285.77 156.86 287.705 154.221 288.794 151.161L308.315 134.866Z" fill="url(#paint37_linear_349_1235)" fill-opacity="0.7"/>
<path d="M284.907 146.544L353.24 160.951L333.719 177.245L265.387 162.838L284.907 146.544Z" fill="url(#paint38_linear_349_1235)" fill-opacity="0.7"/>
<path d="M350.565 195.085C360.683 193.352 369.933 199.327 371.225 208.429L351.705 224.724C350.413 215.621 341.163 209.647 331.045 211.379L350.565 195.085Z" fill="url(#paint39_linear_349_1235)" fill-opacity="0.7"/>
<path d="M278.054 118.168C275.444 120.347 273.431 123.177 272.389 126.453L252.868 142.748C253.91 139.472 255.924 136.642 258.533 134.463L278.054 118.168Z" fill="url(#paint40_linear_349_1235)" fill-opacity="0.7"/>
<path d="M364.935 223.608C369.484 219.81 372.042 214.183 371.225 208.429L351.705 224.724C352.522 230.478 349.964 236.104 345.415 239.902L364.935 223.608Z" fill="url(#paint41_linear_349_1235)" fill-opacity="0.7"/>
<path d="M181.848 29.6573L227.384 76.784L207.864 93.0785L162.328 45.9517L181.848 29.6573Z" fill="url(#paint42_linear_349_1235)" fill-opacity="0.7"/>
<path d="M302.824 142.624C298.077 146.585 291.373 148.375 284.995 146.824L265.475 163.118C271.853 164.669 278.557 162.879 283.304 158.918L302.824 142.624Z" fill="url(#paint43_linear_349_1235)" fill-opacity="0.7"/>
<path d="M284.996 146.824C275.308 144.467 270.041 135.293 273.232 126.332L253.712 142.626C250.521 151.587 255.788 160.762 265.476 163.118L284.996 146.824Z" fill="url(#paint44_linear_349_1235)" fill-opacity="0.7"/>
<path d="M272.389 126.452C269.516 135.485 275.12 144.48 284.907 146.544L265.387 162.838C255.6 160.775 249.996 151.78 252.869 142.747L272.389 126.452Z" fill="url(#paint45_linear_349_1235)" fill-opacity="0.7"/>
<path d="M181.847 29.6574C175.325 22.9078 163.681 22.5821 155.838 28.9299L136.318 45.2244C144.161 38.8766 155.805 39.2023 162.327 45.9519L181.847 29.6574Z" fill="url(#paint46_linear_349_1235)" fill-opacity="0.7"/>
<path d="M227.384 76.7846C233.905 83.5343 232.835 94.1518 224.992 100.5L205.938 116.406C205.785 116.537 205.63 116.666 205.472 116.794L205.938 116.406C213.355 110.02 214.254 99.6929 207.863 93.0791L227.384 76.7846Z" fill="url(#paint47_linear_349_1235)" fill-opacity="0.7"/>
<path d="M355.246 228.047C358.965 227.41 362.284 225.821 364.93 223.613L345.415 239.903C342.768 242.113 339.447 243.705 335.725 244.342L355.246 228.047Z" fill="url(#paint48_linear_349_1235)" fill-opacity="0.7"/>
<path d="M224.68 100.434L233.576 92.7758L214.055 109.071L205.159 116.729L224.68 100.434Z" fill="url(#paint49_linear_349_1235)" fill-opacity="0.7"/>
<path d="M209.044 69.0961L200.149 76.7539L180.628 93.049L189.524 85.3912L209.044 69.0961Z" fill="url(#paint50_linear_349_1235)" fill-opacity="0.7"/>
<path d="M279.922 207.18L350.565 195.085L331.045 211.379L260.402 223.474L279.922 207.18Z" fill="url(#paint51_linear_349_1235)" fill-opacity="0.7"/>
<path d="M155.373 29.3187C155.525 29.1875 155.68 29.0579 155.838 28.9301L155.373 29.3187C147.956 35.7039 147.056 46.0314 153.447 52.6451L133.927 68.9396C127.405 62.19 128.476 51.5724 136.318 45.2246L155.373 29.3187Z" fill="url(#paint52_linear_349_1235)" fill-opacity="0.7"/>
<path d="M224.993 100.499C217.15 106.847 205.506 106.521 198.984 99.7718L179.464 116.066C185.986 122.816 197.63 123.142 205.473 116.794L224.993 100.499Z" fill="url(#paint53_linear_349_1235)" fill-opacity="0.7"/>
<path d="M224.679 100.433C224.525 100.566 224.37 100.695 224.213 100.822L205.159 116.728C197.533 123.292 185.86 123.313 179.086 116.774L198.606 100.479C205.243 106.887 216.585 106.996 224.213 100.822L224.679 100.433Z" fill="url(#paint54_linear_349_1235)" fill-opacity="0.7"/>
<path d="M200.148 76.7532C192.523 83.3176 191.832 93.9401 198.606 100.479L179.086 116.774C172.312 110.235 173.003 99.6121 180.628 93.0477L200.148 76.7532Z" fill="url(#paint55_linear_349_1235)" fill-opacity="0.7"/>
<path d="M198.983 99.7718L153.447 52.6451L133.927 68.9395L179.463 116.066L198.983 99.7718Z" fill="url(#paint56_linear_349_1235)" fill-opacity="0.7"/>
<path d="M354 245.821C362.729 251.255 364.514 262.37 357.987 270.645L338.467 286.94C344.994 278.664 343.209 267.55 334.48 262.116L354 245.821Z" fill="url(#paint57_linear_349_1235)" fill-opacity="0.7"/>
<path d="M355.246 228.047L284.603 240.142L265.083 256.436L335.726 244.341L355.246 228.047Z" fill="url(#paint58_linear_349_1235)" fill-opacity="0.7"/>
<path d="M355.039 273.675C356.114 272.778 357.105 271.766 357.989 270.646L338.468 286.941C337.584 288.062 336.593 289.073 335.519 289.97L355.039 273.675Z" fill="url(#paint59_linear_349_1235)" fill-opacity="0.7"/>
<path d="M300.655 219.244C299.034 210.203 289.556 204.518 279.486 206.546L259.966 222.841C270.036 220.813 279.514 226.498 281.135 235.539L300.655 219.244Z" fill="url(#paint60_linear_349_1235)" fill-opacity="0.7"/>
<path d="M132.659 59.4188C131.038 50.3778 121.56 44.6927 111.49 46.7207L91.9698 63.0152C102.04 60.9872 111.518 66.6723 113.139 75.7132L132.659 59.4188Z" fill="url(#paint61_linear_349_1235)" fill-opacity="0.7"/>
<path d="M330.365 275.791C337.91 280.488 348.172 279.404 355.032 273.68L335.518 289.97C328.658 295.698 318.392 296.784 310.845 292.085L330.365 275.791Z" fill="url(#paint62_linear_349_1235)" fill-opacity="0.7"/>
<path d="M279.487 206.546C275.996 207.249 272.891 208.787 270.393 210.873L250.878 227.164C253.375 225.08 256.477 223.544 259.966 222.841L279.487 206.546Z" fill="url(#paint63_linear_349_1235)" fill-opacity="0.7"/>
<path d="M270.239 211.615C272.885 209.407 276.204 207.817 279.924 207.18L260.403 223.475C256.684 224.112 253.365 225.702 250.719 227.91L270.239 211.615Z" fill="url(#paint64_linear_349_1235)" fill-opacity="0.7"/>
<path d="M102.404 51.0434C104.901 48.9596 108.003 47.4235 111.492 46.7209L91.9711 63.016C88.4823 63.7186 85.3802 65.2547 82.8829 67.3384L102.404 51.0434Z" fill="url(#paint65_linear_349_1235)" fill-opacity="0.7"/>
<path d="M354 245.821L80.5169 75.553L60.9969 91.8475L334.48 262.116L354 245.821Z" fill="url(#paint66_linear_349_1235)" fill-opacity="0.7"/>
<path d="M311.976 282.37L300.655 219.244L281.135 235.539L292.456 298.664L311.976 282.37Z" fill="url(#paint67_linear_349_1235)" fill-opacity="0.7"/>
<path d="M212.628 330.844L238.347 20.6707L218.827 36.9652L193.108 347.138L212.628 330.844Z" fill="url(#paint68_linear_349_1235)" fill-opacity="0.7"/>
<path d="M270.392 210.874C265.684 214.805 263.129 220.682 264.188 226.588L244.668 242.883C243.609 236.977 246.164 231.099 250.872 227.168L270.392 210.874Z" fill="url(#paint69_linear_349_1235)" fill-opacity="0.7"/>
<path d="M263.943 226.797C263.126 221.043 265.684 215.417 270.233 211.618L250.718 227.908C246.166 231.707 243.605 237.335 244.423 243.092L263.943 226.797Z" fill="url(#paint70_linear_349_1235)" fill-opacity="0.7"/>
<path d="M143.981 122.544L132.66 59.4185L113.14 75.713L124.461 138.838L143.981 122.544Z" fill="url(#paint71_linear_349_1235)" fill-opacity="0.7"/>
<path d="M284.602 240.142C274.484 241.874 265.235 235.9 263.942 226.797L244.422 243.092C245.715 252.194 254.964 258.169 265.082 256.436L284.602 240.142Z" fill="url(#paint72_linear_349_1235)" fill-opacity="0.7"/>
<path d="M96.193 66.7626C95.1338 60.8564 97.6894 54.9791 102.397 51.0481L82.8829 67.3373C78.1717 71.2683 75.6133 77.1482 76.673 83.0571L96.193 66.7626Z" fill="url(#paint73_linear_349_1235)" fill-opacity="0.7"/>
<path d="M347.682 79.9976L45.3431 240.688L25.8231 256.982L328.162 96.2921L347.682 79.9976Z" fill="url(#paint74_linear_349_1235)" fill-opacity="0.7"/>
<path d="M63.6915 271.355L366.03 110.665L346.51 126.959L44.1715 287.649L63.6915 271.355Z" fill="url(#paint75_linear_349_1235)" fill-opacity="0.7"/>
<path d="M311.978 282.369C313.037 288.278 310.479 294.158 305.768 298.089L286.254 314.378C290.961 310.447 293.517 304.57 292.458 298.664L311.978 282.369Z" fill="url(#paint76_linear_349_1235)" fill-opacity="0.7"/>
<path d="M124.141 109.348C134.258 107.616 143.508 113.59 144.8 122.692L125.28 138.987C123.988 129.885 114.738 123.91 104.621 125.642L124.141 109.348Z" fill="url(#paint77_linear_349_1235)" fill-opacity="0.7"/>
<path d="M264.188 226.589L275.51 289.714L255.989 306.008L244.668 242.883L264.188 226.589Z" fill="url(#paint78_linear_349_1235)" fill-opacity="0.7"/>
<path d="M144.8 122.692C145.618 128.449 143.057 134.077 138.505 137.876L118.99 154.166C123.539 150.367 126.097 144.741 125.28 138.987L144.8 122.692Z" fill="url(#paint79_linear_349_1235)" fill-opacity="0.7"/>
<path d="M198.992 20.156L173.273 330.329L153.753 346.624L179.471 36.4505L198.992 20.156Z" fill="url(#paint80_linear_349_1235)" fill-opacity="0.7"/>
<path d="M137.777 138.258C142.485 134.327 145.04 128.45 143.981 122.543L124.461 138.838C125.52 144.744 122.965 150.622 118.257 154.553L137.777 138.258Z" fill="url(#paint81_linear_349_1235)" fill-opacity="0.7"/>
<path d="M96.1932 66.7627L107.514 129.888L87.9944 146.182L76.6732 83.0572L96.1932 66.7627Z" fill="url(#paint82_linear_349_1235)" fill-opacity="0.7"/>
<path d="M56.8821 105.522L330.366 275.791L310.846 292.085L37.3621 121.817L56.8821 105.522Z" fill="url(#paint83_linear_349_1235)" fill-opacity="0.7"/>
<path d="M305.768 298.089C303.271 300.173 300.169 301.709 296.68 302.412L277.159 318.707C280.648 318.004 283.75 316.468 286.247 314.384L305.768 298.089Z" fill="url(#paint84_linear_349_1235)" fill-opacity="0.7"/>
<path d="M138.506 137.876C135.86 140.084 132.541 141.673 128.821 142.31L109.301 158.605C113.02 157.968 116.339 156.379 118.985 154.171L138.506 137.876Z" fill="url(#paint85_linear_349_1235)" fill-opacity="0.7"/>
<path d="M128.684 142.586C132.173 141.884 135.276 140.348 137.773 138.264L118.258 154.554C115.76 156.64 112.655 158.178 109.164 158.882L128.684 142.586Z" fill="url(#paint86_linear_349_1235)" fill-opacity="0.7"/>
<path d="M80.5173 75.553C72.9709 70.8547 62.7049 71.9403 55.8449 77.6688L36.3304 93.9586C43.1905 88.2341 53.4529 87.1504 60.9973 91.8475L80.5173 75.553Z" fill="url(#paint87_linear_349_1235)" fill-opacity="0.7"/>
<path d="M275.51 289.713C277.131 298.754 286.609 304.44 296.679 302.411L277.159 318.706C267.089 320.734 257.611 315.049 255.99 306.008L275.51 289.713Z" fill="url(#paint88_linear_349_1235)" fill-opacity="0.7"/>
<path d="M107.514 129.888C109.135 138.929 118.613 144.615 128.684 142.587L109.164 158.881C99.0934 160.909 89.6154 155.224 87.994 146.183L107.514 129.888Z" fill="url(#paint89_linear_349_1235)" fill-opacity="0.7"/>
<path d="M55.8455 77.6686C54.7709 78.566 53.7799 79.5772 52.896 80.698L33.3753 96.9931C34.2592 95.8723 35.2502 94.861 36.3248 93.9637L55.8455 77.6686Z" fill="url(#paint90_linear_349_1235)" fill-opacity="0.7"/>
<path d="M53.4971 121.443L124.14 109.348L104.62 125.642L33.9771 137.737L53.4971 121.443Z" fill="url(#paint91_linear_349_1235)" fill-opacity="0.7"/>
<path d="M52.8952 80.698C46.3686 88.9738 48.1535 100.088 56.882 105.522L37.362 121.817C28.6335 116.382 26.8485 105.268 33.3752 96.9925L52.8952 80.698Z" fill="url(#paint92_linear_349_1235)" fill-opacity="0.7"/>
<path d="M211.949 253.962L257.485 301.088L237.965 317.383L192.429 270.256L211.949 253.962Z" fill="url(#paint93_linear_349_1235)" fill-opacity="0.7"/>
<path d="M210.729 277.631C218.355 271.066 219.046 260.444 212.272 253.905L192.752 270.199C199.526 276.738 198.835 287.361 191.209 293.925L210.729 277.631Z" fill="url(#paint94_linear_349_1235)" fill-opacity="0.7"/>
<path d="M185.939 253.234C193.782 246.886 205.426 247.212 211.948 253.962L192.428 270.256C185.906 263.506 174.262 263.181 166.419 269.529L185.939 253.234Z" fill="url(#paint95_linear_349_1235)" fill-opacity="0.7"/>
<path d="M186.199 253.95C193.825 247.386 205.498 247.365 212.272 253.905L192.752 270.199C186.114 263.792 174.773 263.682 167.144 269.856L166.679 270.245C166.833 270.113 166.988 269.983 167.144 269.856L186.199 253.95Z" fill="url(#paint96_linear_349_1235)" fill-opacity="0.7"/>
<path d="M128.821 142.31L58.1775 154.405L38.6575 170.7L109.301 158.605L128.821 142.31Z" fill="url(#paint97_linear_349_1235)" fill-opacity="0.7"/>
<path d="M257.484 301.089C264.006 307.838 262.935 318.456 255.093 324.804L236.038 340.71C235.886 340.841 235.731 340.97 235.573 341.098L236.038 340.71C243.456 334.324 244.355 323.997 237.964 317.383L257.484 301.089Z" fill="url(#paint98_linear_349_1235)" fill-opacity="0.7"/>
<path d="M53.4984 121.443C49.7765 122.08 46.4556 123.672 43.8086 125.882L24.2932 142.173C26.9393 139.965 30.2583 138.375 33.9777 137.738L53.4984 121.443Z" fill="url(#paint99_linear_349_1235)" fill-opacity="0.7"/>
<path d="M201.835 285.288L210.731 277.63L191.21 293.925L182.314 301.583L201.835 285.288Z" fill="url(#paint100_linear_349_1235)" fill-opacity="0.7"/>
<path d="M186.2 253.95L177.304 261.608L157.784 277.903L166.679 270.245L186.2 253.95Z" fill="url(#paint101_linear_349_1235)" fill-opacity="0.7"/>
<path d="M185.475 253.623C185.627 253.492 185.782 253.362 185.94 253.234L185.475 253.623C178.058 260.008 177.158 270.336 183.549 276.949L164.029 293.244C157.507 286.494 158.578 275.877 166.42 269.529L185.475 253.623Z" fill="url(#paint102_linear_349_1235)" fill-opacity="0.7"/>
<path d="M229.085 324.076C235.606 330.826 247.251 331.152 255.093 324.804L235.573 341.098C227.731 347.446 216.086 347.12 209.565 340.371L229.085 324.076Z" fill="url(#paint103_linear_349_1235)" fill-opacity="0.7"/>
<path d="M123.492 205.589C133.18 207.946 138.447 217.121 135.256 226.081L115.736 242.376C118.927 233.415 113.66 224.24 103.972 221.884L123.492 205.589Z" fill="url(#paint104_linear_349_1235)" fill-opacity="0.7"/>
<path d="M135.465 226.298C138.338 217.265 132.734 208.27 122.947 206.206L103.427 222.501C113.214 224.564 118.818 233.56 115.945 242.593L135.465 226.298Z" fill="url(#paint105_linear_349_1235)" fill-opacity="0.7"/>
<path d="M43.8077 125.882C39.259 129.68 36.7006 135.307 37.5176 141.061L17.9976 157.355C17.1806 151.601 19.739 145.975 24.2876 142.176L43.8077 125.882Z" fill="url(#paint106_linear_349_1235)" fill-opacity="0.7"/>
<path d="M105.664 209.789C110.411 205.828 117.115 204.038 123.493 205.589L103.973 221.884C97.5949 220.332 90.891 222.123 86.144 226.084L105.664 209.789Z" fill="url(#paint107_linear_349_1235)" fill-opacity="0.7"/>
<path d="M229.084 324.076L183.548 276.949L164.028 293.243L209.564 340.37L229.084 324.076Z" fill="url(#paint108_linear_349_1235)" fill-opacity="0.7"/>
<path d="M129.801 234.582C132.411 232.403 134.424 229.573 135.466 226.298L115.945 242.593C114.903 245.868 112.89 248.698 110.28 250.877L129.801 234.582Z" fill="url(#paint109_linear_349_1235)" fill-opacity="0.7"/>
<path d="M58.1774 154.405C48.0597 156.137 38.81 150.163 37.5176 141.061L17.9976 157.355C19.29 166.457 28.5397 172.432 38.6574 170.7L58.1774 154.405Z" fill="url(#paint110_linear_349_1235)" fill-opacity="0.7"/>
<path d="M122.947 206.206L54.6143 191.799L35.0943 208.094L103.427 222.501L122.947 206.206Z" fill="url(#paint111_linear_349_1235)" fill-opacity="0.7"/>
<path d="M100.174 217.548C101.263 214.488 103.198 211.849 105.659 209.794L86.144 226.084C83.6802 228.14 81.7435 230.781 80.6532 233.843L100.174 217.548Z" fill="url(#paint112_linear_349_1235)" fill-opacity="0.7"/>
<path d="M112.541 238.917C118.777 240.232 125.206 238.415 129.794 234.586L110.279 250.877C105.691 254.708 99.2592 256.527 93.0207 255.212L112.541 238.917Z" fill="url(#paint113_linear_349_1235)" fill-opacity="0.7"/>
<path d="M166.382 315.806L201.834 285.288L182.314 301.582L146.862 332.101L166.382 315.806Z" fill="url(#paint114_linear_349_1235)" fill-opacity="0.7"/>
<path d="M177.304 261.608L141.851 292.126L122.331 308.421L157.784 277.902L177.304 261.608Z" fill="url(#paint115_linear_349_1235)" fill-opacity="0.7"/>
<path d="M205.816 343.441C209.644 340.244 212.217 335.792 212.628 330.844L193.108 347.138C192.697 352.087 190.124 356.538 186.296 359.735L205.816 343.441Z" fill="url(#paint116_linear_349_1235)" fill-opacity="0.7"/>
<path d="M135.256 226.081L112.976 288.648L93.456 304.942L115.736 242.376L135.256 226.081Z" fill="url(#paint117_linear_349_1235)" fill-opacity="0.7"/>
<path d="M191.464 348.511C196.897 348.582 201.981 346.641 205.811 343.446L186.297 359.735C182.467 362.934 177.38 364.877 171.944 364.805L191.464 348.511Z" fill="url(#paint118_linear_349_1235)" fill-opacity="0.7"/>
<path d="M54.615 191.799C48.3766 190.484 41.9445 192.303 37.3563 196.134L17.8414 212.424C22.4293 208.596 28.8589 206.779 35.095 208.094L54.615 191.799Z" fill="url(#paint119_linear_349_1235)" fill-opacity="0.7"/>
<path d="M44.2085 224.511L112.541 238.917L93.021 255.212L24.6885 240.805L44.2085 224.511Z" fill="url(#paint120_linear_349_1235)" fill-opacity="0.7"/>
<path d="M173.272 330.329C172.451 340.229 180.596 348.369 191.463 348.511L171.943 364.806C161.076 364.664 152.931 356.523 153.752 346.624L173.272 330.329Z" fill="url(#paint121_linear_349_1235)" fill-opacity="0.7"/>
<path d="M157.486 323.465L166.382 315.807L146.862 332.102L137.965 339.76L157.486 323.465Z" fill="url(#paint122_linear_349_1235)" fill-opacity="0.7"/>
<path d="M141.851 292.126L132.956 299.784L113.435 316.079L122.331 308.421L141.851 292.126Z" fill="url(#paint123_linear_349_1235)" fill-opacity="0.7"/>
<path d="M77.8933 280.114L100.173 217.547L80.6532 233.842L58.3733 296.408L77.8933 280.114Z" fill="url(#paint124_linear_349_1235)" fill-opacity="0.7"/>
<path d="M37.3569 196.134C34.7471 198.314 32.7338 201.144 31.6919 204.419L12.1712 220.714C13.2131 217.439 15.2264 214.609 17.8362 212.43L37.3569 196.134Z" fill="url(#paint125_linear_349_1235)" fill-opacity="0.7"/>
<path d="M44.2084 224.51C34.4217 222.447 28.8174 213.451 31.691 204.418L12.1709 220.713C9.29739 229.746 14.9016 238.741 24.6884 240.805L44.2084 224.51Z" fill="url(#paint126_linear_349_1235)" fill-opacity="0.7"/>
<path d="M131.412 323.51C138.05 329.918 149.391 330.027 157.02 323.853L157.485 323.464C157.332 323.597 157.177 323.726 157.02 323.853L137.965 339.759C130.339 346.323 118.666 346.344 111.892 339.805L131.412 323.51Z" fill="url(#paint127_linear_349_1235)" fill-opacity="0.7"/>
<path d="M132.955 299.783C125.329 306.348 124.639 316.97 131.413 323.51L111.893 339.804C105.119 333.265 105.809 322.642 113.435 316.078L132.955 299.783Z" fill="url(#paint128_linear_349_1235)" fill-opacity="0.7"/>
<path d="M112.978 288.648C111.887 291.71 109.951 294.35 107.487 296.406L87.9717 312.697C90.4328 310.642 92.3674 308.003 93.4569 304.943L112.978 288.648Z" fill="url(#paint129_linear_349_1235)" fill-opacity="0.7"/>
<path d="M45.3434 240.687C43.9874 241.408 42.7486 242.245 41.6349 243.175L22.12 259.465C23.2322 258.537 24.469 257.702 25.8227 256.982L45.3434 240.687Z" fill="url(#paint130_linear_349_1235)" fill-opacity="0.7"/>
<path d="M107.486 296.406C102.739 300.367 96.0351 302.157 89.6573 300.606L70.1373 316.9C76.5151 318.452 83.219 316.661 87.966 312.7L107.486 296.406Z" fill="url(#paint131_linear_349_1235)" fill-opacity="0.7"/>
<path d="M77.8937 280.114C74.7027 289.075 79.9695 298.249 89.6574 300.606L70.1374 316.9C60.4495 314.544 55.1827 305.369 58.3737 296.408L77.8937 280.114Z" fill="url(#paint132_linear_349_1235)" fill-opacity="0.7"/>
<path d="M41.6346 243.175C34.8228 248.863 32.6904 258.029 37.0452 265.307L17.5252 281.602C13.1704 274.323 15.3028 265.158 22.1145 259.47L41.6346 243.175Z" fill="url(#paint133_linear_349_1235)" fill-opacity="0.7"/>
<path d="M37.0455 265.307C42.1122 273.776 54.042 276.483 63.6914 271.355L44.1714 287.649C34.522 292.778 22.5922 290.07 17.5255 281.601L37.0455 265.307Z" fill="url(#paint134_linear_349_1235)" fill-opacity="0.7"/>
<defs>
<linearGradient id="paint0_linear_349_1235" x1="198.835" y1="18.7595" x2="194.301" y2="365.098" gradientUnits="userSpaceOnUse">
<stop stop-color="white"/>
<stop offset="1" stop-color="#497C9C"/>
</linearGradient>
<linearGradient id="paint1_linear_349_1235" x1="198.835" y1="18.7595" x2="194.301" y2="365.098" gradientUnits="userSpaceOnUse">
<stop stop-color="white"/>
<stop offset="1" stop-color="#497C9C"/>
</linearGradient>
<linearGradient id="paint2_linear_349_1235" x1="198.835" y1="18.7595" x2="194.301" y2="365.098" gradientUnits="userSpaceOnUse">
<stop stop-color="white"/>
<stop offset="1" stop-color="#497C9C"/>
</linearGradient>
<linearGradient id="paint3_linear_349_1235" x1="198.835" y1="18.7595" x2="194.301" y2="365.098" gradientUnits="userSpaceOnUse">
<stop stop-color="white"/>
<stop offset="1" stop-color="#497C9C"/>
</linearGradient>
<linearGradient id="paint4_linear_349_1235" x1="198.835" y1="18.7595" x2="194.301" y2="365.098" gradientUnits="userSpaceOnUse">
<stop stop-color="white"/>
<stop offset="1" stop-color="#497C9C"/>
</linearGradient>
<linearGradient id="paint5_linear_349_1235" x1="198.835" y1="18.7595" x2="194.301" y2="365.098" gradientUnits="userSpaceOnUse">
<stop stop-color="white"/>
<stop offset="1" stop-color="#497C9C"/>
</linearGradient>
<linearGradient id="paint6_linear_349_1235" x1="198.835" y1="18.7595" x2="194.301" y2="365.098" gradientUnits="userSpaceOnUse">
<stop stop-color="white"/>
<stop offset="1" stop-color="#497C9C"/>
</linearGradient>
<linearGradient id="paint7_linear_349_1235" x1="198.835" y1="18.7595" x2="194.301" y2="365.098" gradientUnits="userSpaceOnUse">
<stop stop-color="white"/>
<stop offset="1" stop-color="#497C9C"/>
</linearGradient>
<linearGradient id="paint8_linear_349_1235" x1="198.835" y1="18.7595" x2="194.301" y2="365.098" gradientUnits="userSpaceOnUse">
<stop stop-color="white"/>
<stop offset="1" stop-color="#497C9C"/>
</linearGradient>
<linearGradient id="paint9_linear_349_1235" x1="198.835" y1="18.7595" x2="194.301" y2="365.098" gradientUnits="userSpaceOnUse">
<stop stop-color="white"/>
<stop offset="1" stop-color="#497C9C"/>
</linearGradient>
<linearGradient id="paint10_linear_349_1235" x1="198.835" y1="18.7595" x2="194.301" y2="365.098" gradientUnits="userSpaceOnUse">
<stop stop-color="white"/>
<stop offset="1" stop-color="#497C9C"/>
</linearGradient>
<linearGradient id="paint11_linear_349_1235" x1="198.835" y1="18.7595" x2="194.301" y2="365.098" gradientUnits="userSpaceOnUse">
<stop stop-color="white"/>
<stop offset="1" stop-color="#497C9C"/>
</linearGradient>
<linearGradient id="paint12_linear_349_1235" x1="198.835" y1="18.7595" x2="194.301" y2="365.098" gradientUnits="userSpaceOnUse">
<stop stop-color="white"/>
<stop offset="1" stop-color="#497C9C"/>
</linearGradient>
<linearGradient id="paint13_linear_349_1235" x1="198.835" y1="18.7595" x2="194.301" y2="365.098" gradientUnits="userSpaceOnUse">
<stop stop-color="white"/>
<stop offset="1" stop-color="#497C9C"/>
</linearGradient>
<linearGradient id="paint14_linear_349_1235" x1="198.835" y1="18.7595" x2="194.301" y2="365.098" gradientUnits="userSpaceOnUse">
<stop stop-color="white"/>
<stop offset="1" stop-color="#497C9C"/>
</linearGradient>
<linearGradient id="paint15_linear_349_1235" x1="352.392" y1="77.3263" x2="352.065" y2="102.304" gradientUnits="userSpaceOnUse">
<stop stop-color="white"/>
<stop offset="1" stop-color="#497C9C"/>
</linearGradient>
<linearGradient id="paint16_linear_349_1235" x1="365.376" y1="85.9281" x2="364.869" y2="124.664" gradientUnits="userSpaceOnUse">
<stop stop-color="white"/>
<stop offset="1" stop-color="#497C9C"/>
</linearGradient>
<linearGradient id="paint17_linear_349_1235" x1="316.753" y1="51.7797" x2="316.27" y2="88.6617" gradientUnits="userSpaceOnUse">
<stop stop-color="white"/>
<stop offset="1" stop-color="#497C9C"/>
</linearGradient>
<linearGradient id="paint18_linear_349_1235" x1="358.915" y1="108.035" x2="358.666" y2="127.119" gradientUnits="userSpaceOnUse">
<stop stop-color="white"/>
<stop offset="1" stop-color="#497C9C"/>
</linearGradient>
<linearGradient id="paint19_linear_349_1235" x1="301.067" y1="51.0778" x2="300.785" y2="72.5539" gradientUnits="userSpaceOnUse">
<stop stop-color="white"/>
<stop offset="1" stop-color="#497C9C"/>
</linearGradient>
<linearGradient id="paint20_linear_349_1235" x1="289.507" y1="55.8568" x2="289.188" y2="80.2335" gradientUnits="userSpaceOnUse">
<stop stop-color="white"/>
<stop offset="1" stop-color="#497C9C"/>
</linearGradient>
<linearGradient id="paint21_linear_349_1235" x1="273.195" y1="30.792" x2="272.668" y2="71.0814" gradientUnits="userSpaceOnUse">
<stop stop-color="white"/>
<stop offset="1" stop-color="#497C9C"/>
</linearGradient>
<linearGradient id="paint22_linear_349_1235" x1="257.762" y1="25.8632" x2="257.478" y2="47.5233" gradientUnits="userSpaceOnUse">
<stop stop-color="white"/>
<stop offset="1" stop-color="#497C9C"/>
</linearGradient>
<linearGradient id="paint23_linear_349_1235" x1="361.86" y1="128.216" x2="361.382" y2="164.687" gradientUnits="userSpaceOnUse">
<stop stop-color="white"/>
<stop offset="1" stop-color="#497C9C"/>
</linearGradient>
<linearGradient id="paint24_linear_349_1235" x1="364.602" y1="148.179" x2="364.276" y2="173.085" gradientUnits="userSpaceOnUse">
<stop stop-color="white"/>
<stop offset="1" stop-color="#497C9C"/>
</linearGradient>
<linearGradient id="paint25_linear_349_1235" x1="220.92" y1="2.49881" x2="220.469" y2="36.9869" gradientUnits="userSpaceOnUse">
<stop stop-color="white"/>
<stop offset="1" stop-color="#497C9C"/>
</linearGradient>
<linearGradient id="paint26_linear_349_1235" x1="312.984" y1="72.0692" x2="311.945" y2="151.464" gradientUnits="userSpaceOnUse">
<stop stop-color="white"/>
<stop offset="1" stop-color="#497C9C"/>
</linearGradient>
<linearGradient id="paint27_linear_349_1235" x1="264.723" y1="54.4274" x2="264.405" y2="78.7482" gradientUnits="userSpaceOnUse">
<stop stop-color="white"/>
<stop offset="1" stop-color="#497C9C"/>
</linearGradient>
<linearGradient id="paint28_linear_349_1235" x1="240.192" y1="30.7468" x2="239.874" y2="55.0675" gradientUnits="userSpaceOnUse">
<stop stop-color="white"/>
<stop offset="1" stop-color="#497C9C"/>
</linearGradient>
<linearGradient id="paint29_linear_349_1235" x1="320.964" y1="114.168" x2="320.57" y2="144.225" gradientUnits="userSpaceOnUse">
<stop stop-color="white"/>
<stop offset="1" stop-color="#497C9C"/>
</linearGradient>
<linearGradient id="paint30_linear_349_1235" x1="204.126" y1="2.2787" x2="203.84" y2="24.078" gradientUnits="userSpaceOnUse">
<stop stop-color="white"/>
<stop offset="1" stop-color="#497C9C"/>
</linearGradient>
<linearGradient id="paint31_linear_349_1235" x1="352.983" y1="156.386" x2="352.702" y2="177.866" gradientUnits="userSpaceOnUse">
<stop stop-color="white"/>
<stop offset="1" stop-color="#497C9C"/>
</linearGradient>
<linearGradient id="paint32_linear_349_1235" x1="277.9" y1="63.5343" x2="276.861" y2="142.929" gradientUnits="userSpaceOnUse">
<stop stop-color="white"/>
<stop offset="1" stop-color="#497C9C"/>
</linearGradient>
<linearGradient id="paint33_linear_349_1235" x1="193.851" y1="7.39702" x2="193.468" y2="36.633" gradientUnits="userSpaceOnUse">
<stop stop-color="white"/>
<stop offset="1" stop-color="#497C9C"/>
</linearGradient>
<linearGradient id="paint34_linear_349_1235" x1="243.509" y1="61.9236" x2="242.887" y2="109.448" gradientUnits="userSpaceOnUse">
<stop stop-color="white"/>
<stop offset="1" stop-color="#497C9C"/>
</linearGradient>
<linearGradient id="paint35_linear_349_1235" x1="218.979" y1="38.2435" x2="218.357" y2="85.7679" gradientUnits="userSpaceOnUse">
<stop stop-color="white"/>
<stop offset="1" stop-color="#497C9C"/>
</linearGradient>
<linearGradient id="paint36_linear_349_1235" x1="277.829" y1="113.231" x2="277.548" y2="134.711" gradientUnits="userSpaceOnUse">
<stop stop-color="white"/>
<stop offset="1" stop-color="#497C9C"/>
</linearGradient>
<linearGradient id="paint37_linear_349_1235" x1="296.819" y1="134.715" x2="296.5" y2="159.092" gradientUnits="userSpaceOnUse">
<stop stop-color="white"/>
<stop offset="1" stop-color="#497C9C"/>
</linearGradient>
<linearGradient id="paint38_linear_349_1235" x1="310.558" y1="146.88" x2="310.165" y2="176.937" gradientUnits="userSpaceOnUse">
<stop stop-color="white"/>
<stop offset="1" stop-color="#497C9C"/>
</linearGradient>
<linearGradient id="paint39_linear_349_1235" x1="352.391" y1="194.762" x2="351.999" y2="224.728" gradientUnits="userSpaceOnUse">
<stop stop-color="white"/>
<stop offset="1" stop-color="#497C9C"/>
</linearGradient>
<linearGradient id="paint40_linear_349_1235" x1="266.493" y1="118.016" x2="266.167" y2="142.922" gradientUnits="userSpaceOnUse">
<stop stop-color="white"/>
<stop offset="1" stop-color="#497C9C"/>
</linearGradient>
<linearGradient id="paint41_linear_349_1235" x1="359.827" y1="208.28" x2="359.411" y2="240.086" gradientUnits="userSpaceOnUse">
<stop stop-color="white"/>
<stop offset="1" stop-color="#497C9C"/>
</linearGradient>
<linearGradient id="paint42_linear_349_1235" x1="197.468" y1="29.8617" x2="196.643" y2="92.9316" gradientUnits="userSpaceOnUse">
<stop stop-color="white"/>
<stop offset="1" stop-color="#497C9C"/>
</linearGradient>
<linearGradient id="paint43_linear_349_1235" x1="285.019" y1="142.391" x2="284.738" y2="163.867" gradientUnits="userSpaceOnUse">
<stop stop-color="white"/>
<stop offset="1" stop-color="#497C9C"/>
</linearGradient>
<linearGradient id="paint44_linear_349_1235" x1="270.609" y1="126.297" x2="270.126" y2="163.179" gradientUnits="userSpaceOnUse">
<stop stop-color="white"/>
<stop offset="1" stop-color="#497C9C"/>
</linearGradient>
<linearGradient id="paint45_linear_349_1235" x1="270.194" y1="126.423" x2="269.717" y2="162.895" gradientUnits="userSpaceOnUse">
<stop stop-color="white"/>
<stop offset="1" stop-color="#497C9C"/>
</linearGradient>
<linearGradient id="paint46_linear_349_1235" x1="160.176" y1="24.2599" x2="159.892" y2="45.92" gradientUnits="userSpaceOnUse">
<stop stop-color="white"/>
<stop offset="1" stop-color="#497C9C"/>
</linearGradient>
<linearGradient id="paint47_linear_349_1235" x1="220.688" y1="76.697" x2="220.161" y2="116.986" gradientUnits="userSpaceOnUse">
<stop stop-color="white"/>
<stop offset="1" stop-color="#497C9C"/>
</linearGradient>
<linearGradient id="paint48_linear_349_1235" x1="351.205" y1="223.428" x2="350.929" y2="244.541" gradientUnits="userSpaceOnUse">
<stop stop-color="white"/>
<stop offset="1" stop-color="#497C9C"/>
</linearGradient>
<linearGradient id="paint49_linear_349_1235" x1="220.375" y1="92.603" x2="220.057" y2="116.924" gradientUnits="userSpaceOnUse">
<stop stop-color="white"/>
<stop offset="1" stop-color="#497C9C"/>
</linearGradient>
<linearGradient id="paint50_linear_349_1235" x1="195.844" y1="68.9233" x2="195.525" y2="93.244" gradientUnits="userSpaceOnUse">
<stop stop-color="white"/>
<stop offset="1" stop-color="#497C9C"/>
</linearGradient>
<linearGradient id="paint51_linear_349_1235" x1="306.709" y1="194.511" x2="306.322" y2="224.075" gradientUnits="userSpaceOnUse">
<stop stop-color="white"/>
<stop offset="1" stop-color="#497C9C"/>
</linearGradient>
<linearGradient id="paint52_linear_349_1235" x1="143.96" y1="28.7746" x2="143.432" y2="69.064" gradientUnits="userSpaceOnUse">
<stop stop-color="white"/>
<stop offset="1" stop-color="#497C9C"/>
</linearGradient>
<linearGradient id="paint53_linear_349_1235" x1="202.93" y1="99.8234" x2="202.646" y2="121.484" gradientUnits="userSpaceOnUse">
<stop stop-color="white"/>
<stop offset="1" stop-color="#497C9C"/>
</linearGradient>
<linearGradient id="paint54_linear_349_1235" x1="202.584" y1="100.144" x2="202.3" y2="121.804" gradientUnits="userSpaceOnUse">
<stop stop-color="white"/>
<stop offset="1" stop-color="#497C9C"/>
</linearGradient>
<linearGradient id="paint55_linear_349_1235" x1="188.694" y1="76.6033" x2="188.167" y2="116.893" gradientUnits="userSpaceOnUse">
<stop stop-color="white"/>
<stop offset="1" stop-color="#497C9C"/>
</linearGradient>
<linearGradient id="paint56_linear_349_1235" x1="169.068" y1="52.8495" x2="168.242" y2="115.919" gradientUnits="userSpaceOnUse">
<stop stop-color="white"/>
<stop offset="1" stop-color="#497C9C"/>
</linearGradient>
<linearGradient id="paint57_linear_349_1235" x1="349.484" y1="245.762" x2="348.943" y2="287.077" gradientUnits="userSpaceOnUse">
<stop stop-color="white"/>
<stop offset="1" stop-color="#497C9C"/>
</linearGradient>
<linearGradient id="paint58_linear_349_1235" x1="311.389" y1="227.473" x2="311.002" y2="257.037" gradientUnits="userSpaceOnUse">
<stop stop-color="white"/>
<stop offset="1" stop-color="#497C9C"/>
</linearGradient>
<linearGradient id="paint59_linear_349_1235" x1="347.566" y1="270.509" x2="347.309" y2="290.124" gradientUnits="userSpaceOnUse">
<stop stop-color="white"/>
<stop offset="1" stop-color="#497C9C"/>
</linearGradient>
<linearGradient id="paint60_linear_349_1235" x1="281.549" y1="206.108" x2="281.164" y2="235.539" gradientUnits="userSpaceOnUse">
<stop stop-color="white"/>
<stop offset="1" stop-color="#497C9C"/>
</linearGradient>
<linearGradient id="paint61_linear_349_1235" x1="113.553" y1="46.2822" x2="113.168" y2="75.7136" gradientUnits="userSpaceOnUse">
<stop stop-color="white"/>
<stop offset="1" stop-color="#497C9C"/>
</linearGradient>
<linearGradient id="paint62_linear_349_1235" x1="333.728" y1="273.396" x2="333.443" y2="295.188" gradientUnits="userSpaceOnUse">
<stop stop-color="white"/>
<stop offset="1" stop-color="#497C9C"/>
</linearGradient>
<linearGradient id="paint63_linear_349_1235" x1="266.049" y1="206.37" x2="265.774" y2="227.363" gradientUnits="userSpaceOnUse">
<stop stop-color="white"/>
<stop offset="1" stop-color="#497C9C"/>
</linearGradient>
<linearGradient id="paint64_linear_349_1235" x1="266.196" y1="207.001" x2="265.919" y2="228.109" gradientUnits="userSpaceOnUse">
<stop stop-color="white"/>
<stop offset="1" stop-color="#497C9C"/>
</linearGradient>
<linearGradient id="paint65_linear_349_1235" x1="98.0567" y1="46.545" x2="97.7819" y2="67.5335" gradientUnits="userSpaceOnUse">
<stop stop-color="white"/>
<stop offset="1" stop-color="#497C9C"/>
</linearGradient>
<linearGradient id="paint66_linear_349_1235" x1="215.087" y1="77.3146" x2="212.689" y2="260.522" gradientUnits="userSpaceOnUse">
<stop stop-color="white"/>
<stop offset="1" stop-color="#497C9C"/>
</linearGradient>
<linearGradient id="paint67_linear_349_1235" x1="299.849" y1="219.234" x2="298.808" y2="298.747" gradientUnits="userSpaceOnUse">
<stop stop-color="white"/>
<stop offset="1" stop-color="#497C9C"/>
</linearGradient>
<linearGradient id="paint68_linear_349_1235" x1="229.272" y1="20.5519" x2="224.992" y2="347.556" gradientUnits="userSpaceOnUse">
<stop stop-color="white"/>
<stop offset="1" stop-color="#497C9C"/>
</linearGradient>
<linearGradient id="paint69_linear_349_1235" x1="258.614" y1="210.719" x2="258.191" y2="243.06" gradientUnits="userSpaceOnUse">
<stop stop-color="white"/>
<stop offset="1" stop-color="#497C9C"/>
</linearGradient>
<linearGradient id="paint70_linear_349_1235" x1="258.458" y1="211.46" x2="258.042" y2="243.27" gradientUnits="userSpaceOnUse">
<stop stop-color="white"/>
<stop offset="1" stop-color="#497C9C"/>
</linearGradient>
<linearGradient id="paint71_linear_349_1235" x1="131.854" y1="59.4079" x2="130.813" y2="138.921" gradientUnits="userSpaceOnUse">
<stop stop-color="white"/>
<stop offset="1" stop-color="#497C9C"/>
</linearGradient>
<linearGradient id="paint72_linear_349_1235" x1="265.739" y1="226.821" x2="265.347" y2="256.786" gradientUnits="userSpaceOnUse">
<stop stop-color="white"/>
<stop offset="1" stop-color="#497C9C"/>
</linearGradient>
<linearGradient id="paint73_linear_349_1235" x1="90.6225" y1="50.8886" x2="90.1991" y2="83.2342" gradientUnits="userSpaceOnUse">
<stop stop-color="white"/>
<stop offset="1" stop-color="#497C9C"/>
</linearGradient>
<linearGradient id="paint74_linear_349_1235" x1="194.257" y1="77.9892" x2="191.885" y2="259.156" gradientUnits="userSpaceOnUse">
<stop stop-color="white"/>
<stop offset="1" stop-color="#497C9C"/>
</linearGradient>
<linearGradient id="paint75_linear_349_1235" x1="212.605" y1="108.656" x2="210.233" y2="289.823" gradientUnits="userSpaceOnUse">
<stop stop-color="white"/>
<stop offset="1" stop-color="#497C9C"/>
</linearGradient>
<linearGradient id="paint76_linear_349_1235" x1="300.708" y1="282.222" x2="300.284" y2="314.567" gradientUnits="userSpaceOnUse">
<stop stop-color="white"/>
<stop offset="1" stop-color="#497C9C"/>
</linearGradient>
<linearGradient id="paint77_linear_349_1235" x1="125.966" y1="109.026" x2="125.574" y2="138.991" gradientUnits="userSpaceOnUse">
<stop stop-color="white"/>
<stop offset="1" stop-color="#497C9C"/>
</linearGradient>
<linearGradient id="paint78_linear_349_1235" x1="263.382" y1="226.578" x2="262.342" y2="306.092" gradientUnits="userSpaceOnUse">
<stop stop-color="white"/>
<stop offset="1" stop-color="#497C9C"/>
</linearGradient>
<linearGradient id="paint79_linear_349_1235" x1="133.4" y1="122.543" x2="132.984" y2="154.353" gradientUnits="userSpaceOnUse">
<stop stop-color="white"/>
<stop offset="1" stop-color="#497C9C"/>
</linearGradient>
<linearGradient id="paint80_linear_349_1235" x1="189.917" y1="20.0373" x2="185.636" y2="347.041" gradientUnits="userSpaceOnUse">
<stop stop-color="white"/>
<stop offset="1" stop-color="#497C9C"/>
</linearGradient>
<linearGradient id="paint81_linear_349_1235" x1="132.714" y1="122.396" x2="132.291" y2="154.736" gradientUnits="userSpaceOnUse">
<stop stop-color="white"/>
<stop offset="1" stop-color="#497C9C"/>
</linearGradient>
<linearGradient id="paint82_linear_349_1235" x1="95.3873" y1="66.7522" x2="94.3464" y2="146.266" gradientUnits="userSpaceOnUse">
<stop stop-color="white"/>
<stop offset="1" stop-color="#497C9C"/>
</linearGradient>
<linearGradient id="paint83_linear_349_1235" x1="191.452" y1="107.284" x2="189.054" y2="290.491" gradientUnits="userSpaceOnUse">
<stop stop-color="white"/>
<stop offset="1" stop-color="#497C9C"/>
</linearGradient>
<linearGradient id="paint84_linear_349_1235" x1="292.333" y1="297.913" x2="292.058" y2="318.902" gradientUnits="userSpaceOnUse">
<stop stop-color="white"/>
<stop offset="1" stop-color="#497C9C"/>
</linearGradient>
<linearGradient id="paint85_linear_349_1235" x1="124.778" y1="137.696" x2="124.501" y2="158.804" gradientUnits="userSpaceOnUse">
<stop stop-color="white"/>
<stop offset="1" stop-color="#497C9C"/>
</linearGradient>
<linearGradient id="paint86_linear_349_1235" x1="124.341" y1="138.083" x2="124.066" y2="159.077" gradientUnits="userSpaceOnUse">
<stop stop-color="white"/>
<stop offset="1" stop-color="#497C9C"/>
</linearGradient>
<linearGradient id="paint87_linear_349_1235" x1="59.44" y1="72.4701" x2="59.1547" y2="94.2621" gradientUnits="userSpaceOnUse">
<stop stop-color="white"/>
<stop offset="1" stop-color="#497C9C"/>
</linearGradient>
<linearGradient id="paint88_linear_349_1235" x1="277.534" y1="289.74" x2="277.149" y2="319.171" gradientUnits="userSpaceOnUse">
<stop stop-color="white"/>
<stop offset="1" stop-color="#497C9C"/>
</linearGradient>
<linearGradient id="paint89_linear_349_1235" x1="109.539" y1="129.915" x2="109.153" y2="159.346" gradientUnits="userSpaceOnUse">
<stop stop-color="white"/>
<stop offset="1" stop-color="#497C9C"/>
</linearGradient>
<linearGradient id="paint90_linear_349_1235" x1="45.4229" y1="77.5322" x2="45.1661" y2="97.1474" gradientUnits="userSpaceOnUse">
<stop stop-color="white"/>
<stop offset="1" stop-color="#497C9C"/>
</linearGradient>
<linearGradient id="paint91_linear_349_1235" x1="80.2832" y1="108.774" x2="79.8962" y2="138.338" gradientUnits="userSpaceOnUse">
<stop stop-color="white"/>
<stop offset="1" stop-color="#497C9C"/>
</linearGradient>
<linearGradient id="paint92_linear_349_1235" x1="45.3008" y1="80.5986" x2="44.7599" y2="121.914" gradientUnits="userSpaceOnUse">
<stop stop-color="white"/>
<stop offset="1" stop-color="#497C9C"/>
</linearGradient>
<linearGradient id="paint93_linear_349_1235" x1="227.569" y1="254.166" x2="226.744" y2="317.236" gradientUnits="userSpaceOnUse">
<stop stop-color="white"/>
<stop offset="1" stop-color="#497C9C"/>
</linearGradient>
<linearGradient id="paint94_linear_349_1235" x1="206.001" y1="253.822" x2="205.474" y2="294.112" gradientUnits="userSpaceOnUse">
<stop stop-color="white"/>
<stop offset="1" stop-color="#497C9C"/>
</linearGradient>
<linearGradient id="paint95_linear_349_1235" x1="190.277" y1="248.564" x2="189.993" y2="270.224" gradientUnits="userSpaceOnUse">
<stop stop-color="white"/>
<stop offset="1" stop-color="#497C9C"/>
</linearGradient>
<linearGradient id="paint96_linear_349_1235" x1="190.568" y1="248.894" x2="190.285" y2="270.554" gradientUnits="userSpaceOnUse">
<stop stop-color="white"/>
<stop offset="1" stop-color="#497C9C"/>
</linearGradient>
<linearGradient id="paint97_linear_349_1235" x1="84.9637" y1="141.736" x2="84.5766" y2="171.301" gradientUnits="userSpaceOnUse">
<stop stop-color="white"/>
<stop offset="1" stop-color="#497C9C"/>
</linearGradient>
<linearGradient id="paint98_linear_349_1235" x1="250.789" y1="301.001" x2="250.262" y2="341.29" gradientUnits="userSpaceOnUse">
<stop stop-color="white"/>
<stop offset="1" stop-color="#497C9C"/>
</linearGradient>
<linearGradient id="paint99_linear_349_1235" x1="39.7677" y1="121.263" x2="39.4913" y2="142.376" gradientUnits="userSpaceOnUse">
<stop stop-color="white"/>
<stop offset="1" stop-color="#497C9C"/>
</linearGradient>
<linearGradient id="paint100_linear_349_1235" x1="197.53" y1="277.457" x2="197.211" y2="301.778" gradientUnits="userSpaceOnUse">
<stop stop-color="white"/>
<stop offset="1" stop-color="#497C9C"/>
</linearGradient>
<linearGradient id="paint101_linear_349_1235" x1="172.999" y1="253.778" x2="172.681" y2="278.098" gradientUnits="userSpaceOnUse">
<stop stop-color="white"/>
<stop offset="1" stop-color="#497C9C"/>
</linearGradient>
<linearGradient id="paint102_linear_349_1235" x1="174.061" y1="253.079" x2="173.534" y2="293.368" gradientUnits="userSpaceOnUse">
<stop stop-color="white"/>
<stop offset="1" stop-color="#497C9C"/>
</linearGradient>
<linearGradient id="paint103_linear_349_1235" x1="233.03" y1="324.128" x2="232.747" y2="345.788" gradientUnits="userSpaceOnUse">
<stop stop-color="white"/>
<stop offset="1" stop-color="#497C9C"/>
</linearGradient>
<linearGradient id="paint104_linear_349_1235" x1="121.414" y1="205.562" x2="120.931" y2="242.444" gradientUnits="userSpaceOnUse">
<stop stop-color="white"/>
<stop offset="1" stop-color="#497C9C"/>
</linearGradient>
<linearGradient id="paint105_linear_349_1235" x1="121.161" y1="206.183" x2="120.684" y2="242.655" gradientUnits="userSpaceOnUse">
<stop stop-color="white"/>
<stop offset="1" stop-color="#497C9C"/>
</linearGradient>
<linearGradient id="paint106_linear_349_1235" x1="32.0302" y1="125.728" x2="31.6138" y2="157.533" gradientUnits="userSpaceOnUse">
<stop stop-color="white"/>
<stop offset="1" stop-color="#497C9C"/>
</linearGradient>
<linearGradient id="paint107_linear_349_1235" x1="105.728" y1="204.86" x2="105.447" y2="226.336" gradientUnits="userSpaceOnUse">
<stop stop-color="white"/>
<stop offset="1" stop-color="#497C9C"/>
</linearGradient>
<linearGradient id="paint108_linear_349_1235" x1="199.169" y1="277.153" x2="198.343" y2="340.223" gradientUnits="userSpaceOnUse">
<stop stop-color="white"/>
<stop offset="1" stop-color="#497C9C"/>
</linearGradient>
<linearGradient id="paint109_linear_349_1235" x1="123.905" y1="226.146" x2="123.578" y2="251.052" gradientUnits="userSpaceOnUse">
<stop stop-color="white"/>
<stop offset="1" stop-color="#497C9C"/>
</linearGradient>
<linearGradient id="paint110_linear_349_1235" x1="39.3144" y1="141.084" x2="38.9221" y2="171.049" gradientUnits="userSpaceOnUse">
<stop stop-color="white"/>
<stop offset="1" stop-color="#497C9C"/>
</linearGradient>
<linearGradient id="paint111_linear_349_1235" x1="80.2655" y1="192.135" x2="79.8721" y2="222.192" gradientUnits="userSpaceOnUse">
<stop stop-color="white"/>
<stop offset="1" stop-color="#497C9C"/>
</linearGradient>
<linearGradient id="paint112_linear_349_1235" x1="94.1686" y1="209.639" x2="93.8495" y2="234.016" gradientUnits="userSpaceOnUse">
<stop stop-color="white"/>
<stop offset="1" stop-color="#497C9C"/>
</linearGradient>
<linearGradient id="paint113_linear_349_1235" x1="112.284" y1="234.353" x2="112.003" y2="255.833" gradientUnits="userSpaceOnUse">
<stop stop-color="white"/>
<stop offset="1" stop-color="#497C9C"/>
</linearGradient>
<linearGradient id="paint114_linear_349_1235" x1="176.316" y1="284.954" x2="175.694" y2="332.478" gradientUnits="userSpaceOnUse">
<stop stop-color="white"/>
<stop offset="1" stop-color="#497C9C"/>
</linearGradient>
<linearGradient id="paint115_linear_349_1235" x1="151.786" y1="261.274" x2="151.164" y2="308.798" gradientUnits="userSpaceOnUse">
<stop stop-color="white"/>
<stop offset="1" stop-color="#497C9C"/>
</linearGradient>
<linearGradient id="paint116_linear_349_1235" x1="200.673" y1="330.688" x2="200.29" y2="359.918" gradientUnits="userSpaceOnUse">
<stop stop-color="white"/>
<stop offset="1" stop-color="#497C9C"/>
</linearGradient>
<linearGradient id="paint117_linear_349_1235" x1="117.645" y1="225.851" x2="116.605" y2="305.245" gradientUnits="userSpaceOnUse">
<stop stop-color="white"/>
<stop offset="1" stop-color="#497C9C"/>
</linearGradient>
<linearGradient id="paint118_linear_349_1235" x1="189.784" y1="343.231" x2="189.498" y2="365.035" gradientUnits="userSpaceOnUse">
<stop stop-color="white"/>
<stop offset="1" stop-color="#497C9C"/>
</linearGradient>
<linearGradient id="paint119_linear_349_1235" x1="37.1308" y1="191.197" x2="36.8496" y2="212.677" gradientUnits="userSpaceOnUse">
<stop stop-color="white"/>
<stop offset="1" stop-color="#497C9C"/>
</linearGradient>
<linearGradient id="paint120_linear_349_1235" x1="69.8598" y1="224.846" x2="69.4663" y2="254.903" gradientUnits="userSpaceOnUse">
<stop stop-color="white"/>
<stop offset="1" stop-color="#497C9C"/>
</linearGradient>
<linearGradient id="paint121_linear_349_1235" x1="174.036" y1="330.339" x2="173.585" y2="364.827" gradientUnits="userSpaceOnUse">
<stop stop-color="white"/>
<stop offset="1" stop-color="#497C9C"/>
</linearGradient>
<linearGradient id="paint122_linear_349_1235" x1="153.181" y1="315.634" x2="152.863" y2="339.955" gradientUnits="userSpaceOnUse">
<stop stop-color="white"/>
<stop offset="1" stop-color="#497C9C"/>
</linearGradient>
<linearGradient id="paint123_linear_349_1235" x1="128.651" y1="291.953" x2="128.332" y2="316.274" gradientUnits="userSpaceOnUse">
<stop stop-color="white"/>
<stop offset="1" stop-color="#497C9C"/>
</linearGradient>
<linearGradient id="paint124_linear_349_1235" x1="82.5618" y1="217.317" x2="81.5225" y2="296.711" gradientUnits="userSpaceOnUse">
<stop stop-color="white"/>
<stop offset="1" stop-color="#497C9C"/>
</linearGradient>
<linearGradient id="paint125_linear_349_1235" x1="25.7956" y1="195.983" x2="25.4696" y2="220.888" gradientUnits="userSpaceOnUse">
<stop stop-color="white"/>
<stop offset="1" stop-color="#497C9C"/>
</linearGradient>
<linearGradient id="paint126_linear_349_1235" x1="29.4958" y1="204.39" x2="29.0183" y2="240.861" gradientUnits="userSpaceOnUse">
<stop stop-color="white"/>
<stop offset="1" stop-color="#497C9C"/>
</linearGradient>
<linearGradient id="paint127_linear_349_1235" x1="135.39" y1="323.175" x2="135.107" y2="344.835" gradientUnits="userSpaceOnUse">
<stop stop-color="white"/>
<stop offset="1" stop-color="#497C9C"/>
</linearGradient>
<linearGradient id="paint128_linear_349_1235" x1="121.501" y1="299.634" x2="120.974" y2="339.923" gradientUnits="userSpaceOnUse">
<stop stop-color="white"/>
<stop offset="1" stop-color="#497C9C"/>
</linearGradient>
<linearGradient id="paint129_linear_349_1235" x1="101.482" y1="288.497" x2="101.163" y2="312.874" gradientUnits="userSpaceOnUse">
<stop stop-color="white"/>
<stop offset="1" stop-color="#497C9C"/>
</linearGradient>
<linearGradient id="paint130_linear_349_1235" x1="34.5192" y1="240.546" x2="34.2694" y2="259.629" gradientUnits="userSpaceOnUse">
<stop stop-color="white"/>
<stop offset="1" stop-color="#497C9C"/>
</linearGradient>
<linearGradient id="paint131_linear_349_1235" x1="89.6806" y1="296.173" x2="89.3995" y2="317.649" gradientUnits="userSpaceOnUse">
<stop stop-color="white"/>
<stop offset="1" stop-color="#497C9C"/>
</linearGradient>
<linearGradient id="paint132_linear_349_1235" x1="75.271" y1="280.079" x2="74.7881" y2="316.961" gradientUnits="userSpaceOnUse">
<stop stop-color="white"/>
<stop offset="1" stop-color="#497C9C"/>
</linearGradient>
<linearGradient id="paint133_linear_349_1235" x1="29.6859" y1="243.019" x2="29.1789" y2="281.754" gradientUnits="userSpaceOnUse">
<stop stop-color="white"/>
<stop offset="1" stop-color="#497C9C"/>
</linearGradient>
<linearGradient id="paint134_linear_349_1235" x1="41.5298" y1="265.366" x2="41.2029" y2="290.343" gradientUnits="userSpaceOnUse">
<stop stop-color="white"/>
<stop offset="1" stop-color="#497C9C"/>
</linearGradient>
</defs>
</svg>
