<svg width="40" height="39" viewBox="0 0 40 39" fill="none" xmlns="http://www.w3.org/2000/svg">
<path d="M19.6367 0.5C30.21 0.50019 38.7725 8.985 38.7725 19.4404C38.7722 29.8957 30.2099 38.3797 19.6367 38.3799C9.06339 38.3799 0.500235 29.8958 0.5 19.4404C0.5 8.98488 9.06325 0.5 19.6367 0.5Z" stroke="#FFFFF6"/>
<path d="M31.2526 20.147C31.6431 19.7565 31.6431 19.1234 31.2526 18.7328L24.8887 12.3689C24.4981 11.9783 23.865 11.9783 23.4744 12.3689C23.0839 12.7594 23.0839 13.3926 23.4744 13.7831L29.1313 19.4399L23.4744 25.0968C23.0839 25.4873 23.0839 26.1205 23.4744 26.511C23.865 26.9015 24.4981 26.9015 24.8887 26.511L31.2526 20.147ZM9.81824 19.4399V20.4399L30.5455 20.4399V19.4399V18.4399L9.81824 18.4399V19.4399Z" fill="white"/>
</svg>
